<svg width="60" height="61" viewBox="0 0 60 61" fill="none" xmlns="http://www.w3.org/2000/svg">
<g clip-path="url(#clip0_685_21642)">
<path d="M25.7507 29.5099C24.407 29.9452 23.0031 30.1663 21.5906 30.1653C14.1476 30.1653 8.11401 24.1317 8.11401 16.6887C8.11401 9.24579 14.1476 3.21216 21.5906 3.21216C23.0425 3.21216 24.4403 3.44278 25.7507 3.86759C20.3439 5.62083 16.4343 10.6977 16.4343 16.6887C16.4343 22.6797 20.3439 27.7566 25.7507 29.5099ZM37.9688 44.9309C37.9688 38.9399 41.8784 33.863 47.2852 32.1098C45.9415 31.6745 44.5376 31.4533 43.1251 31.4543C35.6821 31.4543 29.6485 37.488 29.6485 44.9309C29.6485 52.3738 35.6821 58.4075 43.1251 58.4075C44.577 58.4075 45.9748 58.1768 47.2852 57.752C41.8784 55.9988 37.9688 50.9219 37.9688 44.9309Z" fill="#EAEAEA"/>
<path d="M22.8516 32.509C14.1282 32.509 7.03125 25.412 7.03125 16.6887C7.03125 7.9654 14.1282 0.868408 22.8516 0.868408C31.5749 0.868408 38.6719 7.9654 38.6719 16.6887C38.6719 25.412 31.5749 32.509 22.8516 32.509ZM22.8516 5.55591C16.7129 5.55591 11.7188 10.5501 11.7188 16.6887C11.7188 22.8274 16.7129 27.8215 22.8516 27.8215C28.9902 27.8215 33.9844 22.8274 33.9844 16.6887C33.9844 10.5501 28.9902 5.55591 22.8516 5.55591ZM44.1797 60.7512C35.4564 60.7512 28.3594 53.6542 28.3594 44.9309C28.3594 36.2076 35.4564 29.1106 44.1797 29.1106C52.903 29.1106 60 36.2076 60 44.9309C60 53.6542 52.903 60.7512 44.1797 60.7512ZM44.1797 33.7981C38.0411 33.7981 33.0469 38.7923 33.0469 44.9309C33.0469 51.0695 38.0411 56.0637 44.1797 56.0637C50.3183 56.0637 55.3125 51.0695 55.3125 44.9309C55.3125 38.7923 50.3183 33.7981 44.1797 33.7981Z" fill="#323232"/>
<path d="M48.1625 42.5872H46.5234V40.1262C46.5234 38.8318 45.4741 37.7825 44.1797 37.7825C42.8852 37.7825 41.8359 38.8318 41.8359 40.1262V44.9309C41.8359 46.2254 42.8852 47.2747 44.1797 47.2747H48.1625C49.457 47.2747 50.5063 46.2254 50.5063 44.9309C50.5063 43.6365 49.457 42.5872 48.1625 42.5872ZM21.6797 37.1965H21.6497C9.22172 37.1965 0 46.7643 0 58.5247C0 59.8191 1.0493 60.8684 2.34375 60.8684C3.6382 60.8684 4.6875 59.8191 4.6875 58.5247C4.6875 49.349 11.7188 41.884 21.6797 41.884C22.9741 41.884 24.0234 40.8347 24.0234 39.5403C24.0234 38.2458 22.9741 37.1965 21.6797 37.1965Z" fill="#D82916"/>
</g>
<defs>
<clipPath id="clip0_685_21642">
<rect width="60" height="60" fill="white" transform="translate(0 0.868408)"/>
</clipPath>
</defs>
</svg>
