<svg width="22" height="20" viewBox="0 0 22 20" fill="none" xmlns="http://www.w3.org/2000/svg">
<path d="M6.85639 19.4894C6.77593 19.4894 6.69688 19.4684 6.62706 19.4284C6.55724 19.3884 6.49908 19.3309 6.45836 19.2615C4.73317 16.3224 0.136019 10.0671 0.0897729 10.0043C0.0240889 9.915 -0.00727182 9.80506 0.00142293 9.69456C0.0101177 9.58406 0.0582872 9.48038 0.137127 9.40248L1.55026 8.00609C1.62704 7.93022 1.72797 7.88366 1.83552 7.87451C1.94306 7.86535 2.05042 7.89417 2.13891 7.95597L6.76016 11.1829C9.83253 7.23597 12.6877 4.5121 14.5643 2.90715C16.6678 1.10794 18.0051 0.299459 18.061 0.265767C18.1328 0.222705 18.2149 0.199955 18.2985 0.199951H20.5846C20.6782 0.199936 20.7696 0.228362 20.8466 0.28146C20.9236 0.334558 20.9827 0.40982 21.016 0.497267C21.0493 0.584714 21.0553 0.680216 21.033 0.771109C21.0108 0.862003 20.9615 0.943994 20.8916 1.00621C17.5025 4.02467 13.9789 8.82066 11.6198 12.3123C9.05539 16.1078 7.27514 19.2252 7.25746 19.2563C7.21739 19.3266 7.15952 19.3852 7.08965 19.4261C7.01979 19.467 6.94039 19.4888 6.85943 19.4894L6.85639 19.4894Z" fill="#D82916"/>
</svg>
