<svg width="20" height="20" viewBox="0 0 20 20" fill="none" xmlns="http://www.w3.org/2000/svg">
<path d="M4.43707 3.52419C4.1845 3.26971 3.775 3.26971 3.52243 3.52419C3.26987 3.77867 3.26987 4.19126 3.52243 4.44573L9.08504 10.0504L3.62239 15.5543C3.36982 15.8087 3.36983 16.2213 3.62239 16.4758C3.87496 16.7303 4.28446 16.7303 4.53703 16.4758L9.99967 10.9719L15.4623 16.4758C15.7149 16.7303 16.1244 16.7303 16.377 16.4758C16.6295 16.2213 16.6295 15.8087 16.377 15.5543L10.9143 10.0504L16.4769 4.44573C16.7295 4.19126 16.7295 3.77867 16.4769 3.52419C16.2243 3.26971 15.8148 3.26971 15.5623 3.52419L9.99967 9.12881L4.43707 3.52419Z" fill="#1F1F1F"/>
</svg>
