<svg width="18" height="19" viewBox="0 0 18 19" fill="none" xmlns="http://www.w3.org/2000/svg">
<path d="M9 6.94995C8.85166 6.94995 8.70666 6.99394 8.58332 7.07635C8.45999 7.15876 8.36386 7.27589 8.30709 7.41294C8.25032 7.54998 8.23547 7.70078 8.26441 7.84627C8.29335 7.99176 8.36478 8.12539 8.46967 8.23028C8.57456 8.33517 8.7082 8.4066 8.85368 8.43554C8.99917 8.46448 9.14997 8.44963 9.28701 8.39286C9.42406 8.3361 9.54119 8.23997 9.6236 8.11663C9.70601 7.99329 9.75 7.84829 9.75 7.69995C9.75 7.50104 9.67098 7.31027 9.53033 7.16962C9.38968 7.02897 9.19891 6.94995 9 6.94995ZM14.25 1.69995H3.75C3.15326 1.69995 2.58097 1.937 2.15901 2.35896C1.73705 2.78092 1.5 3.35321 1.5 3.94995V11.45C1.5 12.0467 1.73705 12.619 2.15901 13.0409C2.58097 13.4629 3.15326 13.7 3.75 13.7H12.4425L15.2175 16.4825C15.2876 16.552 15.3707 16.607 15.4621 16.6443C15.5534 16.6816 15.6513 16.7005 15.75 16.7C15.8484 16.7025 15.946 16.6819 16.035 16.64C16.172 16.5837 16.2892 16.4881 16.372 16.3653C16.4547 16.2426 16.4993 16.098 16.5 15.95V3.94995C16.5 3.35321 16.2629 2.78092 15.841 2.35896C15.419 1.937 14.8467 1.69995 14.25 1.69995ZM15 14.1425L13.2825 12.4175C13.2124 12.3479 13.1293 12.2929 13.0379 12.2556C12.9466 12.2183 12.8487 12.1994 12.75 12.2H3.75C3.55109 12.2 3.36032 12.1209 3.21967 11.9803C3.07902 11.8396 3 11.6489 3 11.45V3.94995C3 3.75104 3.07902 3.56027 3.21967 3.41962C3.36032 3.27897 3.55109 3.19995 3.75 3.19995H14.25C14.4489 3.19995 14.6397 3.27897 14.7803 3.41962C14.921 3.56027 15 3.75104 15 3.94995V14.1425ZM6 6.94995C5.85166 6.94995 5.70666 6.99394 5.58332 7.07635C5.45999 7.15876 5.36386 7.27589 5.30709 7.41294C5.25032 7.54998 5.23547 7.70078 5.26441 7.84627C5.29335 7.99176 5.36478 8.12539 5.46967 8.23028C5.57456 8.33517 5.7082 8.4066 5.85368 8.43554C5.99917 8.46448 6.14997 8.44963 6.28701 8.39286C6.42406 8.3361 6.54119 8.23997 6.6236 8.11663C6.70601 7.99329 6.75 7.84829 6.75 7.69995C6.75 7.50104 6.67098 7.31027 6.53033 7.16962C6.38968 7.02897 6.19891 6.94995 6 6.94995ZM12 6.94995C11.8517 6.94995 11.7067 6.99394 11.5833 7.07635C11.46 7.15876 11.3639 7.27589 11.3071 7.41294C11.2503 7.54998 11.2355 7.70078 11.2644 7.84627C11.2934 7.99176 11.3648 8.12539 11.4697 8.23028C11.5746 8.33517 11.7082 8.4066 11.8537 8.43554C11.9992 8.46448 12.15 8.44963 12.287 8.39286C12.4241 8.3361 12.5412 8.23997 12.6236 8.11663C12.706 7.99329 12.75 7.84829 12.75 7.69995C12.75 7.50104 12.671 7.31027 12.5303 7.16962C12.3897 7.02897 12.1989 6.94995 12 6.94995Z" fill="#BABABA"/>
</svg>
