<svg width="18" height="19" viewBox="0 0 18 19" fill="none" xmlns="http://www.w3.org/2000/svg">
<path d="M16.4402 8.89995C14.9252 5.38245 12.0752 3.19995 9.00017 3.19995C5.92517 3.19995 3.07517 5.38245 1.56017 8.89995C1.51887 8.99458 1.49756 9.09671 1.49756 9.19995C1.49756 9.30319 1.51887 9.40533 1.56017 9.49995C3.07517 13.0175 5.92517 15.2 9.00017 15.2C12.0752 15.2 14.9252 13.0175 16.4402 9.49995C16.4815 9.40533 16.5028 9.30319 16.5028 9.19995C16.5028 9.09671 16.4815 8.99458 16.4402 8.89995ZM9.00017 13.7C6.62267 13.7 4.37267 11.9825 3.07517 9.19995C4.37267 6.41745 6.62267 4.69995 9.00017 4.69995C11.3777 4.69995 13.6277 6.41745 14.9252 9.19995C13.6277 11.9825 11.3777 13.7 9.00017 13.7ZM9.00017 6.19995C8.40683 6.19995 7.82681 6.3759 7.33346 6.70554C6.84011 7.03519 6.4556 7.50372 6.22853 8.0519C6.00147 8.60008 5.94206 9.20328 6.05782 9.78522C6.17357 10.3672 6.45929 10.9017 6.87885 11.3213C7.29841 11.7408 7.83296 12.0266 8.4149 12.1423C8.99684 12.2581 9.60004 12.1987 10.1482 11.9716C10.6964 11.7445 11.1649 11.36 11.4946 10.8667C11.8242 10.3733 12.0002 9.79329 12.0002 9.19995C12.0002 8.4043 11.6841 7.64124 11.1215 7.07863C10.5589 6.51602 9.79582 6.19995 9.00017 6.19995ZM9.00017 10.7C8.7035 10.7 8.41349 10.612 8.16682 10.4472C7.92014 10.2823 7.72788 10.0481 7.61435 9.77398C7.50082 9.49989 7.47112 9.19829 7.52899 8.90732C7.58687 8.61634 7.72973 8.34907 7.93951 8.13929C8.14929 7.92951 8.41657 7.78665 8.70754 7.72877C8.99851 7.6709 9.30011 7.7006 9.5742 7.81413C9.84829 7.92766 10.0826 8.11992 10.2474 8.3666C10.4122 8.61327 10.5002 8.90328 10.5002 9.19995C10.5002 9.59778 10.3421 9.97931 10.0608 10.2606C9.77953 10.5419 9.398 10.7 9.00017 10.7Z" fill="#BABABA"/>
</svg>
