<svg width="14" height="13" viewBox="0 0 14 13" fill="none" xmlns="http://www.w3.org/2000/svg">
<path d="M12.4401 2.03323C11.7334 1.3247 10.7966 0.892259 9.799 0.814012C8.80135 0.735765 7.80861 1.01688 7.0001 1.60657C6.15187 0.975657 5.0961 0.689573 4.04538 0.805924C2.99467 0.922274 2.02706 1.43242 1.33742 2.23362C0.647773 3.03483 0.287317 4.06758 0.328636 5.12391C0.369956 6.18024 0.809981 7.18168 1.5601 7.92657L5.7001 12.0732C6.04678 12.4144 6.51369 12.6056 7.0001 12.6056C7.48651 12.6056 7.95342 12.4144 8.3001 12.0732L12.4401 7.92657C13.2185 7.14341 13.6554 6.08408 13.6554 4.9799C13.6554 3.87572 13.2185 2.81639 12.4401 2.03323V2.03323ZM11.5001 7.00657L7.3601 11.1466C7.31299 11.1941 7.25692 11.2319 7.19513 11.2577C7.13334 11.2834 7.06705 11.2967 7.0001 11.2967C6.93315 11.2967 6.86687 11.2834 6.80508 11.2577C6.74328 11.2319 6.68721 11.1941 6.6401 11.1466L2.5001 6.98657C1.97727 6.45213 1.68451 5.73421 1.68451 4.98657C1.68451 4.23892 1.97727 3.521 2.5001 2.98657C3.03287 2.46056 3.75142 2.16561 4.5001 2.16561C5.24879 2.16561 5.96733 2.46056 6.5001 2.98657C6.56208 3.04905 6.63581 3.09865 6.71705 3.13249C6.79829 3.16634 6.88543 3.18376 6.97344 3.18376C7.06144 3.18376 7.14858 3.16634 7.22982 3.13249C7.31106 3.09865 7.38479 3.04905 7.44677 2.98657C7.97954 2.46056 8.69808 2.16561 9.44677 2.16561C10.1955 2.16561 10.914 2.46056 11.4468 2.98657C11.9768 3.514 12.2792 4.22803 12.2891 4.97569C12.2991 5.72335 12.0159 6.44519 11.5001 6.98657V7.00657Z" fill="#93928D"/>
</svg>
