<svg width="160" height="44" viewBox="0 0 160 44" fill="none" xmlns="http://www.w3.org/2000/svg">
<path d="M12.112 8.49901C12.112 9.21907 11.8034 9.80337 11.4207 9.80337C11.0381 9.80337 10.7295 9.21316 10.7295 8.49901C10.7295 7.78486 11.0381 7.19465 11.4207 7.19465C11.8034 7.19465 12.112 7.77895 12.112 8.49901Z" fill="#D82916"/>
<path d="M13.7228 15.4782C13.7228 16.2012 13.3741 16.7856 12.9452 16.7856C12.5162 16.7856 12.1644 16.1953 12.1644 15.4782C12.1644 14.7611 12.5131 14.165 12.9452 14.165C13.3772 14.165 13.7228 14.7552 13.7228 15.4782Z" fill="#D82916"/>
<path d="M23.2181 6.34769C23.2181 7.06775 22.9095 7.65206 22.5238 7.65206C22.138 7.65206 21.8325 7.06185 21.8325 6.34769C21.8325 5.63354 22.1411 5.04038 22.5238 5.04038C22.9064 5.04038 23.2181 5.62764 23.2181 6.34769Z" fill="#D82916"/>
<path d="M23.9248 3.75373C23.9248 4.47674 23.6162 5.06105 23.2304 5.06105C22.8447 5.06105 22.5392 4.47674 22.5392 3.75373C22.5392 3.03073 22.8478 2.44937 23.2304 2.44937C23.6131 2.44937 23.9248 3.03368 23.9248 3.75373Z" fill="#D82916"/>
<path d="M11.2819 17.6797C11.2819 18.3998 10.9733 18.9841 10.5875 18.9841C10.2018 18.9841 9.88705 18.3998 9.88705 17.6797C9.88705 16.9597 10.1956 16.3754 10.5783 16.3754C10.9609 16.3754 11.2819 16.9597 11.2819 17.6797Z" fill="#D82916"/>
<path d="M23.0175 10.2903C23.0175 11.0104 22.6102 11.5947 22.0917 11.5947C21.5733 11.5947 21.166 11.0045 21.166 10.2903C21.166 9.57615 21.5764 8.98594 22.0917 8.98594C22.6071 8.98594 23.0175 9.57025 23.0175 10.2903Z" fill="#D82916"/>
<path d="M23.2088 14.2713C23.2088 15.3307 22.8169 16.1865 22.3386 16.1865C21.8603 16.1865 21.4653 15.3307 21.4653 14.2713C21.4653 13.2118 21.8572 12.359 22.3386 12.359C22.82 12.359 23.2088 13.2148 23.2088 14.2713Z" fill="#D82916"/>
<path d="M20.8728 11.8042C20.8728 12.3944 20.5642 12.8489 20.1816 12.8489C19.7989 12.8489 19.4872 12.3944 19.4872 11.8042C19.4872 11.214 19.7958 10.7566 20.1816 10.7566C20.5673 10.7566 20.8728 11.2376 20.8728 11.8042Z" fill="#D82916"/>
<path d="M30.7631 4.78365C30.7631 5.37386 30.4545 5.83717 30.0718 5.83717C29.6892 5.83717 29.3806 5.365 29.3806 4.78365C29.3806 4.20229 29.6892 3.73012 30.0718 3.73012C30.4545 3.73012 30.7631 4.19934 30.7631 4.78365Z" fill="#D82916"/>
<path d="M28.0074 9.39613C28.0074 10.3405 27.5106 11.1077 26.8934 11.1077C26.2762 11.1077 25.7794 10.3287 25.7794 9.39613C25.7794 8.4636 26.2793 7.67272 26.8934 7.67272C27.5075 7.67272 28.0074 8.45179 28.0074 9.39613Z" fill="#D82916"/>
<path d="M20.0705 4.10195C20.0705 4.81906 19.7619 5.40632 19.3792 5.40632C18.9966 5.40632 18.6849 4.81611 18.6849 4.10195C18.6849 3.3878 18.9935 2.79464 19.3792 2.79464C19.765 2.79464 20.0705 3.37895 20.0705 4.10195Z" fill="#D82916"/>
<path d="M5.83836 13.3919C5.83836 14.1119 5.43411 14.6962 4.93728 14.6962C4.44045 14.6962 4.02386 14.1119 4.02386 13.3919C4.02386 12.6718 4.44045 12.0993 4.94963 12.0993C5.4588 12.0993 5.83836 12.6718 5.83836 13.3919Z" fill="#D82916"/>
<path d="M5.94637 21.1177C5.94637 21.8377 5.63778 22.428 5.25821 22.428C4.87865 22.428 4.56697 21.8377 4.56697 21.1236C4.56697 20.4094 4.87556 19.8192 5.25821 19.8192C5.64086 19.8192 5.94637 20.3976 5.94637 21.1177Z" fill="#D82916"/>
<path d="M8.23301 14.5457C8.23301 15.3543 7.74544 16.0212 7.14678 16.0212C6.54812 16.0212 6.06055 15.369 6.06055 14.5457C6.06055 13.7224 6.54503 13.0879 7.14678 13.0879C7.74853 13.0879 8.23301 13.7401 8.23301 14.5457Z" fill="#D82916"/>
<path d="M8.22067 27.1231C8.22067 27.8107 7.7331 28.3655 7.13444 28.3655C6.53578 28.3655 6.0482 27.8107 6.0482 27.1231C6.0482 26.4355 6.53269 25.8807 7.13444 25.8807C7.73619 25.8807 8.22067 26.4384 8.22067 27.1231Z" fill="#D82916"/>
<path d="M7.0326 8.22161C7.0326 8.94166 6.60366 9.52597 6.07598 9.52597C5.54829 9.52597 5.11935 8.93576 5.11935 8.22161C5.11935 7.50745 5.54829 6.91725 6.07598 6.91725C6.60366 6.91725 7.0326 7.50155 7.0326 8.22161Z" fill="#D82916"/>
<path d="M12.689 11.9724C12.689 12.6895 12.291 13.2797 11.8034 13.2797C11.3158 13.2797 10.9177 12.6895 10.9177 11.9753C10.9177 11.2612 11.3127 10.671 11.8034 10.671C12.294 10.671 12.689 11.2494 12.689 11.9724Z" fill="#D82916"/>
<path d="M17.8363 4.60068C17.8363 5.31188 17.4382 5.90209 16.9506 5.90209C16.4631 5.90209 16.0588 5.31188 16.0588 4.60068C16.0588 3.88948 16.4569 3.29632 16.9445 3.29632C17.432 3.29632 17.8363 3.88062 17.8363 4.60068Z" fill="#D82916"/>
<path d="M14.6918 10.4261C14.6918 11.2228 14.2968 11.8662 13.8061 11.8662C13.3155 11.8662 12.9205 11.214 12.9205 10.4261C12.9205 9.63812 13.3186 8.98594 13.8061 8.98594C14.2937 8.98594 14.6918 9.62927 14.6918 10.4261Z" fill="#D82916"/>
<path d="M16.6081 14.4218C16.6081 15.4163 16.1113 16.2249 15.5034 16.2249C14.8954 16.2249 14.3955 15.4163 14.3955 14.4218C14.3955 13.4273 14.8924 12.6216 15.5034 12.6216C16.1144 12.6216 16.6081 13.4273 16.6081 14.4218Z" fill="#D82916"/>
<path d="M18.9657 12.9315C18.9657 13.7253 18.5707 14.3716 18.0801 14.3716C17.5894 14.3716 17.1975 13.7253 17.1975 12.9315C17.1975 12.1377 17.5925 11.4884 18.0801 11.4884C18.5677 11.4884 18.9657 12.1347 18.9657 12.9315Z" fill="#D82916"/>
<path d="M20.3235 20.1822C20.3235 21.1826 19.7465 21.9941 19.0336 21.9941C18.3208 21.9941 17.7437 21.1826 17.7437 20.1822C17.7437 19.1818 18.3208 18.3732 19.0336 18.3732C19.7465 18.3732 20.3235 19.1818 20.3235 20.1822Z" fill="#D82916"/>
<path d="M38.6691 11.574C38.6691 12.0904 38.3605 12.5065 37.9686 12.5065C37.5767 12.5065 37.2681 12.0904 37.2681 11.574C37.2681 11.0576 37.5767 10.6415 37.9686 10.6415C38.3605 10.6415 38.6691 11.0605 38.6691 11.574Z" fill="#D82916"/>
<path d="M13.803 18.7716C13.803 19.5684 13.408 20.2147 12.9174 20.2147C12.4267 20.2147 12.0472 19.5684 12.0472 18.7716C12.0472 17.9748 12.4452 17.3315 12.9328 17.3315C13.4204 17.3315 13.803 17.9778 13.803 18.7716Z" fill="#D82916"/>
<path d="M5.16564 24.5793C5.16564 25.196 4.76756 25.6947 4.27999 25.6947C3.79242 25.6947 3.40669 25.196 3.40669 24.5793C3.40669 23.9625 3.80477 23.4667 4.29234 23.4667C4.77991 23.4667 5.16564 23.9654 5.16564 24.5793Z" fill="#D82916"/>
<path d="M3.91586 20.9819C3.91586 21.702 3.52395 22.2863 3.03946 22.2863C2.55498 22.2863 2.17233 21.702 2.17233 20.9819C2.17233 20.2619 2.56424 19.6776 3.04872 19.6776C3.53321 19.6776 3.91586 20.2619 3.91586 20.9819Z" fill="#D82916"/>
<path d="M4.24296 16.2573C4.24296 16.9656 3.73687 17.541 3.11352 17.541C2.49017 17.541 1.98409 16.9656 1.98409 16.2573C1.98409 15.5491 2.48092 14.9707 3.11352 14.9707C3.74613 14.9707 4.24296 15.5461 4.24296 16.2573Z" fill="#D82916"/>
<path d="M1.78351 18.8159C1.79103 18.9343 1.77408 19.0529 1.73364 19.1651C1.6932 19.2772 1.63005 19.3806 1.54781 19.4694C1.46557 19.5582 1.36583 19.6306 1.25431 19.6825C1.14279 19.7345 1.02167 19.7649 0.897857 19.772C0.652058 19.7492 0.423932 19.6398 0.257944 19.4649C0.0919558 19.29 0 19.0624 0 18.8262C0 18.59 0.0919558 18.3623 0.257944 18.1875C0.423932 18.0126 0.652058 17.9032 0.897857 17.8804C1.14426 17.8941 1.37517 17.9999 1.54083 18.1748C1.70648 18.3498 1.79364 18.58 1.78351 18.8159Z" fill="#D82916"/>
<path d="M7.77013 11.1225C7.77848 11.2405 7.76203 11.3588 7.72176 11.4706C7.68149 11.5824 7.61821 11.6853 7.53566 11.7734C7.45311 11.8614 7.35296 11.9327 7.24112 11.9831C7.12928 12.0335 7.00801 12.062 6.88448 12.0668C6.63868 12.0441 6.41056 11.9346 6.24457 11.7597C6.07858 11.5849 5.98662 11.3572 5.98662 11.121C5.98662 10.8849 6.07858 10.6572 6.24457 10.4823C6.41056 10.3075 6.63868 10.198 6.88448 10.1752C7.13313 10.1889 7.36596 10.2963 7.53196 10.4739C7.69796 10.6514 7.78361 10.8847 7.77013 11.1225Z" fill="#D82916"/>
<path d="M36.7343 13.0407C36.7343 13.8345 36.3393 14.4808 35.8517 14.4808C35.3641 14.4808 34.9661 13.8345 34.9661 13.0407C34.9661 12.2469 35.3611 11.5976 35.8517 11.5976C36.3424 11.5976 36.7343 12.2439 36.7343 13.0407Z" fill="#D82916"/>
<path d="M30.4792 13.5306C30.4792 14.3244 30.0811 14.9707 29.5935 14.9707C29.106 14.9707 28.711 14.3244 28.711 13.5306C28.711 12.7367 29.106 12.0993 29.5935 12.0993C30.0811 12.0993 30.4792 12.7338 30.4792 13.5306Z" fill="#D82916"/>
<path d="M27.8037 17.1161C27.8037 17.9129 27.4056 18.5562 26.9181 18.5562C26.4305 18.5562 26.0355 17.9217 26.0355 17.1161C26.0355 16.3104 26.4305 15.676 26.9181 15.676C27.4056 15.676 27.8037 16.3281 27.8037 17.1161Z" fill="#D82916"/>
<path d="M36.0153 16.1599C36.0153 16.7501 35.6203 17.2016 35.1296 17.2016C34.639 17.2016 34.244 16.7354 34.244 16.1599C34.244 15.5845 34.642 15.1153 35.1296 15.1153C35.6172 15.1153 36.0153 15.5815 36.0153 16.1599Z" fill="#D82916"/>
<path d="M35.071 9.54959C35.071 10.3434 34.676 10.9897 34.1884 10.9897C33.7008 10.9897 33.3028 10.3434 33.3028 9.54959C33.3028 8.75575 33.6978 8.10652 34.1884 8.10652C34.6791 8.10652 35.071 8.7528 35.071 9.54959Z" fill="#D82916"/>
<path d="M25.8843 7.1917C25.8843 7.98553 25.4862 8.63181 24.9986 8.63181C24.5111 8.63181 24.113 7.98553 24.113 7.1917C24.113 6.39787 24.5111 5.74864 24.9986 5.74864C25.4862 5.74864 25.8843 6.39492 25.8843 7.1917Z" fill="#D82916"/>
<path d="M17.6913 9.27514C17.6913 10.1604 17.1605 10.8953 16.5063 10.8953C15.8521 10.8953 15.3244 10.1693 15.3244 9.27514C15.3244 8.38097 15.8552 7.65206 16.5063 7.65206C17.1574 7.65206 17.6913 8.37802 17.6913 9.27514Z" fill="#D82916"/>
<path d="M15.0096 5.88143C15.0096 6.87593 14.5159 7.67272 13.8987 7.67272C13.2815 7.67272 12.7909 6.86708 12.7909 5.87258C12.7909 4.87808 13.2815 4.08129 13.8987 4.08129C14.5159 4.08129 15.0096 4.88693 15.0096 5.88143Z" fill="#D82916"/>
<path d="M16.7933 18.81C16.7933 19.6068 16.3952 20.2501 15.9076 20.2501C15.42 20.2501 15.022 19.6068 15.022 18.81C15.022 18.0132 15.42 17.3699 15.9076 17.3699C16.3952 17.3699 16.7933 18.0014 16.7933 18.81Z" fill="#D82916"/>
<path d="M30.2971 10.3287C30.2971 11.0133 29.899 11.5681 29.4115 11.5681C28.9239 11.5681 28.5258 11.0163 28.5258 10.3287C28.5258 9.64108 28.9239 9.09218 29.4115 9.09218C29.899 9.09218 30.2971 9.64993 30.2971 10.3287Z" fill="#D82916"/>
<path d="M25.5788 14.7552C25.5494 14.9165 25.4723 15.0664 25.3568 15.1873C25.2412 15.3081 25.0919 15.3948 24.9265 15.4372C24.7611 15.4795 24.5865 15.4758 24.4233 15.4264C24.26 15.377 24.1149 15.284 24.0051 15.1584C23.8953 15.0327 23.8254 14.8797 23.8035 14.7173C23.7817 14.5549 23.8088 14.3899 23.8818 14.2417C23.9547 14.0936 24.0705 13.9685 24.2153 13.8812C24.3602 13.7939 24.5281 13.748 24.6993 13.7489C24.9549 13.7721 25.1906 13.8908 25.3553 14.0792C25.5199 14.2676 25.6003 14.5105 25.5788 14.7552Z" fill="#D82916"/>
<path d="M33.3861 11.7599C33.3861 12.5596 32.8923 13.2089 32.2813 13.2089C31.6703 13.2089 31.1797 12.5596 31.1797 11.7599C31.1797 10.9602 31.6765 10.311 32.2875 10.311C32.8985 10.311 33.3861 10.9572 33.3861 11.7599Z" fill="#D82916"/>
<path d="M32.3616 8.48425C32.3616 9.27809 31.9666 9.92436 31.4759 9.92436C30.9853 9.92436 30.5934 9.27809 30.5934 8.48425C30.5934 7.69042 30.9883 7.04414 31.4759 7.04414C31.9635 7.04414 32.3616 7.68747 32.3616 8.48425Z" fill="#D82916"/>
<path d="M25.3782 10.7241C25.3782 11.4028 24.9801 11.9517 24.4926 11.9517C24.005 11.9517 23.6069 11.4028 23.6069 10.7241C23.6069 10.0454 24.005 9.49647 24.4926 9.49647C24.9801 9.49647 25.3782 10.0336 25.3782 10.7241Z" fill="#D82916"/>
<path d="M27.8593 13.5128C27.8593 14.3096 27.4612 14.9559 26.9736 14.9559C26.486 14.9559 26.088 14.3096 26.088 13.5128C26.088 12.7161 26.483 12.0727 26.9736 12.0727C27.4643 12.0727 27.8593 12.719 27.8593 13.5128Z" fill="#D82916"/>
<path d="M24.3506 18.5916C24.3506 19.4238 23.8785 20.0996 23.2983 20.0996C22.7182 20.0996 22.2491 19.4238 22.2491 18.5916C22.2491 17.7594 22.7182 17.0836 23.2983 17.0836C23.8785 17.0836 24.3506 17.7683 24.3506 18.5916Z" fill="#D82916"/>
<path d="M18.6973 1.11254C18.6973 1.70275 18.2992 2.17196 17.8116 2.17196C17.324 2.17196 16.926 1.69685 16.926 1.11254C16.926 0.528232 17.324 0.0531133 17.8116 0.0531133C18.2992 0.0531133 18.6973 0.528232 18.6973 1.11254Z" fill="#D82916"/>
<path d="M21.5239 1.44011C21.5239 2.23689 21.1289 2.88317 20.6383 2.88317C20.1476 2.88317 19.7619 2.23689 19.7619 1.44011C19.7619 0.643328 20.1507 0 20.6383 0C21.1259 0 21.5239 0.646279 21.5239 1.44011Z" fill="#D82916"/>
<path d="M9.63401 7.63141C9.63401 8.27179 9.26061 8.79117 8.79773 8.79117C8.33485 8.79117 7.96146 8.26294 7.96146 7.63141C7.96146 6.99989 8.33485 6.4687 8.79773 6.4687C9.26061 6.4687 9.63401 6.99104 9.63401 7.63141Z" fill="#D82916"/>
<path d="M33.8953 19.2379C33.8953 20.0347 33.4972 20.678 33.0096 20.678C32.522 20.678 32.124 20.0347 32.124 19.2379C32.124 18.4411 32.522 17.7978 33.0096 17.7978C33.4972 17.7978 33.8953 18.4411 33.8953 19.2379Z" fill="#D82916"/>
<path d="M33.4231 15.6405C33.4231 16.4373 33.0281 17.0836 32.5375 17.0836C32.0468 17.0836 31.6518 16.4373 31.6518 15.6405C31.6518 14.8438 32.0499 14.2004 32.5375 14.2004C33.025 14.2004 33.4231 14.8379 33.4231 15.6405Z" fill="#D82916"/>
<path d="M29.7694 7.26547C29.7694 8.06225 29.3744 8.70558 28.8869 8.70558C28.3993 8.70558 28.0012 8.06225 28.0012 7.26547C28.0012 6.46869 28.3962 5.82536 28.8869 5.82536C29.3775 5.82536 29.7694 6.47164 29.7694 7.26547Z" fill="#D82916"/>
<path d="M20.3791 7.84093C20.3791 8.63771 19.981 9.28104 19.4934 9.28104C19.0058 9.28104 18.6078 8.63771 18.6078 7.84093C18.6078 7.04415 19.0058 6.40082 19.4934 6.40082C19.981 6.40082 20.3791 7.04415 20.3791 7.84093Z" fill="#D82916"/>
<path d="M27.7081 5.16138C27.7081 5.95816 27.3131 6.60149 26.8224 6.60149C26.3317 6.60149 25.9337 5.95816 25.9337 5.16138C25.9337 4.3646 26.3317 3.72127 26.8193 3.72127C27.3069 3.72127 27.7081 4.36755 27.7081 5.16138Z" fill="#D82916"/>
<path d="M21.024 15.8619C21.024 16.5229 20.629 17.0423 20.1384 17.0423C19.6477 17.0423 19.2558 16.5082 19.2558 15.8619C19.2558 15.2156 19.6508 14.6637 20.1384 14.6637C20.6259 14.6637 21.024 15.2008 21.024 15.8619Z" fill="#D82916"/>
<path d="M38.7586 16.6527C38.7586 17.5646 38.305 18.3053 37.7464 18.3053C37.1879 18.3053 36.7343 17.5646 36.7343 16.6527C36.7343 15.7409 37.1848 15.0031 37.7464 15.0031C38.3081 15.0031 38.7586 15.7438 38.7586 16.6527Z" fill="#D82916"/>
<path d="M10.0969 10.789C10.0969 11.5858 9.70189 12.2291 9.21124 12.2291C8.72058 12.2291 8.3441 11.5858 8.3441 10.789C8.3441 9.99224 8.7391 9.34891 9.22667 9.34891C9.71424 9.34891 10.0969 9.99519 10.0969 10.789Z" fill="#D82916"/>
<path d="M10.8498 14.165C10.8498 15.0503 10.353 15.794 9.7451 15.794C9.13718 15.794 8.6527 15.0503 8.6527 14.165C8.6527 13.2797 9.14644 12.5331 9.76053 12.5331C10.3746 12.5331 10.8498 13.2532 10.8498 14.165Z" fill="#D82916"/>
<path d="M10.4302 24.9452C10.4302 25.6741 10.0352 26.2643 9.5476 26.2643C9.06003 26.2643 8.6527 25.6741 8.6527 24.9452C8.6527 24.2163 9.05078 23.6408 9.53835 23.6408C10.0259 23.6408 10.4302 24.2251 10.4302 24.9452Z" fill="#D82916"/>
<path d="M12.0194 27.6513C12.0194 28.3714 11.6244 28.9557 11.1338 28.9557C10.6431 28.9557 10.2512 28.3655 10.2512 27.6513C10.2512 26.9371 10.6462 26.3469 11.1338 26.3469C11.6213 26.3469 12.0194 26.9312 12.0194 27.6513Z" fill="#D82916"/>
<path d="M8.50148 23.1775C8.50148 23.9035 8.1034 24.4937 7.61583 24.4937C7.12826 24.4937 6.73018 23.9035 6.73018 23.1893C6.73018 22.4752 7.12826 21.885 7.61583 21.885C8.1034 21.885 8.50148 22.4575 8.50148 23.1775Z" fill="#D82916"/>
<path d="M36.3578 19.8045C36.3578 20.5275 35.9597 21.1118 35.4721 21.1118C34.9846 21.1118 34.5865 20.5216 34.5865 19.8045C34.5865 19.0874 34.9815 18.5001 35.4721 18.5001C35.9628 18.5001 36.3578 19.0844 36.3578 19.8045Z" fill="#D82916"/>
<path d="M30.9174 17.1485C30.8941 17.3631 30.8063 17.5666 30.6645 17.7344C30.5228 17.9022 30.3332 18.0271 30.1187 18.094C29.9043 18.1608 29.6741 18.1668 29.4562 18.1112C29.2383 18.0555 29.0419 17.9406 28.8908 17.7804C28.7398 17.6202 28.6405 17.4216 28.6051 17.2085C28.5697 16.9955 28.5997 16.7772 28.6913 16.5801C28.783 16.383 28.9325 16.2156 29.1216 16.098C29.3108 15.9805 29.5315 15.9179 29.7571 15.9179C30.0807 15.9362 30.3838 16.0756 30.601 16.3058C30.8181 16.5361 30.9317 16.8388 30.9174 17.1485Z" fill="#D82916"/>
<path d="M9.25136 18.8867C9.25136 19.6068 8.75762 20.1911 8.1497 20.1911C7.54178 20.1911 7.04803 19.6008 7.04803 18.8867C7.04803 18.1725 7.54178 17.5823 8.1497 17.5823C8.75762 17.5823 9.25136 18.1725 9.25136 18.8867Z" fill="#D82916"/>
<path d="M6.29816 17.6414C6.29816 18.3614 5.90008 18.9457 5.41251 18.9457C4.92494 18.9457 4.52686 18.3555 4.52686 17.6414C4.52686 16.9272 4.92494 16.337 5.41251 16.337C5.90008 16.337 6.29816 16.9213 6.29816 17.6414Z" fill="#D82916"/>
<path d="M31.6055 20.5245C31.4266 19.4149 28.4456 20.9082 26.7453 21.5131C26.0725 21.7551 24.9184 22.4309 23.6594 22.7408L23.9494 22.5726C27.0014 20.7695 27.8654 20.7606 27.7852 20.1556C27.705 19.5507 25.8257 19.8605 22.6441 21.7846C21.3666 22.5548 20.234 22.8352 18.4288 23.7353C20.8692 23.2647 23.3871 23.304 25.8102 23.8504C25.8102 23.8504 26.0139 23.3634 28.0074 22.4132C31.3247 20.8226 31.6858 21.0203 31.6055 20.5245Z" fill="#D82916"/>
<path d="M27.4334 25.261C23.8353 26.5004 20.9962 23.39 17.2932 24.2458C20.6877 22.9178 24.3691 25.0839 26.3935 24.0746C27.0292 23.7795 28.5814 23.2306 29.1708 22.9798C30.078 22.5991 32.5066 21.5662 32.3924 22.7526C32.3647 23.148 30.0101 23.6792 27.4334 25.261Z" fill="#D82916"/>
<path d="M34.3551 6.04374C34.3624 6.22756 34.3121 6.40928 34.2105 6.56548C34.1089 6.72168 33.9606 6.84519 33.785 6.92008C33.6093 6.99497 33.4141 7.01782 33.2247 6.98567C33.0353 6.95352 32.8603 6.86786 32.7223 6.73971C32.5843 6.61157 32.4896 6.44683 32.4504 6.26674C32.4112 6.08664 32.4293 5.89944 32.5024 5.72928C32.5755 5.55912 32.7002 5.41379 32.8604 5.31205C33.0207 5.2103 33.2092 5.15679 33.4015 5.15842C33.6504 5.15604 33.8902 5.24772 34.0687 5.4135C34.2473 5.57929 34.3502 5.80578 34.3551 6.04374ZM32.6732 6.04374C32.6708 6.13667 32.6878 6.22915 32.7233 6.3157C32.7588 6.40225 32.812 6.48113 32.8799 6.54769C32.9478 6.61424 33.0289 6.66713 33.1185 6.70323C33.2081 6.73934 33.3043 6.75792 33.4015 6.75789C33.4975 6.75716 33.5924 6.73804 33.6806 6.70167C33.7688 6.66529 33.8484 6.6124 33.9148 6.54611C33.9813 6.47982 34.0332 6.40148 34.0674 6.3157C34.1017 6.22993 34.1177 6.13846 34.1144 6.04669C34.1208 5.95241 34.107 5.85786 34.0737 5.7689C34.0404 5.67994 33.9884 5.59846 33.9208 5.5295C33.8533 5.46054 33.7717 5.40557 33.681 5.36799C33.5904 5.33041 33.4926 5.31103 33.3938 5.31103C33.295 5.31103 33.1973 5.33041 33.1066 5.36799C33.016 5.40557 32.9343 5.46054 32.8668 5.5295C32.7992 5.59846 32.7472 5.67994 32.7139 5.7689C32.6806 5.85786 32.6668 5.95241 32.6732 6.04669V6.04374ZM33.2472 6.50705H33.0312V5.60698C33.1496 5.5885 33.2692 5.57863 33.3892 5.57747C33.4973 5.56925 33.6053 5.59405 33.6978 5.6483C33.7285 5.67073 33.7531 5.69982 33.7698 5.73318C33.7864 5.76653 33.7945 5.80318 33.7934 5.84012C33.7908 5.89131 33.7702 5.94016 33.7349 5.97873C33.6996 6.0173 33.6517 6.04333 33.599 6.05259C33.6916 6.07915 33.7379 6.14997 33.7657 6.27097C33.7779 6.34634 33.8008 6.4198 33.8335 6.48935H33.6052C33.5682 6.42091 33.5432 6.34714 33.5311 6.27097C33.5311 6.17653 33.4571 6.13522 33.3398 6.13522H33.2349L33.2472 6.50705ZM33.2472 6.00537H33.3491C33.4694 6.00537 33.5651 5.96701 33.5651 5.87258C33.5651 5.77814 33.5033 5.73683 33.3676 5.73683C33.3276 5.73189 33.2872 5.73189 33.2472 5.73683V6.00537Z" fill="#D82916"/>
<path d="M31.2383 24.6235C29.5411 24.957 28.8745 25.5265 27.4704 25.7833C24.4092 26.3469 20.6599 25.2373 17.4506 29.6197C16.0187 31.5703 15.7996 35.4185 15.4046 37.8236C15.4416 35.0112 15.4046 33.6921 16.0619 31.2014C16.9877 27.6602 20.9253 25.8718 16.1607 24.1189C14.0962 23.3605 12.9112 21.4039 11.0905 21.0203C9.79756 20.7488 9.41491 21.5308 10.2512 22.245C11.637 23.3084 12.9435 24.4631 14.161 25.7007C14.9263 26.4974 15.3954 27.1496 15.309 29.0383C15.1793 31.5408 14.414 35.2798 14.7936 38.7945C14.7936 38.8387 14.7936 38.88 14.7936 38.9213C13.5839 40.3969 10.927 40.9871 9.35628 41.2822C9.22667 41.3058 9.21741 41.3442 9.35628 41.3442H26.3287C25.335 41.3442 21.2616 41.2674 21.0827 36.8527C21.0178 35.2266 21.058 34.7132 21.0641 33.9016C21.0641 31.7828 21.6165 30.4459 23.7982 29.3275C30.7878 25.4911 31.1118 26.0459 32.2937 25.3672C32.7226 25.1193 32.6671 24.3048 31.2383 24.6235ZM17.2932 40.7599C19.6971 39.482 20.4531 33.1255 20.4531 33.1255C20.4531 33.1255 21.0333 40.7864 17.2932 40.7599Z" fill="#D82916"/>
<path d="M46.723 40.689C45.4451 41.1108 44.1035 41.3287 42.7519 41.3339C38.9286 41.3339 34.7586 39.199 34.7586 33.713C34.7586 28.5249 38.4902 25.8966 43.3228 25.8966C44.4784 25.8864 45.6277 26.0614 46.723 26.4145V30.4692H44.48C44.48 30.4692 44.48 28.5151 44.48 28.4858C44.1686 28.4518 43.8554 28.4355 43.542 28.4369C40.096 28.4369 38.0518 30.5669 38.0518 33.6446C38.0518 37.284 40.5548 38.7691 43.3228 38.7691C44.4286 38.7769 45.5223 38.5482 46.5242 38.0999L46.723 40.689Z" fill="#1F1F1F"/>
<path d="M53.3297 30.0979C56.4954 30.0979 58.8149 32.052 58.8149 35.7159C58.8149 39.3798 56.4954 41.3339 53.3297 41.3339C50.164 41.3339 47.8496 39.3798 47.8496 35.7159C47.8496 32.052 50.1946 30.0979 53.3297 30.0979ZM53.3297 39.2723C54.5634 39.2723 55.8786 38.2415 55.8786 35.7159C55.8786 33.1902 54.543 32.1595 53.3297 32.1595C52.1164 32.1595 50.7808 33.1902 50.7808 35.7159C50.7808 38.2415 52.1011 39.2723 53.3297 39.2723Z" fill="#1F1F1F"/>
<path d="M70.5346 30.2689V39.0622H71.8141V43.2H69.4844V41.1629H61.5065V43.2H59.5031V39.0622H60.8998C62.2406 37.5674 62.3731 35.9064 62.3731 33.8009V31.9054H60.9508V30.2689H70.5346ZM68.103 39.0622V32.3695H64.8098V33.9914C64.8098 35.6963 64.8098 37.4404 63.6017 39.0622H68.103Z" fill="#1F1F1F"/>
<path d="M76.5448 36.5757C76.6315 37.968 77.6408 39.2723 79.7819 39.2723C80.9633 39.2658 82.1283 39.0071 83.1923 38.5151V40.6451C81.9897 41.0873 80.7131 41.3157 79.4251 41.3192C76.1676 41.3192 73.5575 39.5508 73.5575 35.7012C73.5575 32.1888 76.0198 30.0833 78.9408 30.0833C83.8856 30.0833 83.9671 34.9685 83.9671 35.9113V36.561L76.5448 36.5757ZM81.0257 34.6216C81.0665 32.7897 79.8278 32.0764 78.7725 32.0764C77.5134 32.0764 76.5652 33.1902 76.5448 34.6216H81.0257Z" fill="#1F1F1F"/>
<path d="M152.578 36.5757C152.664 37.968 153.674 39.2723 155.815 39.2723C156.996 39.2658 158.161 39.0071 159.225 38.5151V40.6451C158.023 41.0873 156.746 41.3157 155.458 41.3192C152.2 41.3192 149.59 39.5508 149.59 35.7012C149.59 32.1888 152.053 30.0833 154.974 30.0833C159.918 30.0833 160 34.9685 160 35.9113V36.561L152.578 36.5757ZM157.059 34.6216C157.099 32.7897 155.861 32.0764 154.805 32.0764C153.546 32.0764 152.598 33.1902 152.578 34.6216H157.059Z" fill="#1F1F1F"/>
<path d="M146.282 39.326V30.2689H143.33L139.007 37.9435H138.967L139.043 35.9895V32.1057H139.053V30.2738H139.043V30.2689H136.408V30.2738H135.016V32.1057H136.408V41.1629H139.216L143.662 33.4833H143.718L143.641 35.5254V41.1629H147.725V39.326H146.282Z" fill="#1F1F1F"/>
<path d="M92.1898 29.4091C92.9358 29.4301 93.6726 29.2475 94.3143 28.8825C94.9561 28.5175 95.4763 27.9851 95.8143 27.3475L94.7183 26.3705C94.043 27.0028 93.1364 27.3568 92.1924 27.3568C91.2483 27.3568 90.3417 27.0028 89.6664 26.3705L88.5704 27.3475C88.9076 27.9847 89.4269 28.5169 90.0677 28.8819C90.7086 29.247 91.4446 29.4298 92.1898 29.4091Z" fill="#1F1F1F"/>
<path d="M96.6198 39.326V30.2689H93.6732L89.3453 37.9435H89.3045L89.386 35.9895V32.1057H89.3911V30.2738H89.386V30.2689H86.7454V30.2738H85.3588V32.1057H86.7454V41.1629H89.5594L94.0046 33.4833H94.0607L93.9842 35.5254V41.1629H98.0675V39.326H96.6198Z" fill="#1F1F1F"/>
<path d="M108.37 32.4526C107.782 32.2415 107.157 32.1419 106.53 32.1595C104.531 32.1595 102.992 33.5713 102.992 35.755C102.992 37.709 104.246 39.2723 106.331 39.2723C107.115 39.2699 107.892 39.1188 108.615 38.8277L108.722 40.9088C107.776 41.1916 106.791 41.3349 105.801 41.3339C101.723 41.3339 99.8772 38.4907 99.8772 35.6084C99.8772 32.7261 101.983 30.0979 106.025 30.0979C106.875 30.098 107.723 30.1964 108.548 30.391L108.37 32.4526Z" fill="#1F1F1F"/>
<path d="M110.669 30.2689V33.542H112.581V32.3695H114.222V39.3309H113.06V41.1629H118.428V39.3309H117.21V32.3695H118.851V33.542H120.768V30.2689H110.669Z" fill="#1F1F1F"/>
<path d="M131.024 35.4423V35.3788C131.602 35.2646 132.116 34.9547 132.474 34.5059C132.832 34.0572 133.008 33.4998 132.972 32.9362C132.972 31.7833 132.386 30.2689 129.357 30.2689H122.909V32.1008H124.204V39.326H122.909V41.1629H129.536C131.911 41.1629 133.456 40.0686 133.456 38.1145C133.441 36.3021 132.222 35.5254 131.024 35.4423ZM126.946 32.1595H128.654C129.164 32.1595 130.214 32.223 130.214 33.3368C130.214 34.4506 129.194 34.5141 128.654 34.5141H126.946V32.1595ZM126.946 39.2723V36.4096H128.7C129.347 36.4096 130.545 36.4926 130.545 37.8409C130.555 39.2918 129.235 39.2723 128.73 39.2723H126.946Z" fill="#1F1F1F"/>
<path d="M54.2929 17.4462V18.2652H50.5627V24.298H49.5934V17.4462H54.2929Z" fill="#93928D"/>
<path d="M54.4319 19.3042H55.2701V20.0133C55.4266 19.7451 55.658 19.5237 55.9386 19.3738C56.2192 19.2238 56.5379 19.1512 56.8592 19.1639C58.2416 19.1639 59.0242 20.2408 59.0242 21.6552C59.0242 22.8458 58.5316 24.4421 56.7479 24.4421C56.4601 24.4576 56.1733 24.3968 55.9195 24.2663C55.6657 24.1358 55.4547 23.9407 55.3099 23.7027V26.2622H54.4319V19.3042ZM55.3099 21.8068C55.3099 22.8913 55.7548 23.7331 56.7161 23.7331C57.2683 23.7331 58.0986 23.3539 58.0986 22.0419C58.0986 21.2229 58.0112 19.9375 56.744 19.9375C55.3814 19.9109 55.3099 21.1357 55.3099 21.8068Z" fill="#93928D"/>
<path d="M60.4662 19.3042L61.8606 23.3728L63.255 19.3042H64.2243C63.6085 20.9385 62.6352 23.6003 61.9202 25.2043C61.5229 26.065 61.3044 26.3418 60.2954 26.3418C60.1677 26.3341 60.0419 26.3085 59.922 26.266V25.5076C60.0932 25.5642 60.2732 25.5924 60.4543 25.591C60.8992 25.591 60.9588 25.4697 61.3839 24.4535L59.4651 19.3042H60.4662Z" fill="#93928D"/>
<path d="M69.1979 19.3042V24.298H68.32V20.0019H65.8768V24.298H64.9949V19.3042H69.1979Z" fill="#93928D"/>
<path d="M74.688 19.3042V24.298H73.81V20.0019H71.3669V24.298H70.485V19.3042H74.688Z" fill="#93928D"/>
<path d="M75.9274 20.8248C75.9274 19.6266 76.7894 19.164 78.0845 19.164C78.5016 19.164 80.0231 19.2777 80.0231 20.5593V23.4108C80.0231 23.6193 80.1343 23.7255 80.3131 23.7255C80.4094 23.7209 80.5051 23.7082 80.5991 23.6876V24.298C80.4462 24.3528 80.2855 24.3848 80.1224 24.3928C79.3279 24.3928 79.2325 24.0137 79.1928 23.6345C78.9624 23.8964 78.6731 24.1054 78.3464 24.2459C78.0197 24.3864 77.6641 24.4547 77.3059 24.4459C76.3445 24.4459 75.6731 23.8696 75.6731 23.0012C75.6731 22.4059 75.832 21.5262 77.6594 21.3935C79.0339 21.2912 79.1332 21.1888 79.1332 20.6693C79.1332 20.1498 78.736 19.8654 77.9176 19.8654C76.9165 19.8654 76.7775 20.4494 76.7259 20.8285L75.9274 20.8248ZM79.1452 21.75C79.0061 21.8523 78.7876 21.9282 77.6991 22.0609C77.2661 22.1178 76.5709 22.2315 76.5709 22.8647C76.5582 22.9866 76.5747 23.1096 76.6191 23.2245C76.6635 23.3394 76.7347 23.4431 76.8274 23.5279C76.92 23.6126 77.0316 23.6762 77.1537 23.7137C77.2758 23.7512 77.4053 23.7617 77.5323 23.7444C78.3546 23.7444 79.1452 23.2439 79.1452 22.5728V21.75Z" fill="#93928D"/>
<path d="M85.1755 21.4769L87.42 19.3042H88.5363L86.55 21.166L88.6674 24.298H87.6067L85.9144 21.7499L85.1755 22.4097V24.3056H84.2936V19.3042H85.1755V21.4769Z" fill="#93928D"/>
<path d="M91.2495 19.1526C92.922 19.1526 93.6728 20.5024 93.6728 21.8068C93.6728 23.1112 92.922 24.4611 91.2495 24.4611C89.5771 24.4611 88.8263 23.0998 88.8263 21.8068C88.8263 20.5138 89.5771 19.1526 91.2495 19.1526ZM91.2495 23.7027C92.5048 23.7027 92.771 22.4552 92.771 21.8068C92.771 21.1584 92.5048 19.9109 91.2495 19.9109C89.9942 19.9109 89.7241 21.147 89.7241 21.8068C89.7241 22.4666 89.9942 23.7027 91.2495 23.7027Z" fill="#93928D"/>
<path d="M95.9093 19.3042L97.5221 23.225L99.131 19.3042H100.351V24.298H99.4886V21.4011C99.4886 20.874 99.5402 20.3242 99.5402 20.3242H99.4687L97.828 24.298H97.1924L95.5518 20.3242H95.4803C95.4803 20.3242 95.5319 20.874 95.5319 21.4011V24.298H94.6699V19.3042H95.9093Z" fill="#93928D"/>
<path d="M105.841 19.3042V24.298H104.959V20.0019H102.516V24.298H101.634V19.3042H105.841Z" fill="#93928D"/>
<path d="M107.096 20.8248C107.096 19.6266 107.954 19.164 109.253 19.164C109.65 19.164 111.192 19.2777 111.192 20.5593V23.4108C111.192 23.6193 111.299 23.7255 111.478 23.7255C111.574 23.7209 111.67 23.7082 111.764 23.6876V24.298C111.612 24.3525 111.453 24.3844 111.291 24.3928C110.497 24.3928 110.401 24.0137 110.361 23.6345C110.129 23.8952 109.839 24.1034 109.512 24.2437C109.185 24.3841 108.829 24.4531 108.471 24.4459C107.509 24.4459 106.838 23.8696 106.838 23.0012C106.838 22.4059 106.997 21.5262 108.824 21.3935C110.199 21.2912 110.298 21.1888 110.298 20.6693C110.298 20.1498 109.901 19.8654 109.082 19.8654C108.081 19.8654 107.942 20.4494 107.891 20.8285L107.096 20.8248ZM110.31 21.75C110.171 21.8523 109.952 21.9282 108.868 22.0609C108.431 22.1178 107.74 22.2315 107.74 22.8647C107.726 22.9864 107.742 23.1094 107.786 23.2243C107.83 23.3392 107.901 23.443 107.993 23.5279C108.085 23.6127 108.197 23.6763 108.319 23.7139C108.441 23.7514 108.57 23.7618 108.697 23.7444C109.519 23.7444 110.31 23.2439 110.31 22.5728V21.75Z" fill="#93928D"/>
<path d="M113.555 21.3139H115.998V19.3042H116.88V24.298H115.998V22.023H113.555V24.298H112.673V19.3042H113.555V21.3139Z" fill="#93928D"/>
<path d="M119.045 23.043L121.612 19.3042H122.529V24.298H121.651V20.5593H121.632L119.069 24.298H118.148V19.3042H119.03L119.045 23.043Z" fill="#93928D"/>
<path d="M124.714 23.043H124.734L127.296 19.3042H128.214V24.298H127.336V20.5593H127.316L124.754 24.298H123.832V19.3042H124.714V23.043ZM126.109 18.2008C126.347 18.2191 126.584 18.1513 126.772 18.0108C126.96 17.8704 127.087 17.6675 127.126 17.4425H127.61C127.61 17.7799 127.443 18.7431 126.128 18.7431C124.814 18.7431 124.595 17.7989 124.595 17.4425H125.088C125.099 17.5575 125.135 17.6691 125.194 17.7705C125.252 17.8718 125.331 17.9606 125.427 18.0316C125.523 18.1026 125.632 18.1542 125.75 18.1833C125.867 18.2124 125.989 18.2184 126.109 18.2008Z" fill="#93928D"/>
</svg>
