<svg width="150" height="42" viewBox="0 0 150 42" fill="none" xmlns="http://www.w3.org/2000/svg">
<path d="M11.355 8.2485C11.355 8.93037 11.0657 9.48369 10.7069 9.48369C10.3482 9.48369 10.0589 8.92478 10.0589 8.2485C10.0589 7.57222 10.3482 7.01331 10.7069 7.01331C11.0657 7.01331 11.355 7.56663 11.355 8.2485Z" fill="white"/>
<path d="M12.8651 14.8576C12.8651 15.5423 12.5382 16.0956 12.1361 16.0956C11.734 16.0956 11.4042 15.5367 11.4042 14.8576C11.4042 14.1785 11.7311 13.614 12.1361 13.614C12.5411 13.614 12.8651 14.173 12.8651 14.8576Z" fill="white"/>
<path d="M21.767 6.21127C21.767 6.89314 21.4777 7.44646 21.116 7.44646C20.7544 7.44646 20.468 6.88755 20.468 6.21127C20.468 5.53499 20.7573 4.97328 21.116 4.97328C21.4748 4.97328 21.767 5.5294 21.767 6.21127Z" fill="white"/>
<path d="M22.4295 3.75487C22.4295 4.43953 22.1402 4.99286 21.7785 4.99286C21.4169 4.99286 21.1305 4.43953 21.1305 3.75487C21.1305 3.0702 21.4198 2.51968 21.7785 2.51968C22.1373 2.51968 22.4295 3.073 22.4295 3.75487Z" fill="white"/>
<path d="M10.5768 16.9424C10.5768 17.6242 10.2874 18.1775 9.92582 18.1775C9.56419 18.1775 9.26911 17.6242 9.26911 16.9424C9.26911 16.2605 9.55841 15.7072 9.91714 15.7072C10.2759 15.7072 10.5768 16.2605 10.5768 16.9424Z" fill="white"/>
<path d="M21.5789 9.9448C21.5789 10.6267 21.197 11.18 20.711 11.18C20.225 11.18 19.8431 10.6211 19.8431 9.9448C19.8431 9.26852 20.2279 8.70961 20.711 8.70961C21.1941 8.70961 21.5789 9.26293 21.5789 9.9448Z" fill="white"/>
<path d="M21.7583 13.7146C21.7583 14.7179 21.3909 15.5283 20.9424 15.5283C20.494 15.5283 20.1237 14.7179 20.1237 13.7146C20.1237 12.7114 20.4911 11.9038 20.9424 11.9038C21.3938 11.9038 21.7583 12.7142 21.7583 13.7146Z" fill="white"/>
<path d="M19.5683 11.3784C19.5683 11.9373 19.279 12.3677 18.9202 12.3677C18.5615 12.3677 18.2693 11.9373 18.2693 11.3784C18.2693 10.8195 18.5586 10.3863 18.9202 10.3863C19.2819 10.3863 19.5683 10.8418 19.5683 11.3784Z" fill="white"/>
<path d="M28.8404 4.73016C28.8404 5.28907 28.5511 5.72782 28.1924 5.72782C27.8336 5.72782 27.5443 5.28069 27.5443 4.73016C27.5443 4.17964 27.8336 3.73251 28.1924 3.73251C28.5511 3.73251 28.8404 4.17684 28.8404 4.73016Z" fill="white"/>
<path d="M26.2569 9.09804C26.2569 9.9923 25.7911 10.7189 25.2125 10.7189C24.6339 10.7189 24.1682 9.98112 24.1682 9.09804C24.1682 8.21497 24.6368 7.46603 25.2125 7.46603C25.7883 7.46603 26.2569 8.20379 26.2569 9.09804Z" fill="white"/>
<path d="M18.8161 4.08462C18.8161 4.7637 18.5268 5.31981 18.168 5.31981C17.8093 5.31981 17.5171 4.7609 17.5171 4.08462C17.5171 3.40834 17.8064 2.84664 18.168 2.84664C18.5297 2.84664 18.8161 3.39996 18.8161 4.08462Z" fill="white"/>
<path d="M5.47346 12.8819C5.47346 13.5637 5.09448 14.1171 4.6287 14.1171C4.16293 14.1171 3.77237 13.5637 3.77237 12.8819C3.77237 12.2 4.16293 11.6579 4.64027 11.6579C5.11762 11.6579 5.47346 12.2 5.47346 12.8819Z" fill="white"/>
<path d="M5.57472 20.198C5.57472 20.8799 5.28542 21.4388 4.92957 21.4388C4.57373 21.4388 4.28154 20.8799 4.28154 20.2036C4.28154 19.5273 4.57084 18.9684 4.92957 18.9684C5.28831 18.9684 5.57472 19.5161 5.57472 20.198Z" fill="white"/>
<path d="M7.71845 13.9745C7.71845 14.7402 7.26135 15.3718 6.70011 15.3718C6.13886 15.3718 5.68176 14.7542 5.68176 13.9745C5.68176 13.1949 6.13597 12.594 6.70011 12.594C7.26425 12.594 7.71845 13.2116 7.71845 13.9745Z" fill="white"/>
<path d="M7.70688 25.8849C7.70688 26.536 7.24978 27.0614 6.68854 27.0614C6.12729 27.0614 5.67019 26.536 5.67019 25.8849C5.67019 25.2338 6.1244 24.7084 6.68854 24.7084C7.25267 24.7084 7.70688 25.2366 7.70688 25.8849Z" fill="white"/>
<path d="M6.59306 7.98581C6.59306 8.66768 6.19093 9.221 5.69623 9.221C5.20152 9.221 4.79939 8.66209 4.79939 7.98581C4.79939 7.30953 5.20152 6.75062 5.69623 6.75062C6.19093 6.75062 6.59306 7.30394 6.59306 7.98581Z" fill="white"/>
<path d="M11.896 11.5377C11.896 12.2168 11.5228 12.7757 11.0657 12.7757C10.6086 12.7757 10.2354 12.2168 10.2354 11.5405C10.2354 10.8642 10.6057 10.3053 11.0657 10.3053C11.5257 10.3053 11.896 10.853 11.896 11.5377Z" fill="white"/>
<path d="M16.7215 4.5569C16.7215 5.23039 16.3483 5.7893 15.8912 5.7893C15.4341 5.7893 15.0551 5.23039 15.0551 4.5569C15.0551 3.88341 15.4283 3.32171 15.8854 3.32171C16.3425 3.32171 16.7215 3.87503 16.7215 4.5569Z" fill="white"/>
<path d="M13.7735 10.0734C13.7735 10.8279 13.4032 11.4371 12.9432 11.4371C12.4833 11.4371 12.1129 10.8195 12.1129 10.0734C12.1129 9.32721 12.4861 8.70961 12.9432 8.70961C13.4003 8.70961 13.7735 9.31882 13.7735 10.0734Z" fill="white"/>
<path d="M15.5701 13.8572C15.5701 14.7989 15.1043 15.5646 14.5344 15.5646C13.9645 15.5646 13.4958 14.7989 13.4958 13.8572C13.4958 12.9154 13.9616 12.1525 14.5344 12.1525C15.1072 12.1525 15.5701 12.9154 15.5701 13.8572Z" fill="white"/>
<path d="M17.7804 12.4459C17.7804 13.1977 17.4101 13.8097 16.9501 13.8097C16.4901 13.8097 16.1227 13.1977 16.1227 12.4459C16.1227 11.6942 16.493 11.0794 16.9501 11.0794C17.4072 11.0794 17.7804 11.6914 17.7804 12.4459Z" fill="white"/>
<path d="M19.0533 19.3121C19.0533 20.2595 18.5123 21.028 17.844 21.028C17.1757 21.028 16.6347 20.2595 16.6347 19.3121C16.6347 18.3648 17.1757 17.5991 17.844 17.5991C18.5123 17.5991 19.0533 18.3648 19.0533 19.3121Z" fill="white"/>
<path d="M36.2523 11.1604C36.2523 11.6495 35.963 12.0435 35.5956 12.0435C35.2282 12.0435 34.9389 11.6495 34.9389 11.1604C34.9389 10.6714 35.2282 10.2773 35.5956 10.2773C35.963 10.2773 36.2523 10.6742 36.2523 11.1604Z" fill="white"/>
<path d="M12.9403 17.9763C12.9403 18.7309 12.57 19.3429 12.1101 19.3429C11.6501 19.3429 11.2942 18.7309 11.2942 17.9763C11.2942 17.2218 11.6674 16.6126 12.1245 16.6126C12.5816 16.6126 12.9403 17.2246 12.9403 17.9763Z" fill="white"/>
<path d="M4.84279 23.476C4.84279 24.0601 4.46959 24.5323 4.01249 24.5323C3.5554 24.5323 3.19377 24.0601 3.19377 23.476C3.19377 22.8919 3.56697 22.4225 4.02407 22.4225C4.48116 22.4225 4.84279 22.8947 4.84279 23.476Z" fill="white"/>
<path d="M3.67112 20.0695C3.67112 20.7513 3.3037 21.3046 2.8495 21.3046C2.39529 21.3046 2.03656 20.7513 2.03656 20.0695C2.03656 19.3876 2.40397 18.8343 2.85818 18.8343C3.31238 18.8343 3.67112 19.3876 3.67112 20.0695Z" fill="white"/>
<path d="M3.97777 15.5954C3.97777 16.2661 3.50332 16.811 2.91893 16.811C2.33454 16.811 1.86008 16.2661 1.86008 15.5954C1.86008 14.9247 2.32586 14.377 2.91893 14.377C3.512 14.377 3.97777 14.9219 3.97777 15.5954Z" fill="white"/>
<path d="M1.67204 18.0183C1.67909 18.1304 1.6632 18.2427 1.62529 18.3489C1.58738 18.4551 1.52818 18.553 1.45107 18.6371C1.37397 18.7212 1.28047 18.7898 1.17592 18.839C1.07137 18.8881 0.957813 18.9169 0.84174 18.9237C0.611304 18.9021 0.397437 18.7985 0.241823 18.6329C0.0862086 18.4673 0 18.2517 0 18.028C0 17.8044 0.0862086 17.5888 0.241823 17.4232C0.397437 17.2576 0.611304 17.1539 0.84174 17.1324C1.07275 17.1454 1.28922 17.2455 1.44452 17.4112C1.59983 17.5769 1.68153 17.7949 1.67204 18.0183Z" fill="white"/>
<path d="M7.2845 10.7329C7.29232 10.8446 7.2769 10.9567 7.23915 11.0625C7.2014 11.1684 7.14207 11.2659 7.06468 11.3492C6.98729 11.4326 6.8934 11.5001 6.78855 11.5478C6.6837 11.5956 6.57001 11.6225 6.4542 11.6271C6.22376 11.6056 6.0099 11.5019 5.85428 11.3363C5.69867 11.1707 5.61246 10.9551 5.61246 10.7315C5.61246 10.5078 5.69867 10.2922 5.85428 10.1266C6.0099 9.96104 6.22376 9.85737 6.4542 9.8358C6.68731 9.84879 6.90558 9.95049 7.06121 10.1186C7.21684 10.2868 7.29713 10.5076 7.2845 10.7329Z" fill="white"/>
<path d="M34.4384 12.5493C34.4384 13.3011 34.0681 13.9131 33.611 13.9131C33.1539 13.9131 32.7807 13.3011 32.7807 12.5493C32.7807 11.7976 33.151 11.1828 33.611 11.1828C34.071 11.1828 34.4384 11.7948 34.4384 12.5493Z" fill="white"/>
<path d="M28.5742 13.0132C28.5742 13.765 28.201 14.377 27.7439 14.377C27.2868 14.377 26.9165 13.765 26.9165 13.0132C26.9165 12.2615 27.2868 11.6579 27.7439 11.6579C28.201 11.6579 28.5742 12.2587 28.5742 13.0132Z" fill="white"/>
<path d="M26.066 16.4086C26.066 17.1631 25.6928 17.7723 25.2357 17.7723C24.7786 17.7723 24.4083 17.1715 24.4083 16.4086C24.4083 15.6457 24.7786 15.0449 25.2357 15.0449C25.6928 15.0449 26.066 15.6625 26.066 16.4086Z" fill="white"/>
<path d="M33.7643 15.5032C33.7643 16.0621 33.394 16.4896 32.934 16.4896C32.474 16.4896 32.1037 16.0481 32.1037 15.5032C32.1037 14.9582 32.4769 14.5139 32.934 14.5139C33.3911 14.5139 33.7643 14.9554 33.7643 15.5032Z" fill="white"/>
<path d="M32.879 9.24336C32.879 9.9951 32.5087 10.6071 32.0516 10.6071C31.5945 10.6071 31.2213 9.9951 31.2213 9.24336C31.2213 8.49163 31.5917 7.87683 32.0516 7.87683C32.5116 7.87683 32.879 8.48884 32.879 9.24336Z" fill="white"/>
<path d="M24.2665 7.01052C24.2665 7.76225 23.8933 8.37426 23.4362 8.37426C22.9791 8.37426 22.6059 7.76225 22.6059 7.01052C22.6059 6.25879 22.9791 5.64398 23.4362 5.64398C23.8933 5.64398 24.2665 6.25599 24.2665 7.01052Z" fill="white"/>
<path d="M16.5856 8.98347C16.5856 9.82183 16.088 10.5177 15.4746 10.5177C14.8613 10.5177 14.3666 9.83022 14.3666 8.98347C14.3666 8.13672 14.8642 7.44647 15.4746 7.44647C16.0851 7.44647 16.5856 8.13393 16.5856 8.98347Z" fill="white"/>
<path d="M14.0715 5.76973C14.0715 6.7115 13.6086 7.46603 13.03 7.46603C12.4514 7.46603 11.9914 6.70311 11.9914 5.76135C11.9914 4.81959 12.4514 4.06506 13.03 4.06506C13.6086 4.06506 14.0715 4.82797 14.0715 5.76973Z" fill="white"/>
<path d="M15.7437 18.0127C15.7437 18.7672 15.3705 19.3764 14.9134 19.3764C14.4563 19.3764 14.0831 18.7672 14.0831 18.0127C14.0831 17.2581 14.4563 16.6489 14.9134 16.6489C15.3705 16.6489 15.7437 17.247 15.7437 18.0127Z" fill="white"/>
<path d="M28.4035 9.98114C28.4035 10.6295 28.0303 11.1548 27.5732 11.1548C27.1161 11.1548 26.743 10.6323 26.743 9.98114C26.743 9.33001 27.1161 8.81022 27.5732 8.81022C28.0303 8.81022 28.4035 9.33839 28.4035 9.98114Z" fill="white"/>
<path d="M23.9801 14.1729C23.9525 14.3257 23.8803 14.4677 23.772 14.5821C23.6636 14.6965 23.5237 14.7786 23.3686 14.8187C23.2136 14.8588 23.0499 14.8553 22.8968 14.8085C22.7438 14.7618 22.6078 14.6737 22.5048 14.5547C22.4019 14.4357 22.3363 14.2908 22.3158 14.137C22.2953 13.9832 22.3208 13.827 22.3892 13.6867C22.4576 13.5464 22.566 13.4279 22.7018 13.3453C22.8376 13.2626 22.9951 13.2191 23.1556 13.22C23.3952 13.242 23.6162 13.3544 23.7706 13.5328C23.9249 13.7112 24.0002 13.9412 23.9801 14.1729Z" fill="white"/>
<path d="M31.2995 11.3365C31.2995 12.0938 30.8366 12.7086 30.2638 12.7086C29.6909 12.7086 29.2309 12.0938 29.2309 11.3365C29.2309 10.5792 29.6967 9.96436 30.2695 9.96436C30.8424 9.96436 31.2995 10.5764 31.2995 11.3365Z" fill="white"/>
<path d="M30.339 8.23453C30.339 8.98626 29.9687 9.59827 29.5087 9.59827C29.0487 9.59827 28.6813 8.98626 28.6813 8.23453C28.6813 7.48279 29.0516 6.87079 29.5087 6.87079C29.9658 6.87079 30.339 7.48 30.339 8.23453Z" fill="white"/>
<path d="M23.7921 10.3556C23.7921 10.9983 23.4189 11.5181 22.9618 11.5181C22.5047 11.5181 22.1315 10.9983 22.1315 10.3556C22.1315 9.71285 22.5047 9.19306 22.9618 9.19306C23.4189 9.19306 23.7921 9.70167 23.7921 10.3556Z" fill="white"/>
<path d="M26.1181 12.9964C26.1181 13.751 25.7449 14.363 25.2878 14.363C24.8307 14.363 24.4575 13.751 24.4575 12.9964C24.4575 12.2419 24.8278 11.6327 25.2878 11.6327C25.7478 11.6327 26.1181 12.2447 26.1181 12.9964Z" fill="white"/>
<path d="M22.8287 17.8059C22.8287 18.5939 22.3861 19.2339 21.8422 19.2339C21.2983 19.2339 20.8585 18.5939 20.8585 17.8059C20.8585 17.0178 21.2983 16.3779 21.8422 16.3779C22.3861 16.3779 22.8287 17.0262 22.8287 17.8059Z" fill="white"/>
<path d="M17.5287 1.25374C17.5287 1.81265 17.1555 2.25698 16.6984 2.25698C16.2413 2.25698 15.8681 1.80706 15.8681 1.25374C15.8681 0.700415 16.2413 0.250492 16.6984 0.250492C17.1555 0.250492 17.5287 0.700415 17.5287 1.25374Z" fill="white"/>
<path d="M20.1787 1.56394C20.1787 2.31847 19.8084 2.93047 19.3484 2.93047C18.8884 2.93047 18.5268 2.31847 18.5268 1.56394C18.5268 0.809408 18.8913 0.200195 19.3484 0.200195C19.8055 0.200195 20.1787 0.812202 20.1787 1.56394Z" fill="white"/>
<path d="M9.03188 7.42691C9.03188 8.03333 8.68183 8.52517 8.24787 8.52517C7.81392 8.52517 7.46386 8.02495 7.46386 7.42691C7.46386 6.82888 7.81392 6.32586 8.24787 6.32586C8.68183 6.32586 9.03188 6.8205 9.03188 7.42691Z" fill="white"/>
<path d="M31.7768 18.4179C31.7768 19.1724 31.4036 19.7816 30.9465 19.7816C30.4894 19.7816 30.1162 19.1724 30.1162 18.4179C30.1162 17.6634 30.4894 17.0541 30.9465 17.0541C31.4036 17.0541 31.7768 17.6634 31.7768 18.4179Z" fill="white"/>
<path d="M31.3342 15.0113C31.3342 15.7658 30.9639 16.3779 30.5039 16.3779C30.0439 16.3779 29.6736 15.7658 29.6736 15.0113C29.6736 14.2568 30.0468 13.6476 30.5039 13.6476C30.961 13.6476 31.3342 14.2512 31.3342 15.0113Z" fill="white"/>
<path d="M27.9088 7.08038C27.9088 7.83491 27.5385 8.44412 27.0814 8.44412C26.6243 8.44412 26.2511 7.83491 26.2511 7.08038C26.2511 6.32585 26.6214 5.71663 27.0814 5.71663C27.5414 5.71663 27.9088 6.32864 27.9088 7.08038Z" fill="white"/>
<path d="M19.1054 7.62532C19.1054 8.37985 18.7322 8.98906 18.2751 8.98906C17.818 8.98906 17.4448 8.37985 17.4448 7.62532C17.4448 6.87079 17.818 6.26158 18.2751 6.26158C18.7322 6.26158 19.1054 6.87079 19.1054 7.62532Z" fill="white"/>
<path d="M25.9763 5.08787C25.9763 5.8424 25.606 6.45161 25.146 6.45161C24.686 6.45161 24.3128 5.8424 24.3128 5.08787C24.3128 4.33334 24.686 3.72413 25.1431 3.72413C25.6002 3.72413 25.9763 4.33613 25.9763 5.08787Z" fill="white"/>
<path d="M19.71 15.2209C19.71 15.8469 19.3397 16.3387 18.8797 16.3387C18.4197 16.3387 18.0523 15.8329 18.0523 15.2209C18.0523 14.6089 18.4226 14.0863 18.8797 14.0863C19.3368 14.0863 19.71 14.5949 19.71 15.2209Z" fill="white"/>
<path d="M36.3362 15.9698C36.3362 16.8334 35.9109 17.5348 35.3873 17.5348C34.8637 17.5348 34.4384 16.8334 34.4384 15.9698C34.4384 15.1063 34.8608 14.4077 35.3873 14.4077C35.9138 14.4077 36.3362 15.1091 36.3362 15.9698Z" fill="white"/>
<path d="M9.46583 10.4171C9.46583 11.1716 9.09552 11.7808 8.63554 11.7808C8.17554 11.7808 7.8226 11.1716 7.8226 10.4171C7.8226 9.66255 8.1929 9.05334 8.65 9.05334C9.1071 9.05334 9.46583 9.66534 9.46583 10.4171Z" fill="white"/>
<path d="M10.1717 13.614C10.1717 14.4524 9.70596 15.1566 9.13603 15.1566C8.56611 15.1566 8.1119 14.4524 8.1119 13.614C8.1119 12.7757 8.57479 12.0687 9.1505 12.0687C9.72621 12.0687 10.1717 12.7505 10.1717 13.614Z" fill="white"/>
<path d="M9.77828 23.8225C9.77828 24.5128 9.40798 25.0717 8.95088 25.0717C8.49378 25.0717 8.1119 24.5128 8.1119 23.8225C8.1119 23.1323 8.4851 22.5873 8.9422 22.5873C9.3993 22.5873 9.77828 23.1407 9.77828 23.8225Z" fill="white"/>
<path d="M11.2682 26.3851C11.2682 27.067 10.8979 27.6203 10.4379 27.6203C9.9779 27.6203 9.61049 27.0614 9.61049 26.3851C9.61049 25.7089 9.98079 25.15 10.4379 25.15C10.895 25.15 11.2682 25.7033 11.2682 26.3851Z" fill="white"/>
<path d="M7.97014 22.1486C7.97014 22.8361 7.59694 23.395 7.13984 23.395C6.68275 23.395 6.30955 22.8361 6.30955 22.1598C6.30955 21.4835 6.68275 20.9246 7.13984 20.9246C7.59694 20.9246 7.97014 21.4667 7.97014 22.1486Z" fill="white"/>
<path d="M34.0854 18.9544C34.0854 19.6391 33.7122 20.1924 33.2551 20.1924C32.798 20.1924 32.4248 19.6335 32.4248 18.9544C32.4248 18.2754 32.7951 17.7192 33.2551 17.7192C33.7151 17.7192 34.0854 18.2726 34.0854 18.9544Z" fill="white"/>
<path d="M28.985 16.4393C28.9632 16.6425 28.8809 16.8352 28.748 16.9941C28.6151 17.153 28.4374 17.2713 28.2363 17.3346C28.0353 17.398 27.8195 17.4036 27.6152 17.3509C27.4109 17.2982 27.2268 17.1894 27.0852 17.0377C26.9435 16.886 26.8505 16.6979 26.8173 16.4962C26.7841 16.2944 26.8122 16.0877 26.8981 15.9011C26.9841 15.7144 27.1242 15.5558 27.3015 15.4445C27.4789 15.3333 27.6858 15.274 27.8973 15.274C28.2007 15.2913 28.4849 15.4233 28.6884 15.6413C28.8919 15.8594 28.9985 16.146 28.985 16.4393Z" fill="white"/>
<path d="M8.67315 18.0853C8.67315 18.7672 8.21026 19.3205 7.64034 19.3205C7.07041 19.3205 6.60753 18.7616 6.60753 18.0853C6.60753 17.409 7.07041 16.8501 7.64034 16.8501C8.21026 16.8501 8.67315 17.409 8.67315 18.0853Z" fill="white"/>
<path d="M5.90453 16.906C5.90453 17.5879 5.53133 18.1412 5.07423 18.1412C4.61713 18.1412 4.24393 17.5823 4.24393 16.906C4.24393 16.2297 4.61713 15.6708 5.07423 15.6708C5.53133 15.6708 5.90453 16.2242 5.90453 16.906Z" fill="white"/>
<path d="M29.6302 19.6363C29.4624 18.5856 26.6677 19.9996 25.0737 20.5725C24.443 20.8016 23.361 21.4416 22.1807 21.735L22.4526 21.5757C25.3138 19.8683 26.1238 19.8599 26.0486 19.287C25.9734 18.7141 24.2116 19.0075 21.2289 20.8296C20.0311 21.559 18.9694 21.8244 17.277 22.6768C19.5649 22.2312 21.9254 22.2684 24.1971 22.7858C24.1971 22.7858 24.388 22.3247 26.2569 21.4248C29.3669 19.9186 29.7054 20.1058 29.6302 19.6363Z" fill="white"/>
<path d="M25.7188 24.1216C22.3456 25.2953 19.684 22.3498 16.2124 23.1602C19.3947 21.9027 22.846 23.9539 24.7439 22.9982C25.3398 22.7187 26.795 22.1989 27.3476 21.9614C28.1981 21.6009 30.4749 20.6228 30.3679 21.7462C30.3419 22.1207 28.1345 22.6237 25.7188 24.1216Z" fill="white"/>
<path d="M32.2079 5.92343C32.2148 6.09751 32.1676 6.26959 32.0723 6.41751C31.9771 6.56542 31.8381 6.68238 31.6734 6.7533C31.5087 6.82422 31.3257 6.84586 31.1482 6.81541C30.9706 6.78497 30.8066 6.70385 30.6772 6.5825C30.5478 6.46116 30.459 6.30515 30.4222 6.1346C30.3855 5.96406 30.4025 5.78679 30.471 5.62565C30.5395 5.46451 30.6564 5.32689 30.8067 5.23054C30.9569 5.13419 31.1336 5.08352 31.3139 5.08507C31.5472 5.08281 31.772 5.16962 31.9394 5.32662C32.1068 5.48361 32.2033 5.6981 32.2079 5.92343ZM30.6312 5.92343C30.6289 6.01144 30.6448 6.09901 30.6781 6.18097C30.7113 6.26293 30.7613 6.33763 30.8249 6.40066C30.8885 6.46369 30.9646 6.51377 31.0486 6.54796C31.1326 6.58214 31.2228 6.59974 31.3139 6.59971C31.4039 6.59902 31.4929 6.58092 31.5756 6.54647C31.6582 6.51203 31.7329 6.46194 31.7952 6.39917C31.8575 6.33639 31.9061 6.2622 31.9382 6.18098C31.9703 6.09975 31.9853 6.01313 31.9822 5.92623C31.9883 5.83694 31.9753 5.74741 31.9441 5.66317C31.9129 5.57893 31.8641 5.50177 31.8008 5.43647C31.7374 5.37117 31.6609 5.31911 31.5759 5.28352C31.491 5.24794 31.3993 5.22958 31.3067 5.22958C31.2141 5.22958 31.1224 5.24794 31.0374 5.28352C30.9525 5.31911 30.8759 5.37117 30.8126 5.43647C30.7493 5.50177 30.7005 5.57893 30.6693 5.66317C30.6381 5.74741 30.6251 5.83694 30.6312 5.92623V5.92343ZM31.1693 6.36218H30.9668V5.50984C31.0777 5.49233 31.1899 5.48299 31.3024 5.48189C31.4037 5.4741 31.505 5.49759 31.5917 5.54896C31.6204 5.57021 31.6436 5.59776 31.6592 5.62934C31.6748 5.66092 31.6824 5.69563 31.6813 5.73061C31.6789 5.77909 31.6596 5.82535 31.6265 5.86187C31.5934 5.8984 31.5485 5.92305 31.4991 5.93182C31.5859 5.95697 31.6293 6.02404 31.6553 6.13861C31.6668 6.20999 31.6882 6.27955 31.7189 6.34541H31.5049C31.4702 6.2806 31.4467 6.21075 31.4354 6.13861C31.4354 6.04919 31.366 6.01006 31.2561 6.01006H31.1577L31.1693 6.36218ZM31.1693 5.8871H31.2647C31.3776 5.8871 31.4673 5.85077 31.4673 5.76135C31.4673 5.67192 31.4094 5.6328 31.2821 5.6328C31.2446 5.62812 31.2067 5.62812 31.1693 5.6328V5.8871Z" fill="white"/>
<path d="M29.2859 23.5179C27.6948 23.8337 27.0699 24.3731 25.7535 24.6162C22.8837 25.15 19.3686 24.0992 16.3599 28.2491C15.0175 30.0963 14.8121 33.7404 14.4418 36.018C14.4765 33.3548 14.4418 32.1056 15.058 29.747C15.9259 26.3935 19.6174 24.7 15.1506 23.0401C13.2152 22.3219 12.1043 20.4691 10.3974 20.1058C9.18521 19.8487 8.82648 20.5892 9.61048 21.2655C10.9097 22.2725 12.1345 23.366 13.2759 24.5379C13.9934 25.2925 14.4331 25.9101 14.3521 27.6986C14.2306 30.0684 13.5132 33.6091 13.869 36.9374C13.869 36.9793 13.869 37.0184 13.869 37.0575C12.7349 38.4548 10.2441 39.0137 8.77151 39.2932C8.65 39.3155 8.64132 39.3519 8.77151 39.3519H24.6831C23.7516 39.3519 19.9328 39.2792 19.765 35.0986C19.7042 33.5588 19.7418 33.0725 19.7476 32.304C19.7476 30.2975 20.2655 29.0316 22.3108 27.9725C28.8635 24.3395 29.1673 24.8649 30.2753 24.2222C30.6775 23.9874 30.6254 23.2161 29.2859 23.5179ZM16.2124 38.7985C18.466 37.5885 19.1748 31.569 19.1748 31.569C19.1748 31.569 19.7187 38.8237 16.2124 38.7985Z" fill="white"/>
<path d="M43.8028 38.7315C42.6048 39.1309 41.347 39.3372 40.0799 39.3421C36.4955 39.3421 32.5862 37.3205 32.5862 32.1253C32.5862 27.2124 36.0845 24.7235 40.6152 24.7235C41.6985 24.7138 42.776 24.8796 43.8028 25.2139V29.0536H41.7C41.7 29.0536 41.7 27.2031 41.7 27.1754C41.4081 27.1432 41.1145 27.1278 40.8207 27.1291C37.59 27.1291 35.6735 29.1461 35.6735 32.0606C35.6735 35.507 38.0201 36.9134 40.6152 36.9134C41.6518 36.9207 42.6771 36.7042 43.6165 36.2796L43.8028 38.7315Z" fill="white"/>
<path d="M49.9966 28.702C52.9644 28.702 55.1389 30.5525 55.1389 34.0221C55.1389 37.4917 52.9644 39.3421 49.9966 39.3421C47.0288 39.3421 44.859 37.4917 44.859 34.0221C44.859 30.5525 47.0574 28.702 49.9966 28.702ZM49.9966 37.3899C51.1531 37.3899 52.3862 36.4138 52.3862 34.0221C52.3862 31.6304 51.134 30.6542 49.9966 30.6542C48.8592 30.6542 47.607 31.6304 47.607 34.0221C47.607 36.4138 48.8448 37.3899 49.9966 37.3899Z" fill="white"/>
<path d="M66.1262 28.8639V37.191H67.3257V41.1093H65.1417V39.1802H57.6623V41.1093H55.7841V37.191H57.0936C58.3505 35.7754 58.4748 34.2025 58.4748 32.2086V30.4137H57.1414V28.8639H66.1262ZM63.8465 37.191V30.8532H60.7592V32.389C60.7592 34.0036 60.7592 35.6551 59.6265 37.191H63.8465Z" fill="white"/>
<path d="M71.7608 34.8363C71.842 36.1547 72.7883 37.3899 74.7955 37.3899C75.9031 37.3837 76.9953 37.1388 77.9928 36.6728V38.6898C76.8654 39.1086 75.6685 39.325 74.461 39.3282C71.4071 39.3282 68.9602 37.6536 68.9602 34.0082C68.9602 30.682 71.2685 28.6881 74.007 28.6881C78.6427 28.6881 78.7192 33.3143 78.7192 34.2071V34.8224L71.7608 34.8363ZM75.9616 32.9858C75.9999 31.251 74.8385 30.5756 73.8493 30.5756C72.6688 30.5756 71.7799 31.6304 71.7608 32.9858H75.9616Z" fill="white"/>
<path d="M143.042 34.8363C143.123 36.1547 144.069 37.3899 146.076 37.3899C147.184 37.3837 148.276 37.1388 149.274 36.6728V38.6898C148.146 39.1086 146.949 39.325 145.742 39.3282C142.688 39.3282 140.241 37.6536 140.241 34.0082C140.241 30.682 142.549 28.6881 145.288 28.6881C149.924 28.6881 150 33.3143 150 34.2071V34.8224L143.042 34.8363ZM147.242 32.9858C147.281 31.251 146.119 30.5756 145.13 30.5756C143.95 30.5756 143.061 31.6304 143.042 32.9858H147.242Z" fill="white"/>
<path d="M137.139 37.4408V28.8639H134.372L130.32 36.1316H130.281L130.353 34.2811V30.6033H130.363V28.8685H130.353V28.8639H127.882V28.8685H126.577V30.6033H127.882V39.1802H130.515L134.683 31.9079H134.735L134.664 33.8416V39.1802H138.492V37.4408H137.139Z" fill="white"/>
<path d="M86.4279 28.0497C87.1273 28.0697 87.818 27.8967 88.4197 27.5511C89.0213 27.2054 89.509 26.7013 89.8259 26.0975L88.7984 25.1723C88.1654 25.771 87.3154 26.1062 86.4303 26.1062C85.5453 26.1062 84.6953 25.771 84.0623 25.1723L83.0348 26.0975C83.3508 26.7009 83.8377 27.2049 84.4385 27.5505C85.0393 27.8962 85.7293 28.0693 86.4279 28.0497Z" fill="white"/>
<path d="M90.581 37.4408V28.8639H87.8187L83.7612 36.1316H83.7229L83.7994 34.2811V30.6033H83.8042V28.8685H83.7994V28.8639H81.3238V28.8685H80.0239V30.6033H81.3238V39.1802H83.9619L88.1293 31.9079H88.1819L88.1102 33.8416V39.1802H91.9383V37.4408H90.581Z" fill="white"/>
<path d="M101.597 30.9318C101.046 30.7319 100.46 30.6377 99.8716 30.6542C97.9982 30.6542 96.5549 31.9912 96.5549 34.0591C96.5549 35.9095 97.7306 37.3899 99.6853 37.3899C100.421 37.3876 101.148 37.2445 101.826 36.9689L101.927 38.9396C101.04 39.2074 100.117 39.3431 99.1882 39.3421C95.3649 39.3421 93.6349 36.6497 93.6349 33.9203C93.6349 31.1909 95.6087 28.702 99.3985 28.702C100.196 28.7021 100.99 28.7953 101.764 28.9796L101.597 30.9318Z" fill="white"/>
<path d="M103.752 28.8639V31.9634H105.544V30.8532H107.083V37.4454H105.994V39.1802H111.026V37.4454H109.884V30.8532H111.423V31.9634H113.22V28.8639H103.752Z" fill="white"/>
<path d="M122.835 33.763V33.7029C123.376 33.5947 123.859 33.3012 124.194 32.8763C124.53 32.4513 124.695 31.9235 124.661 31.3898C124.661 30.298 124.111 28.8639 121.273 28.8639H115.227V30.5987H116.441V37.4408H115.227V39.1802H121.44C123.667 39.1802 125.115 38.1439 125.115 36.2935C125.101 34.5772 123.958 33.8416 122.835 33.763ZM119.012 30.6542H120.613C121.091 30.6542 122.076 30.7144 122.076 31.7691C122.076 32.8239 121.12 32.884 120.613 32.884H119.012V30.6542ZM119.012 37.3899V34.679H120.656C121.263 34.679 122.386 34.7576 122.386 36.0344C122.396 37.4084 121.158 37.3899 120.685 37.3899H119.012Z" fill="white"/>
<path d="M50.8996 16.7212V17.4968H47.4025V23.2097H46.4938V16.7212H50.8996Z" fill="white"/>
<path d="M51.0299 18.4807H51.8158V19.1522C51.9624 18.8983 52.1794 18.6886 52.4424 18.5466C52.7055 18.4046 53.0042 18.3358 53.3055 18.3479C54.6015 18.3479 55.3352 19.3676 55.3352 20.707C55.3352 21.8345 54.8734 23.3462 53.2012 23.3462C52.9313 23.3608 52.6625 23.3032 52.4245 23.1796C52.1866 23.056 51.9887 22.8713 51.853 22.646V25.0697H51.0299V18.4807ZM51.853 20.8506C51.853 21.8776 52.2701 22.6747 53.1714 22.6747C53.6891 22.6747 54.4674 22.3156 54.4674 21.0732C54.4674 20.2976 54.3855 19.0804 53.1975 19.0804C51.92 19.0552 51.853 20.215 51.853 20.8506Z" fill="white"/>
<path d="M56.6871 18.4807L57.9943 22.3336L59.3015 18.4807H60.2102C59.633 20.0283 58.7205 22.549 58.0502 24.0679C57.6777 24.883 57.4729 25.1451 56.5269 25.1451C56.4072 25.1378 56.2893 25.1136 56.1769 25.0733V24.3551C56.3373 24.4087 56.5061 24.4354 56.6759 24.4341C57.093 24.4341 57.1489 24.3192 57.5474 23.3569L55.7486 18.4807H56.6871Z" fill="white"/>
<path d="M64.873 18.4807V23.2097H64.05V19.1414H61.7595V23.2097H60.9328V18.4807H64.873Z" fill="white"/>
<path d="M70.02 18.4807V23.2097H69.1969V19.1414H66.9065V23.2097H66.0797V18.4807H70.02Z" fill="white"/>
<path d="M71.1819 19.9206C71.1819 18.7859 71.9901 18.3479 73.2042 18.3479C73.5952 18.3479 75.0216 18.4556 75.0216 19.6693V22.3695C75.0216 22.567 75.1259 22.6675 75.2935 22.6675C75.3838 22.6632 75.4735 22.6512 75.5617 22.6316V23.2097C75.4184 23.2616 75.2676 23.2919 75.1147 23.2995C74.3699 23.2995 74.2805 22.9404 74.2433 22.5813C74.0273 22.8294 73.756 23.0273 73.4498 23.1603C73.1435 23.2934 72.8101 23.3581 72.4742 23.3497C71.573 23.3497 70.9436 22.804 70.9436 21.9817C70.9436 21.4179 71.0925 20.5849 72.8057 20.4592C74.0943 20.3623 74.1874 20.2653 74.1874 19.7734C74.1874 19.2815 73.815 19.0122 73.0478 19.0122C72.1093 19.0122 71.9789 19.5651 71.9305 19.9242L71.1819 19.9206ZM74.1986 20.7967C74.0682 20.8937 73.8634 20.9655 72.8429 21.0912C72.437 21.145 71.7853 21.2528 71.7853 21.8524C71.7733 21.9678 71.7888 22.0843 71.8304 22.1931C71.8721 22.3019 71.9388 22.4001 72.0256 22.4804C72.1125 22.5606 72.2171 22.6208 72.3316 22.6563C72.4461 22.6919 72.5674 22.7018 72.6865 22.6855C73.4574 22.6855 74.1986 22.2115 74.1986 21.5759V20.7967Z" fill="white"/>
<path d="M79.852 20.5382L81.9562 18.4807H83.0027L81.1406 20.2438L83.1256 23.2097H82.1313L80.5447 20.7967L79.852 21.4215V23.2169H79.0252V18.4807H79.852V20.5382Z" fill="white"/>
<path d="M85.5464 18.3371C87.1143 18.3371 87.8182 19.6154 87.8182 20.8506C87.8182 22.0858 87.1143 23.3641 85.5464 23.3641C83.9785 23.3641 83.2746 22.075 83.2746 20.8506C83.2746 19.6262 83.9785 18.3371 85.5464 18.3371ZM85.5464 22.646C86.7233 22.646 86.9728 21.4646 86.9728 20.8506C86.9728 20.2366 86.7233 19.0552 85.5464 19.0552C84.3696 19.0552 84.1163 20.2258 84.1163 20.8506C84.1163 21.4754 84.3696 22.646 85.5464 22.646Z" fill="white"/>
<path d="M89.915 18.4807L91.427 22.1935L92.9353 18.4807H94.0787V23.2097H93.2705V20.4664C93.2705 19.9673 93.3189 19.4466 93.3189 19.4466H93.2519L91.7138 23.2097H91.1179L89.5798 19.4466H89.5127C89.5127 19.4466 89.5612 19.9673 89.5612 20.4664V23.2097H88.753V18.4807H89.915Z" fill="white"/>
<path d="M99.2256 18.4807V23.2097H98.3988V19.1414H96.1084V23.2097H95.2816V18.4807H99.2256Z" fill="white"/>
<path d="M100.403 19.9206C100.403 18.7859 101.207 18.3479 102.425 18.3479C102.797 18.3479 104.242 18.4556 104.242 19.6693V22.3695C104.242 22.567 104.343 22.6675 104.51 22.6675C104.601 22.6632 104.69 22.6512 104.779 22.6316V23.2097C104.636 23.2612 104.487 23.2915 104.335 23.2995C103.59 23.2995 103.501 22.9404 103.464 22.5813C103.246 22.8283 102.974 23.0253 102.667 23.1583C102.361 23.2912 102.027 23.3566 101.691 23.3497C100.79 23.3497 100.16 22.804 100.16 21.9817C100.16 21.4179 100.309 20.5849 102.023 20.4592C103.311 20.3623 103.404 20.2653 103.404 19.7734C103.404 19.2815 103.032 19.0122 102.265 19.0122C101.326 19.0122 101.196 19.5651 101.147 19.9242L100.403 19.9206ZM103.415 20.7967C103.285 20.8937 103.08 20.9655 102.064 21.0912C101.654 21.145 101.006 21.2528 101.006 21.8524C100.993 21.9676 101.008 22.0841 101.049 22.1929C101.091 22.3017 101.157 22.4001 101.243 22.4804C101.33 22.5607 101.434 22.621 101.549 22.6565C101.663 22.692 101.784 22.7019 101.903 22.6855C102.674 22.6855 103.415 22.2115 103.415 21.5759V20.7967Z" fill="white"/>
<path d="M106.458 20.3838H108.749V18.4807H109.575V23.2097H108.749V21.0553H106.458V23.2097H105.631V18.4807H106.458V20.3838Z" fill="white"/>
<path d="M111.605 22.0212L114.011 18.4807H114.871V23.2097H114.048V19.6693H114.03L111.627 23.2097H110.763V18.4807H111.59L111.605 22.0212Z" fill="white"/>
<path d="M116.92 22.0212H116.938L119.34 18.4807H120.201V23.2097H119.378V19.6693H119.359L116.957 23.2097H116.093V18.4807H116.92V22.0212ZM118.227 17.4358C118.45 17.4531 118.672 17.3889 118.849 17.2559C119.025 17.1229 119.144 16.9308 119.18 16.7177H119.635C119.635 17.0373 119.478 17.9493 118.245 17.9493C117.013 17.9493 116.808 17.0552 116.808 16.7177H117.27C117.281 16.8267 117.314 16.9323 117.369 17.0283C117.424 17.1242 117.498 17.2084 117.588 17.2756C117.677 17.3428 117.78 17.3917 117.89 17.4193C118 17.4468 118.115 17.4525 118.227 17.4358Z" fill="white"/>
</svg>
