<svg width="44" height="45" viewBox="0 0 44 45" fill="none" xmlns="http://www.w3.org/2000/svg">
<path d="M21.9451 41.9082C11.0918 41.9082 2.23682 33.0716 2.23682 22.1999C2.23682 11.3282 11.0918 2.49158 21.9451 2.49158C32.7985 2.49158 41.6535 11.3282 41.6535 22.1999C41.6535 33.0716 32.8168 41.9082 21.9451 41.9082ZM21.9451 5.24158C12.5951 5.24158 4.98682 12.8499 4.98682 22.1999C4.98682 31.5499 12.5951 39.1582 21.9451 39.1582C31.2951 39.1582 38.9035 31.5499 38.9035 22.1999C38.9035 12.8499 31.2951 5.24158 21.9451 5.24158Z" fill="#1F1F1F"/>
<path d="M19.3601 31.3483C18.5534 31.3483 17.7834 31.1466 17.1051 30.7616C15.5284 29.8449 14.6484 28.0483 14.6484 25.7016V19.5599C14.6484 17.2133 15.5101 15.4166 17.0868 14.4999C18.6634 13.5833 20.6618 13.7299 22.6968 14.9033L28.0134 17.9649C30.0484 19.1383 31.1668 20.7883 31.1668 22.6216C31.1668 24.4366 30.0484 26.1049 28.0134 27.2783L22.6968 30.3399C21.5601 31.0183 20.4051 31.3483 19.3601 31.3483ZM19.3601 16.6449C19.0301 16.6449 18.7184 16.7183 18.4801 16.8649C17.7834 17.2683 17.3984 18.2399 17.3984 19.5599V25.7016C17.3984 27.0033 17.7834 27.9933 18.4801 28.3783C19.1584 28.7816 20.2034 28.6166 21.3401 27.9749L26.6568 24.9133C27.7934 24.2533 28.4351 23.4283 28.4351 22.6399C28.4351 21.8516 27.7751 21.0266 26.6568 20.3666L21.3401 17.3049C20.6068 16.8649 19.9284 16.6449 19.3601 16.6449Z" fill="#1F1F1F"/>
</svg>
