<svg width="20" height="21" viewBox="0 0 20 21" fill="none" xmlns="http://www.w3.org/2000/svg">
<path d="M9.40842 12.9416C9.37258 12.9812 9.33919 13.023 9.30842 13.0666C9.27688 13.1131 9.25166 13.1635 9.23342 13.2166C9.20939 13.2639 9.19254 13.3144 9.18342 13.3666C9.17933 13.4221 9.17933 13.4778 9.18342 13.5333C9.1806 13.6426 9.20343 13.7511 9.25009 13.85C9.28751 13.9534 9.34722 14.0473 9.42499 14.1251C9.50276 14.2028 9.59667 14.2625 9.70009 14.3C9.79984 14.3441 9.90769 14.3668 10.0168 14.3668C10.1258 14.3668 10.2337 14.3441 10.3334 14.3C10.4368 14.2625 10.5307 14.2028 10.6085 14.1251C10.6863 14.0473 10.746 13.9534 10.7834 13.85C10.8204 13.7486 10.8374 13.6411 10.8334 13.5333C10.8341 13.4236 10.813 13.3149 10.7716 13.2134C10.7301 13.1119 10.669 13.0195 10.5918 12.9416C10.5143 12.8635 10.4221 12.8015 10.3206 12.7592C10.219 12.7169 10.1101 12.6951 10.0001 12.6951C9.89008 12.6951 9.78115 12.7169 9.6796 12.7592C9.57805 12.8015 9.48589 12.8635 9.40842 12.9416ZM10.0001 1.86664C8.35191 1.86664 6.74074 2.35538 5.37033 3.27106C3.99992 4.18674 2.93182 5.48823 2.30109 7.01094C1.67036 8.53366 1.50533 10.2092 1.82687 11.8257C2.14842 13.4422 2.94209 14.9271 4.10753 16.0925C5.27297 17.258 6.75782 18.0516 8.37433 18.3732C9.99084 18.6947 11.6664 18.5297 13.1891 17.899C14.7118 17.2682 16.0133 16.2001 16.929 14.8297C17.8447 13.4593 18.3334 11.8481 18.3334 10.2C18.3334 9.10562 18.1179 8.02199 17.6991 7.01094C17.2803 5.9999 16.6665 5.08124 15.8926 4.30742C15.1188 3.53359 14.2002 2.91976 13.1891 2.50098C12.1781 2.08219 11.0944 1.86664 10.0001 1.86664ZM10.0001 16.8666C8.68154 16.8666 7.39261 16.4756 6.29628 15.7431C5.19996 15.0106 4.34547 13.9694 3.84089 12.7512C3.3363 11.533 3.20428 10.1926 3.46152 8.89937C3.71875 7.60616 4.35369 6.41828 5.28604 5.48593C6.21839 4.55358 7.40628 3.91864 8.69948 3.6614C9.99269 3.40417 11.3331 3.53619 12.5513 4.04077C13.7695 4.54536 14.8107 5.39984 15.5432 6.49617C16.2758 7.5925 16.6668 8.88143 16.6668 10.2C16.6668 11.9681 15.9644 13.6638 14.7141 14.914C13.4639 16.1643 11.7682 16.8666 10.0001 16.8666ZM10.0001 6.03331C9.56097 6.03302 9.12953 6.14841 8.74918 6.36784C8.36882 6.58728 8.05297 6.90302 7.83342 7.28331C7.77312 7.37815 7.73264 7.48422 7.7144 7.59512C7.69616 7.70602 7.70054 7.81946 7.72728 7.92863C7.75401 8.03779 7.80256 8.14042 7.86999 8.23033C7.93742 8.32025 8.02234 8.3956 8.11964 8.45184C8.21695 8.50809 8.32463 8.54407 8.4362 8.55762C8.54777 8.57117 8.66093 8.56202 8.76887 8.5307C8.87681 8.49939 8.9773 8.44656 9.06429 8.3754C9.15129 8.30425 9.22299 8.21623 9.27509 8.11664C9.34851 7.98947 9.45423 7.88396 9.58154 7.81079C9.70886 7.73762 9.85324 7.69939 10.0001 7.69997C10.2211 7.69997 10.4331 7.78777 10.5893 7.94405C10.7456 8.10033 10.8334 8.31229 10.8334 8.53331C10.8334 8.75432 10.7456 8.96628 10.5893 9.12256C10.4331 9.27884 10.2211 9.36664 10.0001 9.36664C9.77907 9.36664 9.56711 9.45444 9.41083 9.61072C9.25455 9.767 9.16675 9.97896 9.16675 10.2V11.0333C9.16675 11.2543 9.25455 11.4663 9.41083 11.6226C9.56711 11.7788 9.77907 11.8666 10.0001 11.8666C10.2211 11.8666 10.4331 11.7788 10.5893 11.6226C10.7456 11.4663 10.8334 11.2543 10.8334 11.0333V10.8833C11.3846 10.6833 11.8479 10.296 12.1424 9.78903C12.4369 9.28206 12.5439 8.68772 12.4446 8.10988C12.3453 7.53205 12.0461 7.00749 11.5992 6.6279C11.1524 6.24832 10.5864 6.03785 10.0001 6.03331Z" fill="#BABABA"/>
</svg>
