<svg width="27" height="22" viewBox="0 0 27 22" fill="none" xmlns="http://www.w3.org/2000/svg">
<path d="M6.175 21.78C4.39833 21.78 2.925 21.2166 1.755 20.09C0.585 18.9633 0 17.5333 0 15.8C0 14.76 0.173333 13.6983 0.52 12.615C0.866667 11.4883 1.47333 10.0583 2.34 8.32495L6.305 0.199951H12.415L9.685 10.665C11.5483 11.965 12.48 13.6983 12.48 15.865C12.48 17.555 11.8733 18.9633 10.66 20.09C9.44667 21.2166 7.95167 21.78 6.175 21.78ZM20.605 21.78C18.8283 21.78 17.355 21.2166 16.185 20.09C15.015 18.9633 14.43 17.5333 14.43 15.8C14.43 14.76 14.6033 13.6983 14.95 12.615C15.2967 11.4883 15.9033 10.0583 16.77 8.32495L20.735 0.199951H26.845L24.115 10.665C25.9783 11.965 26.91 13.6983 26.91 15.865C26.91 17.555 26.3033 18.9633 25.09 20.09C23.8767 21.2166 22.3817 21.78 20.605 21.78Z" fill="#93928D"/>
</svg>
