<svg width="20" height="21" viewBox="0 0 20 21" fill="none" xmlns="http://www.w3.org/2000/svg">
<path d="M11.9668 12.0583C11.4097 12.5074 10.7157 12.7524 10.0001 12.7524C9.28451 12.7524 8.59049 12.5074 8.03342 12.0583C7.86324 11.9169 7.64384 11.8488 7.42348 11.8691C7.20313 11.8894 6.99987 11.9965 6.85842 12.1666C6.71697 12.3368 6.64892 12.5562 6.66923 12.7766C6.68955 12.9969 6.79657 13.2002 6.96675 13.3416C7.81787 14.0521 8.89139 14.4413 10.0001 14.4413C11.1088 14.4413 12.1823 14.0521 13.0334 13.3416C13.2036 13.2002 13.3106 12.9969 13.3309 12.7766C13.3513 12.5562 13.2832 12.3368 13.1418 12.1666C13.0717 12.0824 12.9858 12.0127 12.8888 11.9617C12.7919 11.9106 12.6858 11.8792 12.5767 11.8691C12.3563 11.8488 12.1369 11.9169 11.9668 12.0583ZM7.50008 9.36664C7.6649 9.36664 7.82602 9.31776 7.96306 9.2262C8.1001 9.13463 8.20691 9.00448 8.26998 8.85221C8.33306 8.69994 8.34956 8.53238 8.31741 8.37073C8.28525 8.20908 8.20588 8.06059 8.08934 7.94405C7.9728 7.82751 7.82431 7.74814 7.66266 7.71598C7.50101 7.68383 7.33345 7.70033 7.18118 7.76341C7.02891 7.82648 6.89876 7.93329 6.80719 8.07033C6.71563 8.20737 6.66675 8.36849 6.66675 8.53331C6.66675 8.75432 6.75455 8.96628 6.91083 9.12256C7.06711 9.27884 7.27907 9.36664 7.50008 9.36664ZM12.5001 7.69997C12.3353 7.69997 12.1742 7.74885 12.0371 7.84041C11.9001 7.93198 11.7933 8.06213 11.7302 8.2144C11.6671 8.36667 11.6506 8.53423 11.6828 8.69588C11.7149 8.85753 11.7943 9.00602 11.9108 9.12256C12.0274 9.2391 12.1759 9.31847 12.3375 9.35063C12.4992 9.38278 12.6667 9.36628 12.819 9.30321C12.9713 9.24013 13.1014 9.13332 13.193 8.99628C13.2845 8.85924 13.3334 8.69812 13.3334 8.53331C13.3334 8.31229 13.2456 8.10033 13.0893 7.94405C12.9331 7.78777 12.7211 7.69997 12.5001 7.69997ZM10.0001 1.86664C8.35191 1.86664 6.74074 2.35538 5.37033 3.27106C3.99992 4.18674 2.93182 5.48823 2.30109 7.01094C1.67036 8.53366 1.50533 10.2092 1.82687 11.8257C2.14842 13.4422 2.94209 14.9271 4.10753 16.0925C5.27297 17.258 6.75782 18.0516 8.37433 18.3732C9.99084 18.6947 11.6664 18.5297 13.1891 17.899C14.7118 17.2682 16.0133 16.2001 16.929 14.8297C17.8447 13.4593 18.3334 11.8481 18.3334 10.2C18.3334 9.10562 18.1179 8.02199 17.6991 7.01094C17.2803 5.9999 16.6665 5.08124 15.8926 4.30742C15.1188 3.53359 14.2002 2.91976 13.1891 2.50098C12.1781 2.08219 11.0944 1.86664 10.0001 1.86664ZM10.0001 16.8666C8.68154 16.8666 7.39261 16.4756 6.29628 15.7431C5.19996 15.0106 4.34547 13.9694 3.84089 12.7512C3.3363 11.533 3.20428 10.1926 3.46152 8.89937C3.71875 7.60616 4.35369 6.41828 5.28604 5.48593C6.21839 4.55358 7.40628 3.91864 8.69948 3.6614C9.99269 3.40417 11.3331 3.53619 12.5513 4.04077C13.7695 4.54536 14.8107 5.39984 15.5432 6.49617C16.2758 7.5925 16.6668 8.88143 16.6668 10.2C16.6668 11.9681 15.9644 13.6638 14.7141 14.914C13.4639 16.1643 11.7682 16.8666 10.0001 16.8666Z" fill="#4BC875"/>
</svg>
