<svg width="60" height="61" viewBox="0 0 60 61" fill="none" xmlns="http://www.w3.org/2000/svg">
<g clip-path="url(#clip0_332_5150)">
<path d="M23.3958 57.6129C22.2618 57.8431 21.0883 57.9642 19.8864 57.9642C10.1956 57.9642 2.3396 50.1082 2.3396 40.4173C2.3396 30.7264 10.1956 22.8704 19.8864 22.8704C21.0883 22.8704 22.2618 22.9916 23.3958 23.2217C15.3866 24.8475 9.35833 31.9282 9.35833 40.4173C9.35833 48.9063 15.3866 55.987 23.3958 57.6129ZM47.6104 14.9158C38.178 14.9158 30.5315 12.402 30.5315 9.30083C30.5315 6.19972 38.178 3.68583 47.6104 3.68583C48.2608 3.68583 48.9025 3.69823 49.534 3.72151C46.9308 3.10562 43.8647 2.75 40.5815 2.75C31.149 2.75 23.5026 5.6829 23.5026 9.30083C23.5026 12.9188 31.149 15.8517 40.5815 15.8517C43.8647 15.8517 46.9308 15.496 49.534 14.8802C48.9025 14.9034 48.2608 14.9158 47.6104 14.9158Z" fill="#CFCFCF"/>
<path d="M40.5815 18.1912C35.7401 18.1912 31.1537 17.4547 27.667 16.1173C22.0079 13.9466 21.163 10.9148 21.163 9.30082C21.163 7.68685 22.0079 4.65487 27.667 2.48432C31.1537 1.1469 35.7401 0.4104 40.5815 0.4104C45.4229 0.4104 50.0093 1.1469 53.496 2.48432C59.1551 4.65499 60 7.68685 60 9.30082C60 10.9148 59.1551 13.9468 53.496 16.1173C50.0093 17.4547 45.4229 18.1912 40.5815 18.1912ZM40.5815 5.08957C36.361 5.08957 32.2647 5.73237 29.3428 6.85303C26.6979 7.86759 25.8422 8.94029 25.8422 9.30082C25.8422 9.66135 26.6977 10.734 29.3428 11.7486C32.2648 12.8693 36.3611 13.5121 40.5815 13.5121C44.8019 13.5121 48.8983 12.8693 51.8202 11.7486C54.4651 10.734 55.3208 9.66135 55.3208 9.30082C55.3208 8.94029 54.4653 7.86759 51.8202 6.85303C48.8983 5.73237 44.802 5.08957 40.5815 5.08957ZM58.5075 56.9421C59.6873 56.4153 60.2168 55.0318 59.69 53.852C59.1632 52.672 57.7796 52.1423 56.5998 52.6694C52.2176 54.6261 46.0965 55.7008 39.803 55.6203C38.5142 55.604 37.4501 56.6374 37.4334 57.9295C37.4166 59.2214 38.4505 60.2823 39.7425 60.299C39.9933 60.3023 40.2435 60.304 40.4933 60.304C47.263 60.3038 53.6348 59.1174 58.5075 56.9421ZM45.7118 49.6482C50.5342 49.1932 54.9588 48.1153 58.5075 46.531C59.6873 46.0042 60.2168 44.6207 59.69 43.4408C59.1632 42.2607 57.7796 41.7313 56.5998 42.2583C53.5106 43.6376 49.5936 44.5821 45.2722 44.99C43.9858 45.1113 43.0415 46.2525 43.1628 47.539C43.2772 48.7506 44.2962 49.6589 45.4892 49.6589C45.5628 49.6587 45.6371 49.6553 45.7118 49.6482ZM46.4592 39.0443C50.9856 38.5527 55.1518 37.5011 58.5075 36.0028C59.6873 35.476 60.2168 34.0926 59.6899 32.9127C59.1631 31.7327 57.7795 31.2032 56.5998 31.7302C53.6834 33.0323 50.0022 33.9529 45.9541 34.3926C44.6696 34.5321 43.7412 35.6866 43.8808 36.9711C44.011 38.1699 45.0249 39.0583 46.2039 39.0583C46.2881 39.0582 46.3735 39.0536 46.4592 39.0443ZM42.67 28.6769C48.6049 28.4464 54.2293 27.2678 58.5075 25.3577C59.6873 24.831 60.2168 23.4475 59.69 22.2676C59.1632 21.0878 57.7796 20.5581 56.5999 21.0851C52.8533 22.7579 47.8417 23.7935 42.4885 24.0012C41.1974 24.0514 40.1913 25.1387 40.2414 26.4298C40.2903 27.6901 41.3274 28.6788 42.5776 28.6788C42.6083 28.6785 42.639 28.6781 42.67 28.6769ZM19.8864 60.3037C8.92105 60.3037 0 51.3827 0 40.4173C0 29.4519 8.92105 20.5308 19.8864 20.5308C30.8518 20.5308 39.7728 29.4519 39.7728 40.4173C39.7728 51.3827 30.8518 60.3037 19.8864 60.3037ZM19.8864 25.21C11.5011 25.21 4.67916 32.0319 4.67916 40.4173C4.67916 48.8027 11.5011 55.6246 19.8864 55.6246C28.2717 55.6246 35.0937 48.8027 35.0937 40.4173C35.0937 32.0319 28.2717 25.21 19.8864 25.21Z" fill="#1F1F1F"/>
<path d="M26.4373 43.9266C26.4373 42.3313 25.7291 40.7888 24.4944 39.6943C23.3181 38.6518 21.7649 38.0777 20.1204 38.0777C18.9868 38.0777 18.1318 37.5748 18.1318 36.9079C18.1318 36.2629 18.6565 35.7381 19.3015 35.7381C20.1326 35.7381 21.1434 35.8323 22.8988 36.5149C24.1031 36.9832 25.459 36.3865 25.9272 35.1823C26.3955 33.978 25.7989 32.6221 24.5947 32.1539C23.845 31.8622 23.1781 31.6479 22.577 31.4894V31.0589C22.577 29.7668 21.5295 28.7194 20.2374 28.7194C18.9452 28.7194 17.8978 29.7668 17.8978 31.0589V31.2304C15.3486 31.861 13.4526 34.1666 13.4526 36.9079C13.4526 40.2424 16.3192 42.7569 20.1204 42.7569C21.0082 42.7569 21.7581 43.2925 21.7581 43.9266C21.7581 44.5608 21.1956 45.0964 20.5298 45.0964C20.0409 45.0964 18.3709 44.937 16.5393 44.209C15.3385 43.732 13.9783 44.3184 13.501 45.5191C13.0238 46.7199 13.6103 48.0801 14.8111 48.5574C15.8818 48.983 16.9443 49.2772 17.8978 49.4706V49.7756C17.8978 51.0678 18.9452 52.1152 20.2374 52.1152C21.5295 52.1152 22.577 51.0678 22.577 49.7756V49.4131C24.8283 48.5869 26.4373 46.4396 26.4373 43.9266Z" fill="#6EB36E"/>
</g>
<defs>
<clipPath id="clip0_332_5150">
<rect width="60" height="60" fill="white" transform="translate(0 0.5)"/>
</clipPath>
</defs>
</svg>
