<svg width="60" height="61" viewBox="0 0 60 61" fill="none" xmlns="http://www.w3.org/2000/svg">
<g clip-path="url(#clip0_332_5139)">
<path d="M33.2812 56.9472C32.2757 57.6205 31.301 58.0135 30 58.0135C26.505 58.0135 23.6719 55.1803 23.6719 51.6854V42.076C23.6719 38.5811 26.505 35.7478 30 35.7478C31.301 35.7478 32.2757 36.1409 33.2812 36.8141C31.5855 37.9493 30.4688 39.882 30.4688 42.076V51.6854C30.4688 53.8792 31.5855 55.812 33.2812 56.9472ZM51.7969 51.6854V31.1775C51.7969 28.9836 52.9137 27.051 54.6094 25.9157C53.6038 25.2424 52.6291 24.8494 51.3281 24.8494C47.8331 24.8494 45 27.6825 45 31.1775V51.6854C45 55.1803 47.8331 58.0135 51.3281 58.0135C52.6291 58.0135 53.6038 57.6205 54.6094 56.9472C52.9137 55.812 51.7969 53.8792 51.7969 51.6854ZM9.14062 51.6854V29.4197C9.14062 27.2258 10.2574 25.2932 11.9531 24.1578C10.9475 23.4847 9.97289 23.0916 8.67188 23.0916C5.17699 23.0916 2.34375 25.9247 2.34375 29.4197V51.6854C2.34375 55.1803 5.17699 58.0135 8.67188 58.0135C9.97289 58.0135 10.9475 57.6205 11.9531 56.9472C10.2574 55.812 9.14062 53.8792 9.14062 51.6854Z" fill="#CFCFCF"/>
<path d="M8.67188 60.3573C3.89016 60.3573 0 56.4671 0 51.6854V29.4197C0 24.638 3.89016 20.7478 8.67188 20.7478C13.4536 20.7478 17.3438 24.638 17.3438 29.4197V51.6854C17.3438 56.4671 13.4536 60.3573 8.67188 60.3573ZM8.67188 25.4353C6.47484 25.4353 4.6875 27.2227 4.6875 29.4197V51.6854C4.6875 53.8824 6.47484 55.6698 8.67188 55.6698C10.8689 55.6698 12.6562 53.8824 12.6562 51.6854V29.4197C12.6562 27.2228 10.8689 25.4353 8.67188 25.4353ZM30 60.3573C25.2183 60.3573 21.3281 56.4671 21.3281 51.6854V42.076C21.3281 37.2942 25.2183 33.4041 30 33.4041C34.7817 33.4041 38.6719 37.2942 38.6719 42.076V51.6854C38.6719 56.4671 34.7817 60.3573 30 60.3573ZM30 38.0916C27.803 38.0916 26.0156 39.8789 26.0156 42.076V51.6854C26.0156 53.8824 27.803 55.6698 30 55.6698C32.197 55.6698 33.9844 53.8824 33.9844 51.6854V42.076C33.9844 39.8791 32.197 38.0916 30 38.0916ZM51.3281 60.3573C46.5464 60.3573 42.6562 56.4671 42.6562 51.6854V31.1775C42.6562 26.3958 46.5464 22.5056 51.3281 22.5056C56.1098 22.5056 60 26.3958 60 31.1775V51.6854C60 56.4671 56.1098 60.3573 51.3281 60.3573ZM51.3281 27.1931C49.1311 27.1931 47.3438 28.9805 47.3438 31.1775V51.6854C47.3438 53.8824 49.1311 55.6698 51.3281 55.6698C53.5252 55.6698 55.3125 53.8824 55.3125 51.6854V31.1775C55.3125 28.9806 53.5252 27.1931 51.3281 27.1931Z" fill="#1F1F1F"/>
<path d="M32.2163 28.9449C30.4286 28.9449 28.6325 28.3659 27.1352 27.1817C27.0933 27.1485 12.1325 13.5604 12.1325 13.5604C10.801 12.5489 8.95249 12.6118 7.69249 13.7145L3.99194 17.3748C3.07155 18.2851 1.58749 18.2769 0.677526 17.3568C-0.232904 16.4364 -0.224701 14.9524 0.695572 14.0422C0.695572 14.0422 4.49397 10.2864 4.52151 10.2615C7.50311 7.57992 11.9501 7.43918 15.0955 9.9266C15.1373 9.95977 30.098 23.5479 30.098 23.5479C31.5467 24.6478 33.6151 24.4571 34.8367 23.0994C34.8514 23.0832 34.8663 23.0671 34.8814 23.0513L47.8728 9.405C48.7653 8.4675 50.2488 8.43094 51.1863 9.32356C52.1238 10.2161 52.1603 11.6995 51.2677 12.6372L38.2974 26.2613C36.6889 28.0331 34.4593 28.9448 32.2163 28.9449ZM59.9999 13.7163V7.3882C59.9999 3.51116 56.8457 0.356934 52.9687 0.356934H46.6406C45.3461 0.356934 44.2968 1.40623 44.2968 2.70069C44.2968 3.99515 45.3461 5.04444 46.6406 5.04444H52.9687C54.261 5.04444 55.3124 6.09585 55.3124 7.3882V13.7163C55.3124 15.0108 56.3617 16.0601 57.6562 16.0601C58.9506 16.0601 59.9999 15.0108 59.9999 13.7163Z" fill="#BD5454"/>
</g>
<defs>
<clipPath id="clip0_332_5139">
<rect width="60" height="60" fill="white" transform="translate(0 0.5)"/>
</clipPath>
</defs>
</svg>
