<svg width="60" height="60" viewBox="0 0 60 60" fill="none" xmlns="http://www.w3.org/2000/svg">
<g clip-path="url(#clip0_332_5036)">
<path d="M12.2271 47.2559L9.42331 24.1927C9.15943 21.8774 9.94355 19.7074 11.3777 18.1247L10.0764 16.5212C5.45868 16.5212 1.87005 20.542 2.39299 25.1301L4.91465 47.2582C5.58921 53.1779 10.5987 57.6487 16.5565 57.6487H23.8693L23.8688 57.6463C17.911 57.6465 12.9017 53.1754 12.2271 47.2559Z" fill="#CFCFCF"/>
<path d="M19.1161 35.6203C20.4104 35.6203 21.4596 34.5712 21.4596 33.2769V13.2405C21.4596 8.52404 25.2967 4.68689 30.0131 4.68689C34.7295 4.68689 38.5667 8.52404 38.5667 13.2405V14.1778H28.4899C27.1956 14.1778 26.1465 15.227 26.1465 16.5213C26.1465 17.8156 27.1956 18.8647 28.4899 18.8647H40.9101C42.2044 18.8647 43.2536 17.8156 43.2536 16.5213V13.2405C43.2536 5.93958 37.314 0 30.0131 0C22.7123 0 16.7727 5.93958 16.7727 13.2405V33.2769C16.7727 34.5712 17.822 35.6203 19.1161 35.6203Z" fill="#010101"/>
<path d="M54.8979 49.3704C53.7554 48.7621 52.3364 49.1944 51.7277 50.3367C50.0949 53.4015 46.9236 55.3053 43.4513 55.3053H16.5566C11.7871 55.3053 7.78314 51.7317 7.24309 46.9929L4.72132 24.8648C4.54509 23.3182 5.01882 21.8269 6.05544 20.6656C7.09194 19.5043 8.51991 18.8647 10.0765 18.8647C11.3708 18.8647 12.42 17.8156 12.42 16.5213C12.42 15.227 11.3708 14.1779 10.0765 14.1779C7.20853 14.1779 4.46834 15.4051 2.55867 17.5447C0.648888 19.6844 -0.260132 22.5458 0.0646689 25.3956L2.58633 47.5237C3.39645 54.6319 9.40233 59.9923 16.5566 59.9923H43.4514C48.659 59.9923 53.4154 57.1371 55.8643 52.5406C56.4728 51.3982 56.0401 49.979 54.8979 49.3704Z" fill="#010101"/>
<path d="M57.7729 25.8921C57.7017 25.8973 57.8428 25.8921 57.7729 25.8921V25.8921Z" fill="#010101"/>
<path d="M59.969 23.3424C59.7467 20.8621 58.612 18.5588 56.7739 16.8568C54.9085 15.1293 52.4784 14.1779 49.9316 14.1779C48.6373 14.1779 47.5881 15.227 47.5881 16.5213C47.5881 17.8156 48.6373 18.8647 49.9316 18.8647C52.6962 18.8647 55.0548 21.0153 55.3009 23.7609C55.4101 24.9789 56.3617 25.892 57.7731 25.892C59.297 25.7779 60.0845 24.6315 59.969 23.3424Z" fill="#010101"/>
<path d="M21.2154 50.8665C20.6461 50.8665 20.0753 50.6603 19.6245 50.2431C18.6745 49.3642 18.6169 47.8815 19.4959 46.9315C19.4959 46.9315 23.5305 42.576 23.5838 42.5281C26.5648 39.8468 31.0112 39.7059 34.1562 42.1931C34.1663 42.201 34.1763 42.2091 34.1862 42.2172L37.7494 45.1314C39.195 46.2636 41.2828 46.0868 42.5174 44.7283L47.8034 38.652C48.6528 37.6755 50.1329 37.5724 51.1096 38.422C52.086 39.2715 52.189 40.7517 51.3396 41.7282C51.3396 41.7282 46.0218 47.841 46.013 47.8507C43.126 51.0584 38.2133 51.4739 34.8287 48.7972C34.8186 48.7893 34.8087 48.7812 34.7987 48.7731L31.2357 45.859C29.9136 44.8232 28.0608 44.8655 26.7887 45.9509L22.936 50.1147C22.4743 50.6138 21.8457 50.8665 21.2154 50.8665ZM59.9999 42.885V36.6956C59.9999 32.743 56.7844 29.5273 52.8317 29.5273H46.6423C45.348 29.5273 44.2989 30.5765 44.2989 31.8708C44.2989 33.1651 45.348 34.2142 46.6423 34.2142H52.8317C54.1999 34.2142 55.313 35.3274 55.313 36.6956V42.885C55.313 44.1793 56.3622 45.2284 57.6565 45.2284C58.9508 45.2284 59.9999 44.1793 59.9999 42.885Z" fill="#857ED6"/>
</g>
<defs>
<clipPath id="clip0_332_5036">
<rect width="60" height="60" fill="white"/>
</clipPath>
</defs>
</svg>
