<svg width="60" height="60" viewBox="0 0 60 60" fill="none" xmlns="http://www.w3.org/2000/svg">
<g clip-path="url(#clip0_332_5128)">
<path d="M9.3749 46.0269V26.4566C9.3749 19.9844 14.6954 14.7378 21.1675 14.7378H14.3706C7.89846 14.7378 2.65186 19.9844 2.65186 26.4566V46.0269C2.65186 52.4991 7.89846 57.7457 14.3706 57.7457H21.1675C14.6954 57.7457 9.3749 52.4991 9.3749 46.0269Z" fill="#CFCFCF"/>
<path d="M39.0234 60.1429H14.0625C6.30844 60.1429 0 53.8345 0 46.0804V26.8616C0 19.1075 6.30844 12.7991 14.0625 12.7991H45.9375C53.6916 12.7991 60 19.1075 60 26.8616C60 28.1561 58.9507 29.2054 57.6562 29.2054C56.3618 29.2054 55.3125 28.1561 55.3125 26.8616C55.3125 21.6922 51.1069 17.4866 45.9375 17.4866H14.0625C8.89313 17.4866 4.6875 21.6922 4.6875 26.8616V46.0804C4.6875 51.2498 8.89313 55.4554 14.0625 55.4554H39.0234C40.3179 55.4554 41.3672 56.5047 41.3672 57.7992C41.3672 59.0936 40.3179 60.1429 39.0234 60.1429ZM15.3516 23.8147C13.7336 23.8147 12.4219 25.1264 12.4219 26.7444C12.4219 28.3624 13.7336 29.6741 15.3516 29.6741C16.9696 29.6741 18.2812 28.3624 18.2812 26.7444C18.2812 25.1264 16.9696 23.8147 15.3516 23.8147ZM25.4297 23.8147C23.8117 23.8147 22.5 25.1264 22.5 26.7444C22.5 28.3624 23.8117 29.6741 25.4297 29.6741C27.0477 29.6741 28.3594 28.3624 28.3594 26.7444C28.3594 25.1264 27.0477 23.8147 25.4297 23.8147ZM35.5078 23.8147C33.8898 23.8147 32.5781 25.1264 32.5781 26.7444C32.5781 28.3624 33.8898 29.6741 35.5078 29.6741C37.1258 29.6741 38.4375 28.3624 38.4375 26.7444C38.4375 25.1264 37.1258 23.8147 35.5078 23.8147ZM45.3516 23.8147C43.7336 23.8147 42.4219 25.1264 42.4219 26.7444C42.4219 28.3624 43.7336 29.6741 45.3516 29.6741C46.9696 29.6741 48.2812 28.3624 48.2812 26.7444C48.2812 25.1264 46.9696 23.8147 45.3516 23.8147ZM15.3516 33.8929C13.7336 33.8929 12.4219 35.2045 12.4219 36.8226C12.4219 38.4406 13.7336 39.7523 15.3516 39.7523C16.9696 39.7523 18.2812 38.4406 18.2812 36.8226C18.2812 35.2045 16.9696 33.8929 15.3516 33.8929ZM15.3516 43.971C13.7336 43.971 12.4219 45.2827 12.4219 46.9007C12.4219 48.5187 13.7336 49.8304 15.3516 49.8304C16.9696 49.8304 18.2812 48.5187 18.2812 46.9007C18.2812 45.2827 16.9696 43.971 15.3516 43.971ZM25.4297 33.8929C23.8117 33.8929 22.5 35.2045 22.5 36.8226C22.5 38.4406 23.8117 39.7523 25.4297 39.7523C27.0477 39.7523 28.3594 38.4406 28.3594 36.8226C28.3594 35.2045 27.0477 33.8929 25.4297 33.8929ZM25.4297 43.971C23.8117 43.971 22.5 45.2827 22.5 46.9007C22.5 48.5187 23.8117 49.8304 25.4297 49.8304C27.0477 49.8304 28.3594 48.5187 28.3594 46.9007C28.3594 45.2827 27.0477 43.971 25.4297 43.971ZM35.5078 33.8929C33.8898 33.8929 32.5781 35.2045 32.5781 36.8226C32.5781 38.4406 33.8898 39.7523 35.5078 39.7523C37.1258 39.7523 38.4375 38.4406 38.4375 36.8226C38.4375 35.2045 37.1258 33.8929 35.5078 33.8929ZM35.5078 43.971C33.8898 43.971 32.5781 45.2827 32.5781 46.9007C32.5781 48.5187 33.8898 49.8304 35.5078 49.8304C37.1258 49.8304 38.4375 48.5187 38.4375 46.9007C38.4375 45.2827 37.1258 43.971 35.5078 43.971Z" fill="#1F1F1F"/>
<path d="M23.6719 7.17409C23.6719 8.46854 22.6226 9.51784 21.3281 9.51784C20.0337 9.51784 18.9844 8.46854 18.9844 7.17409C18.9844 5.88174 17.933 4.83033 16.6406 4.83033C15.3483 4.83033 14.2969 5.88174 14.2969 7.17409C14.2969 8.46854 13.2476 9.51784 11.9531 9.51784C10.6587 9.51784 9.60938 8.46854 9.60938 7.17409C9.60938 3.29705 12.7636 0.142822 16.6406 0.142822C20.5177 0.142822 23.6719 3.29705 23.6719 7.17409ZM45.9375 7.17409C45.9375 8.46854 46.9868 9.51784 48.2812 9.51784C49.5757 9.51784 50.625 8.46854 50.625 7.17409C50.625 3.29705 47.4708 0.142822 43.5938 0.142822C39.7167 0.142822 36.5625 3.29705 36.5625 7.17409C36.5625 8.46854 37.6118 9.51784 38.9062 9.51784C40.2007 9.51784 41.25 8.46854 41.25 7.17409C41.25 5.88174 42.3014 4.83033 43.5938 4.83033C44.8861 4.83033 45.9375 5.88174 45.9375 7.17409ZM60 50.1038C60 46.4422 56.7436 43.4632 52.7409 43.4632C51.0395 43.4633 49.8047 42.6418 49.8047 41.5101C49.8047 40.4331 50.6721 39.5569 51.7383 39.5569C52.8132 39.5569 54.2134 39.6741 56.4486 40.5434C57.6548 41.0124 59.0133 40.415 59.4825 39.2085C59.9517 38.0022 59.3541 36.6438 58.1476 36.1747C56.9841 35.7222 55.9696 35.4255 55.0781 35.2301V33.4241C55.0781 32.1297 54.0288 31.0804 52.7344 31.0804C51.4399 31.0804 50.3906 32.1297 50.3906 33.4241V35.0081C47.3838 35.6342 45.1172 38.3115 45.1172 41.5101C45.1172 45.2958 48.3947 48.1508 52.7409 48.1508C54.135 48.1508 55.3125 49.0452 55.3125 50.1039C55.3125 51.1443 54.345 52.0571 53.2421 52.0571C52.3816 52.0571 50.2226 51.7415 48.0923 50.8947C46.8899 50.4168 45.5268 51.0041 45.0486 52.2069C44.5704 53.4098 45.158 54.7726 46.3608 55.2507C47.718 55.7902 49.134 56.1752 50.3906 56.4191V57.7992C50.3906 59.0937 51.4399 60.143 52.7344 60.143C54.0288 60.143 55.0781 59.0937 55.0781 57.7992V56.4903C56.1498 56.1888 57.1402 55.6252 57.9655 54.8298C59.2774 53.5656 60 51.8871 60 50.1038Z" fill="#71AECC"/>
</g>
<defs>
<clipPath id="clip0_332_5128">
<rect width="60" height="60" fill="white"/>
</clipPath>
</defs>
</svg>
