<svg width="60" height="60" fill="none" xmlns="http://www.w3.org/2000/svg"><g clip-path="url(#a)"><path d="M9.375 46.027v-19.57c0-6.473 5.32-11.72 11.793-11.72H14.37c-6.473 0-11.72 5.247-11.72 11.72v19.57c0 6.472 5.247 11.719 11.72 11.719h6.796c-6.472 0-11.792-5.247-11.792-11.72Z" fill="#CFCFCF"/><path d="M39.023 60.143h-24.96C6.308 60.143 0 53.834 0 46.08V26.862c0-7.754 6.308-14.063 14.063-14.063h31.874C53.693 12.8 60 19.108 60 26.862a2.344 2.344 0 1 1-4.688 0c0-5.17-4.205-9.375-9.374-9.375H14.061c-5.169 0-9.374 4.205-9.374 9.375V46.08c0 5.17 4.205 9.375 9.375 9.375h24.96a2.344 2.344 0 1 1 0 4.688ZM15.352 23.815a2.93 2.93 0 1 0 0 5.86 2.93 2.93 0 0 0 0-5.86Zm10.078 0a2.93 2.93 0 1 0 0 5.86 2.93 2.93 0 0 0 0-5.86Zm10.078 0a2.93 2.93 0 1 0 0 5.86 2.93 2.93 0 0 0 0-5.86Zm9.844 0a2.93 2.93 0 1 0 0 5.86 2.93 2.93 0 0 0 0-5.86Zm-30 10.078a2.93 2.93 0 1 0 0 5.86 2.93 2.93 0 0 0 0-5.86Zm0 10.078a2.93 2.93 0 1 0 0 5.86 2.93 2.93 0 0 0 0-5.86ZM25.43 33.893a2.93 2.93 0 1 0 0 5.86 2.93 2.93 0 0 0 0-5.86Zm0 10.078a2.93 2.93 0 1 0 0 5.86 2.93 2.93 0 0 0 0-5.86Zm10.078-10.078a2.93 2.93 0 1 0 0 5.86 2.93 2.93 0 0 0 0-5.86Zm0 10.078a2.93 2.93 0 1 0 0 5.86 2.93 2.93 0 0 0 0-5.86Z" fill="#1F1F1F"/><path d="M23.672 7.174a2.344 2.344 0 1 1-4.688 0 2.346 2.346 0 0 0-2.343-2.344 2.346 2.346 0 0 0-2.344 2.344 2.344 2.344 0 1 1-4.688 0A7.04 7.04 0 0 1 16.641.143a7.04 7.04 0 0 1 7.03 7.031Zm22.265 0a2.344 2.344 0 1 0 4.688 0A7.04 7.04 0 0 0 43.594.143a7.04 7.04 0 0 0-7.032 7.031 2.344 2.344 0 1 0 4.688 0 2.346 2.346 0 0 1 2.344-2.344 2.346 2.346 0 0 1 2.343 2.344ZM60 50.104c0-3.662-3.256-6.64-7.26-6.64-1.7 0-2.935-.822-2.935-1.954 0-1.077.867-1.953 1.933-1.953 1.075 0 2.475.117 4.71.986a2.344 2.344 0 0 0 1.7-4.368 20.65 20.65 0 0 0-3.07-.945v-1.806a2.344 2.344 0 1 0-4.687 0v1.584a6.647 6.647 0 0 0-5.274 6.502c0 3.786 3.278 6.64 7.624 6.64 1.394 0 2.572.895 2.572 1.954 0 1.04-.968 1.953-2.07 1.953-.861 0-3.02-.316-5.15-1.162a2.344 2.344 0 0 0-1.732 4.356c1.357.54 2.773.924 4.03 1.168v1.38a2.344 2.344 0 1 0 4.687 0V56.49a6.815 6.815 0 0 0 2.887-1.66C59.277 53.566 60 51.887 60 50.104Z" fill="#71AECC"/></g><defs><clipPath id="a"><path fill="#fff" d="M0 0h60v60H0z"/></clipPath></defs></svg>