<svg width="60" height="61" fill="none" xmlns="http://www.w3.org/2000/svg"><g clip-path="url(#a)"><path d="M23.396 57.613c-1.134.23-2.308.351-3.51.351-9.69 0-17.546-7.856-17.546-17.547 0-9.69 7.856-17.547 17.546-17.547 1.202 0 2.376.122 3.51.352-8.01 1.625-14.038 8.706-14.038 17.195 0 8.49 6.029 15.57 14.038 17.196ZM47.61 14.916c-9.432 0-17.078-2.514-17.078-5.615 0-3.101 7.646-5.615 17.078-5.615.65 0 1.293.012 1.924.036-2.603-.616-5.67-.972-8.953-.972-9.432 0-17.078 2.933-17.078 6.55 0 3.619 7.646 6.552 17.078 6.552 3.284 0 6.35-.356 8.953-.972-.631.023-1.273.036-1.924.036Z" fill="#CFCFCF"/><path d="M40.581 18.191c-4.84 0-9.427-.736-12.914-2.074-5.66-2.17-6.504-5.202-6.504-6.816 0-1.614.845-4.646 6.504-6.817C31.154 1.147 35.74.41 40.581.41c4.842 0 9.428.737 12.915 2.074C59.156 4.655 60 7.687 60 9.301c0 1.614-.845 4.646-6.504 6.816-3.487 1.338-8.073 2.074-12.915 2.074Zm0-13.101c-4.22 0-8.316.642-11.238 1.763-2.645 1.015-3.5 2.087-3.5 2.448 0 .36.855 1.433 3.5 2.448 2.922 1.12 7.018 1.763 11.238 1.763s8.317-.643 11.24-1.763c2.644-1.015 3.5-2.088 3.5-2.448 0-.36-.856-1.433-3.5-2.448-2.923-1.12-7.019-1.763-11.24-1.763Zm17.926 51.852A2.34 2.34 0 0 0 56.6 52.67c-4.382 1.957-10.504 3.032-16.797 2.951a2.34 2.34 0 1 0-.06 4.679c.25.003.5.005.75.005 6.77 0 13.142-1.187 18.014-3.362Zm-12.795-7.294c4.822-.455 9.247-1.533 12.795-3.117a2.34 2.34 0 0 0-1.907-4.273c-3.09 1.38-7.006 2.324-11.328 2.732a2.34 2.34 0 1 0 .44 4.658Zm.747-10.604c4.527-.491 8.693-1.543 12.048-3.041A2.34 2.34 0 1 0 56.6 31.73c-2.917 1.302-6.598 2.223-10.646 2.663a2.34 2.34 0 0 0 .505 4.651ZM42.67 28.677c5.935-.23 11.56-1.41 15.837-3.32a2.34 2.34 0 1 0-1.907-4.272c-3.747 1.673-8.758 2.709-14.111 2.916a2.34 2.34 0 0 0 .181 4.676ZM19.886 60.304C8.921 60.304 0 51.383 0 40.417c0-10.965 8.921-19.886 19.886-19.886 10.966 0 19.887 8.92 19.887 19.886s-8.921 19.887-19.887 19.887Zm0-35.094c-8.385 0-15.207 6.822-15.207 15.207 0 8.386 6.822 15.208 15.207 15.208 8.386 0 15.208-6.822 15.208-15.208 0-8.385-6.822-15.207-15.208-15.207Z" fill="#1F1F1F"/><path d="M26.437 43.927c0-1.596-.708-3.138-1.943-4.233-1.176-1.042-2.73-1.616-4.374-1.616-1.133 0-1.988-.503-1.988-1.17 0-.645.524-1.17 1.17-1.17.83 0 1.841.094 3.597.777a2.34 2.34 0 0 0 1.696-4.361 18.732 18.732 0 0 0-2.018-.665v-.43a2.34 2.34 0 0 0-4.68 0v.171a5.859 5.859 0 0 0-4.444 5.678c0 3.334 2.866 5.849 6.667 5.849.888 0 1.638.535 1.638 1.17 0 .634-.562 1.17-1.228 1.17-.49 0-2.16-.16-3.99-.888a2.34 2.34 0 0 0-1.729 4.348c1.07.426 2.133.72 3.087.914v.305a2.34 2.34 0 1 0 4.679 0v-.363c2.251-.826 3.86-2.973 3.86-5.486Z" fill="#6EB36E"/></g><defs><clipPath id="a"><path fill="#fff" transform="translate(0 .5)" d="M0 0h60v60H0z"/></clipPath></defs></svg>