<svg width="60" height="60" fill="none" xmlns="http://www.w3.org/2000/svg"><g clip-path="url(#a)"><path d="M12.227 47.256 9.423 24.193a7.701 7.701 0 0 1 1.955-6.068l-1.302-1.604c-4.617 0-8.206 4.021-7.683 8.61l2.522 22.127a11.717 11.717 0 0 0 11.642 10.39h7.312v-.002a11.717 11.717 0 0 1-11.642-10.39Z" fill="#CFCFCF"/><path d="M19.116 35.62a2.343 2.343 0 0 0 2.344-2.343V13.24c0-4.716 3.837-8.553 8.553-8.553 4.716 0 8.554 3.837 8.554 8.553v.938H28.49a2.343 2.343 0 1 0 0 4.687h12.42a2.343 2.343 0 0 0 2.344-2.344v-3.28C43.254 5.94 37.314 0 30.014 0c-7.302 0-13.241 5.94-13.241 13.24v20.037a2.343 2.343 0 0 0 2.343 2.343Z" fill="#010101"/><path d="M54.898 49.37a2.344 2.344 0 0 0-3.17.967 9.36 9.36 0 0 1-8.277 4.968H16.557a9.37 9.37 0 0 1-9.314-8.312L4.721 24.865a5.324 5.324 0 0 1 1.334-4.2 5.324 5.324 0 0 1 4.021-1.8 2.343 2.343 0 1 0 0-4.687 10.087 10.087 0 0 0-7.517 3.367 10.086 10.086 0 0 0-2.494 7.85l2.521 22.129a14.054 14.054 0 0 0 13.97 12.468h26.895c5.208 0 9.964-2.855 12.413-7.451a2.344 2.344 0 0 0-.966-3.17Zm2.875-23.478c-.071.005.07 0 0 0Zm2.196-2.55a10.052 10.052 0 0 0-3.195-6.485 10.04 10.04 0 0 0-6.842-2.68 2.343 2.343 0 1 0 0 4.688c2.764 0 5.123 2.15 5.369 4.896.11 1.218 1.06 2.131 2.472 2.131 1.524-.114 2.311-1.26 2.196-2.55Z" fill="#010101"/><path d="M21.215 50.867a2.343 2.343 0 0 1-1.72-3.935s4.035-4.356 4.089-4.404a8.182 8.182 0 0 1 10.602-.31l3.563 2.913a3.522 3.522 0 0 0 4.768-.403l5.286-6.076a2.343 2.343 0 1 1 3.537 3.076l-5.327 6.123c-2.887 3.207-7.8 3.623-11.184.946l-.03-.024-3.563-2.914a3.506 3.506 0 0 0-4.447.092l-3.853 4.164a2.337 2.337 0 0 1-1.72.752ZM60 42.885v-6.19c0-3.952-3.216-7.168-7.168-7.168h-6.19a2.343 2.343 0 1 0 0 4.687h6.19a2.484 2.484 0 0 1 2.481 2.482v6.189a2.343 2.343 0 1 0 4.687 0Z" fill="#857ED6"/></g><defs><clipPath id="a"><path fill="#fff" d="M0 0h60v60H0z"/></clipPath></defs></svg>