<svg width="60" height="61" fill="none" xmlns="http://www.w3.org/2000/svg"><g clip-path="url(#a)"><path d="M33.281 56.947c-1.005.673-1.98 1.066-3.281 1.066a6.328 6.328 0 0 1-6.328-6.328v-9.609A6.328 6.328 0 0 1 30 35.748c1.301 0 2.276.393 3.281 1.066a6.321 6.321 0 0 0-2.812 5.262v9.61a6.322 6.322 0 0 0 2.812 5.261Zm18.516-5.262V31.177a6.322 6.322 0 0 1 2.812-5.261c-1.005-.674-1.98-1.067-3.28-1.067A6.328 6.328 0 0 0 45 31.177v20.508a6.328 6.328 0 0 0 6.328 6.328c1.301 0 2.276-.392 3.281-1.066a6.322 6.322 0 0 1-2.812-5.262Zm-42.656 0V29.42a6.322 6.322 0 0 1 2.812-5.262c-1.005-.673-1.98-1.066-3.281-1.066a6.328 6.328 0 0 0-6.328 6.328v22.265a6.328 6.328 0 0 0 6.328 6.328c1.3 0 2.275-.392 3.281-1.066a6.322 6.322 0 0 1-2.812-5.262Z" fill="#CFCFCF"/><path d="M8.672 60.357C3.89 60.357 0 56.467 0 51.685V29.42c0-4.782 3.89-8.672 8.672-8.672s8.672 3.89 8.672 8.672v22.265c0 4.782-3.89 8.672-8.672 8.672Zm0-34.922a3.989 3.989 0 0 0-3.985 3.985v22.265a3.989 3.989 0 0 0 3.985 3.985 3.989 3.989 0 0 0 3.984-3.985V29.42a3.989 3.989 0 0 0-3.984-3.985ZM30 60.357c-4.782 0-8.672-3.89-8.672-8.672v-9.609c0-4.782 3.89-8.672 8.672-8.672s8.672 3.89 8.672 8.672v9.61c0 4.781-3.89 8.671-8.672 8.671Zm0-22.265a3.989 3.989 0 0 0-3.984 3.984v9.61A3.989 3.989 0 0 0 30 55.67a3.989 3.989 0 0 0 3.984-3.985v-9.609A3.989 3.989 0 0 0 30 38.092Zm21.328 22.265c-4.782 0-8.672-3.89-8.672-8.672V31.177c0-4.781 3.89-8.671 8.672-8.671S60 26.396 60 31.177v20.508c0 4.782-3.89 8.672-8.672 8.672Zm0-33.164a3.989 3.989 0 0 0-3.984 3.984v20.508a3.989 3.989 0 0 0 3.984 3.985 3.989 3.989 0 0 0 3.984-3.985V31.177a3.989 3.989 0 0 0-3.984-3.984Z" fill="#1F1F1F"/><path d="M32.216 28.945a8.168 8.168 0 0 1-5.08-1.763c-.043-.034-15.003-13.622-15.003-13.622a3.507 3.507 0 0 0-4.44.154l-3.701 3.66a2.344 2.344 0 0 1-3.296-3.332s3.798-3.756 3.826-3.78a8.184 8.184 0 0 1 10.573-.335c.042.033 15.003 13.62 15.003 13.62a3.523 3.523 0 0 0 4.783-.496L47.873 9.405a2.344 2.344 0 1 1 3.395 3.232l-12.97 13.624a8.196 8.196 0 0 1-6.082 2.684ZM60 13.716V7.388A7.04 7.04 0 0 0 52.969.357H46.64a2.344 2.344 0 1 0 0 4.687h6.328a2.346 2.346 0 0 1 2.343 2.344v6.328a2.344 2.344 0 1 0 4.688 0Z" fill="#BD5454"/></g><defs><clipPath id="a"><path fill="#fff" transform="translate(0 .5)" d="M0 0h60v60H0z"/></clipPath></defs></svg>