<svg width="20" height="21" viewBox="0 0 20 21" fill="none" xmlns="http://www.w3.org/2000/svg">
<path d="M17.5 7.05833H2.5C2.15833 7.05833 1.875 6.775 1.875 6.43333C1.875 6.09167 2.15833 5.80833 2.5 5.80833H17.5C17.8417 5.80833 18.125 6.09167 18.125 6.43333C18.125 6.775 17.8417 7.05833 17.5 7.05833Z" fill="white"/>
<path d="M17.5 11.225H2.5C2.15833 11.225 1.875 10.9417 1.875 10.6C1.875 10.2583 2.15833 9.975 2.5 9.975H17.5C17.8417 9.975 18.125 10.2583 18.125 10.6C18.125 10.9417 17.8417 11.225 17.5 11.225Z" fill="white"/>
<path d="M17.5 15.3917H2.5C2.15833 15.3917 1.875 15.1083 1.875 14.7667C1.875 14.425 2.15833 14.1417 2.5 14.1417H17.5C17.8417 14.1417 18.125 14.425 18.125 14.7667C18.125 15.1083 17.8417 15.3917 17.5 15.3917Z" fill="white"/>
</svg>
