<svg width="20" height="21" viewBox="0 0 20 21" xmlns="http://www.w3.org/2000/svg">
<path d="M9.58317 18.725C4.87484 18.725 1.0415 14.8917 1.0415 10.1833C1.0415 5.475 4.87484 1.64166 9.58317 1.64166C14.2915 1.64166 18.1248 5.475 18.1248 10.1833C18.1248 14.8917 14.2915 18.725 9.58317 18.725ZM9.58317 2.89166C5.55817 2.89166 2.2915 6.16666 2.2915 10.1833C2.2915 14.2 5.55817 17.475 9.58317 17.475C13.6082 17.475 16.8748 14.2 16.8748 10.1833C16.8748 6.16666 13.6082 2.89166 9.58317 2.89166Z"/>
<path d="M18.3335 19.5583C18.1752 19.5583 18.0169 19.5 17.8919 19.375L16.2252 17.7083C15.9835 17.4667 15.9835 17.0667 16.2252 16.825C16.4669 16.5833 16.8669 16.5833 17.1085 16.825L18.7752 18.4917C19.0169 18.7333 19.0169 19.1333 18.7752 19.375C18.6502 19.5 18.4919 19.5583 18.3335 19.5583Z"/>
</svg>
