<svg width="18" height="15" viewBox="0 0 18 15" xmlns="http://www.w3.org/2000/svg">
<path d="M1.68741 6.75327C6.32401 4.73318 9.41581 3.40141 10.9628 2.75796C15.3798 0.920796 16.2976 0.601661 16.8958 0.59101C17.0273 0.588805 17.3215 0.621412 17.5121 0.776038C17.673 0.906602 17.7173 1.08297 17.7385 1.20676C17.7596 1.33055 17.786 1.61254 17.765 1.83289C17.5257 4.34783 16.49 10.4509 15.9631 13.2677C15.7401 14.4596 15.3011 14.8592 14.8761 14.8983C13.9525 14.9833 13.2512 14.2879 12.3566 13.7015C10.9567 12.7839 10.1659 12.2127 8.80713 11.3173C7.23682 10.2825 8.25479 9.71372 9.1497 8.78422C9.38391 8.54096 13.4534 4.83942 13.5322 4.50363C13.542 4.46163 13.5512 4.30509 13.4582 4.22243C13.3652 4.13977 13.2279 4.16804 13.1289 4.19052C12.9885 4.22239 10.7522 5.70047 6.42011 8.62478C5.78535 9.06065 5.21041 9.27302 4.69528 9.26189C4.1274 9.24962 3.03501 8.9408 2.22293 8.67682C1.22689 8.35305 0.435251 8.18187 0.504184 7.632C0.540089 7.34559 0.934498 7.05268 1.68741 6.75327Z"/>
</svg>
