<svg width="19" height="20" viewBox="0 0 19 20" xmlns="http://www.w3.org/2000/svg">
<path d="M16.3484 1.85005C15.8774 1.41859 13.9695 0.0315919 9.72059 0.0133836C9.72059 0.0133836 4.70697 -0.286658 2.26468 1.95455C0.906178 3.31305 0.430386 5.30251 0.375761 7.77013C0.321136 10.2378 0.260178 14.8627 4.71805 16.1198H4.72201L4.71805 18.0349C4.71805 18.0349 4.68876 18.8107 5.19859 18.9667C5.81451 19.1598 6.17868 18.5693 6.76847 17.9343C7.09147 17.5852 7.53638 17.0738 7.87443 16.6835C8.34943 16.7302 8.90043 16.7563 9.45855 16.7563C10.9049 16.7563 12.3101 16.5782 13.6528 16.2425L13.534 16.2679C14.15 16.0676 17.6349 15.6219 18.1985 10.9978C18.7875 6.22401 17.9183 3.21251 16.3484 1.85005ZM16.8646 10.6494C16.384 14.5088 13.561 14.7542 13.0416 14.9205C11.908 15.2086 10.6065 15.3733 9.26618 15.3733C8.88143 15.3733 8.49984 15.3598 8.12222 15.3329L8.17288 15.3361C8.17288 15.3361 6.18338 17.0996 5.58251 17.7045C5.9568 17.3274 5.24847 14.8753 5.24847 14.8753C1.47459 13.8288 1.69309 9.88942 1.73743 7.83188C1.78176 5.77434 2.16809 4.08334 3.31839 2.94809C5.38622 1.07422 9.64301 1.35209 9.64301 1.35209C13.2395 1.36713 14.9614 2.45092 15.362 2.8143C16.6873 3.95034 17.3625 6.66813 16.8646 10.6494ZM11.71 7.65059V7.66167C11.71 7.79467 11.6024 7.90234 11.4694 7.90234C11.3403 7.90234 11.235 7.80101 11.2295 7.67355C11.2327 7.6403 11.235 7.59992 11.235 7.56113C11.235 6.92701 10.7213 6.41322 10.0871 6.41322C10.0634 6.41322 10.0396 6.41401 10.0167 6.41559H10.0198C9.89238 6.40847 9.79184 6.30397 9.79184 6.17572C9.79184 6.04272 9.89951 5.93505 10.0325 5.93505H10.046C10.0618 5.93426 10.0808 5.93426 10.0998 5.93426C10.9912 5.93426 11.7132 6.65626 11.7132 7.54767C11.7132 7.58409 11.7116 7.62051 11.7093 7.65613V7.65138L11.71 7.65059ZM12.4629 8.07097C12.5001 6.49713 11.5169 5.2653 9.65013 5.12755C9.52426 5.11884 9.42609 5.01434 9.42609 4.88767C9.42609 4.75467 9.53376 4.64701 9.66676 4.64701C9.6723 4.64701 9.67863 4.64701 9.68418 4.6478H9.69684C11.4915 4.6478 12.9474 6.10288 12.9474 7.89838C12.9474 7.96251 12.9458 8.02663 12.9419 8.08997L12.9427 8.08126C12.9395 8.21188 12.8334 8.31559 12.7028 8.31559C12.5698 8.31559 12.4621 8.20792 12.4621 8.07492C12.4621 8.07255 12.4621 8.07097 12.4621 8.06859L12.4629 8.07097ZM14.2046 8.56892V8.57051C14.2046 8.70351 14.0969 8.81117 13.9639 8.81117C13.8309 8.81117 13.7248 8.7043 13.724 8.57288C13.705 5.54713 11.6871 3.89967 9.24163 3.88226C9.10863 3.88226 9.00176 3.77459 9.00176 3.64238C9.00176 3.51017 9.10943 3.40251 9.24163 3.40251C11.98 3.42151 14.1808 5.31122 14.203 8.56813L14.2046 8.56892ZM13.789 12.209V12.2161C13.3884 12.9215 12.6387 13.7005 11.8668 13.4519L11.8597 13.4408C10.4093 12.8993 9.15534 12.1916 8.03513 11.32L8.06759 11.3437C7.47938 10.875 6.96243 10.3581 6.5088 9.78967L6.49376 9.76988C6.0908 9.2648 5.71318 8.69955 5.38384 8.10263L5.35218 8.04009C4.99038 7.44951 4.66343 6.76709 4.40772 6.05063L4.38397 5.97305C4.13538 5.20117 4.91043 4.45147 5.61976 4.05088H5.62688C5.7298 3.98517 5.85488 3.94559 5.98947 3.94559C6.20084 3.94559 6.38926 4.04297 6.51355 4.19417L6.51434 4.19576C6.51434 4.19576 6.9743 4.74438 7.17143 5.01592C7.35668 5.26847 7.60605 5.67301 7.73509 5.89863C7.80951 6.01501 7.85305 6.15751 7.85305 6.3103C7.85305 6.5383 7.75488 6.74334 7.59813 6.88505L7.59734 6.88584L7.15243 7.24209C7.02972 7.36084 6.95372 7.52709 6.95372 7.71076C6.95372 7.72897 6.95451 7.74638 6.95609 7.7638V7.76142C7.41447 9.26797 8.57743 10.4309 10.0515 10.8814L10.0848 10.8901C10.0998 10.8917 10.118 10.8925 10.1354 10.8925C10.3191 10.8925 10.4853 10.8165 10.6041 10.6945L10.9603 10.2496C11.1028 10.0921 11.3079 9.99392 11.5359 9.99392C11.6887 9.99392 11.8304 10.0383 11.9507 10.1143L11.9475 10.1127C12.5912 10.4792 13.1477 10.8822 13.6552 11.339L13.6465 11.331C13.7985 11.453 13.8943 11.639 13.8943 11.8472C13.8943 11.981 13.8547 12.1053 13.7858 12.2098L13.7874 12.2074L13.789 12.209Z"/>
</svg>
