<svg width="18" height="19" viewBox="0 0 18 19" xmlns="http://www.w3.org/2000/svg">
<path fill-rule="evenodd" clip-rule="evenodd" d="M15.0453 3.34659C13.426 1.72728 11.2669 0.86364 8.99989 0.86364C4.24989 0.86364 0.363525 4.75 0.363525 9.5C0.363525 11.0114 0.79535 12.5227 1.55103 13.8182L0.363525 18.1364L4.89763 16.9489C6.19308 17.5966 7.59648 18.0284 8.99989 18.0284C13.7499 18.0284 17.6362 14.142 17.6362 9.39205C17.6362 7.125 16.6647 4.96591 15.0453 3.34659ZM8.99989 16.625C7.70443 16.625 6.40899 16.3011 5.32944 15.6534L5.11352 15.5455L2.41465 16.3011L3.17035 13.7102L2.95443 13.3864C2.19875 12.1989 1.87488 10.9034 1.87488 9.60796C1.87488 5.72159 5.11352 2.48296 8.99989 2.48296C10.9431 2.48296 12.6704 3.23864 14.0738 4.53409C15.4772 5.9375 16.1249 7.66478 16.1249 9.60796C16.1249 13.3864 12.9942 16.625 8.99989 16.625ZM12.8863 11.2273C12.6703 11.1193 11.5908 10.5795 11.3749 10.5795C11.159 10.4716 11.051 10.4716 10.9431 10.6875C10.8351 10.9034 10.4033 11.3352 10.2954 11.5511C10.1874 11.6591 10.0794 11.6591 9.86351 11.6591C9.6476 11.5511 8.9999 11.3352 8.13626 10.5795C7.48854 10.0398 7.05671 9.28409 6.94876 9.06818C6.8408 8.85228 6.94876 8.74432 7.05672 8.63637C7.16467 8.52841 7.27262 8.42046 7.38057 8.3125C7.48852 8.20455 7.48854 8.09659 7.59649 7.98864C7.70445 7.88068 7.59649 7.77273 7.59649 7.66478C7.59649 7.55682 7.16467 6.47728 6.94876 6.04546C6.8408 5.72159 6.6249 5.72159 6.51695 5.72159C6.40899 5.72159 6.30101 5.72159 6.0851 5.72159C5.97715 5.72159 5.76124 5.72159 5.54533 5.9375C5.32942 6.15341 4.78967 6.69318 4.78967 7.77273C4.78967 8.85227 5.54534 9.82387 5.65329 10.0398C5.76125 10.1477 7.16465 12.4148 9.32374 13.2784C11.159 14.0341 11.4829 13.8182 11.9147 13.8182C12.3465 13.8182 13.2101 13.2784 13.3181 12.8466C13.534 12.3068 13.534 11.875 13.426 11.875C13.3181 11.3352 13.1022 11.3352 12.8863 11.2273Z"/>
</svg>
