<svg width="60" height="61" fill="none" xmlns="http://www.w3.org/2000/svg"><g clip-path="url(#a)"><path d="M25.75 29.51a13.468 13.468 0 0 1-4.16.655c-7.442 0-13.476-6.033-13.476-13.476 0-7.443 6.034-13.477 13.477-13.477 1.451 0 2.85.23 4.16.656-5.407 1.753-9.317 6.83-9.317 12.82 0 5.992 3.91 11.069 9.317 12.822Zm12.22 15.42c0-5.99 3.91-11.067 9.316-12.82a13.468 13.468 0 0 0-4.16-.656c-7.443 0-13.477 6.034-13.477 13.477 0 7.443 6.034 13.477 13.477 13.477 1.452 0 2.85-.231 4.16-.656-5.407-1.753-9.316-6.83-9.316-12.821Z" fill="#EAEAEA"/><path d="M22.852 32.509c-8.724 0-15.82-7.097-15.82-15.82 0-8.724 7.096-15.82 15.82-15.82 8.723 0 15.82 7.096 15.82 15.82 0 8.723-7.097 15.82-15.82 15.82Zm0-26.953c-6.14 0-11.133 4.994-11.133 11.133 0 6.138 4.994 11.133 11.133 11.133 6.138 0 11.132-4.995 11.132-11.133 0-6.139-4.994-11.133-11.132-11.133ZM44.18 60.75c-8.724 0-15.82-7.097-15.82-15.82 0-8.723 7.096-15.82 15.82-15.82 8.723 0 15.82 7.097 15.82 15.82 0 8.723-7.097 15.82-15.82 15.82Zm0-26.953c-6.139 0-11.133 4.994-11.133 11.133 0 6.139 4.994 11.133 11.133 11.133 6.138 0 11.133-4.995 11.133-11.133 0-6.139-4.995-11.133-11.133-11.133Z" fill="#323232"/><path d="M48.163 42.587h-1.64v-2.46a2.344 2.344 0 1 0-4.687 0v4.804a2.344 2.344 0 0 0 2.344 2.344h3.983a2.344 2.344 0 1 0 0-4.688Zm-26.483-5.39h-.03C9.222 37.197 0 46.764 0 58.525a2.344 2.344 0 1 0 4.688 0c0-9.176 7.03-16.641 16.992-16.641a2.344 2.344 0 1 0 0-4.688Z" fill="#D82916"/></g><defs><clipPath id="a"><path fill="#fff" transform="translate(0 .868)" d="M0 0h60v60H0z"/></clipPath></defs></svg>