<svg width="150" height="42" fill="none" xmlns="http://www.w3.org/2000/svg"><path d="M11.355 8.248c0 .682-.29 1.236-.648 1.236-.359 0-.648-.56-.648-1.236 0-.676.29-1.235.648-1.235.359 0 .648.554.648 1.236Zm1.51 6.61c0 .684-.327 1.238-.729 1.238-.402 0-.732-.56-.732-1.238 0-.68.327-1.244.732-1.244.405 0 .73.559.73 1.244Zm8.902-8.647c0 .682-.29 1.235-.651 1.235-.362 0-.648-.558-.648-1.235 0-.676.29-1.238.648-1.238.359 0 .651.556.651 1.238Zm.663-2.456c0 .685-.29 1.238-.651 1.238-.362 0-.648-.553-.648-1.238 0-.685.289-1.235.648-1.235.358 0 .65.553.65 1.235ZM10.577 16.942c0 .682-.29 1.235-.651 1.235-.362 0-.657-.553-.657-1.235 0-.681.29-1.235.648-1.235.359 0 .66.553.66 1.235Zm11.002-6.997c0 .682-.382 1.235-.868 1.235s-.868-.559-.868-1.235.385-1.235.868-1.235.868.553.868 1.235Zm.179 3.77c0 1.003-.367 1.813-.816 1.813-.448 0-.818-.81-.818-1.813 0-1.004.367-1.811.818-1.811.452 0 .816.81.816 1.81Zm-2.19-2.337c0 .56-.289.99-.648.99-.359 0-.65-.43-.65-.99 0-.559.289-.992.65-.992.362 0 .648.456.648.992ZM28.84 4.73c0 .56-.289.998-.648.998-.358 0-.648-.447-.648-.998 0-.55.29-.997.648-.997.36 0 .648.444.648.997Zm-2.583 4.368c0 .894-.466 1.62-1.045 1.62-.578 0-1.044-.737-1.044-1.62 0-.883.469-1.632 1.044-1.632.576 0 1.045.738 1.045 1.632Zm-7.441-5.013c0 .679-.29 1.235-.648 1.235-.359 0-.65-.56-.65-1.235 0-.677.288-1.238.65-1.238.362 0 .648.553.648 1.238ZM5.473 12.882c0 .682-.379 1.235-.844 1.235-.466 0-.857-.553-.857-1.235s.39-1.224.868-1.224.833.542.833 1.224Zm.102 7.316c0 .682-.29 1.24-.645 1.24-.356 0-.648-.558-.648-1.234 0-.677.289-1.236.648-1.236.358 0 .645.548.645 1.23Zm2.143-6.223c0 .765-.457 1.397-1.018 1.397-.561 0-1.018-.618-1.018-1.397 0-.78.454-1.381 1.018-1.381.564 0 1.018.618 1.018 1.38Zm-.011 11.91c0 .651-.457 1.176-1.018 1.176-.562 0-1.019-.525-1.019-1.176 0-.651.454-1.177 1.019-1.177.564 0 1.018.529 1.018 1.177ZM6.593 7.986c0 .682-.402 1.235-.897 1.235-.494 0-.897-.559-.897-1.235s.403-1.235.897-1.235c.495 0 .897.553.897 1.235Zm5.303 3.552c0 .679-.373 1.238-.83 1.238-.457 0-.83-.56-.83-1.236 0-.676.37-1.235.83-1.235.46 0 .83.548.83 1.233Zm4.825-6.981c0 .673-.373 1.232-.83 1.232-.457 0-.836-.559-.836-1.232 0-.674.373-1.235.83-1.235.458 0 .836.553.836 1.235Zm-2.947 5.516c0 .755-.37 1.364-.83 1.364-.46 0-.831-.617-.831-1.364 0-.746.373-1.363.83-1.363.457 0 .83.609.83 1.363Zm1.796 3.784c0 .942-.466 1.708-1.036 1.708-.57 0-1.038-.766-1.038-1.708s.466-1.704 1.038-1.704c.573 0 1.036.762 1.036 1.704Zm2.21-1.411c0 .752-.37 1.364-.83 1.364-.46 0-.827-.612-.827-1.364 0-.752.37-1.367.827-1.367.457 0 .83.612.83 1.367Zm1.273 6.866c0 .947-.54 1.716-1.209 1.716-.668 0-1.21-.768-1.21-1.716 0-.947.542-1.713 1.21-1.713.668 0 1.21.766 1.21 1.713Zm17.199-8.152c0 .49-.289.883-.656.883-.368 0-.657-.393-.657-.883 0-.489.29-.883.657-.883.367 0 .656.397.656.883ZM12.94 17.976c0 .755-.37 1.367-.83 1.367-.46 0-.816-.612-.816-1.367 0-.754.373-1.363.83-1.363.458 0 .816.612.816 1.363Zm-8.097 5.5c0 .584-.373 1.056-.83 1.056-.458 0-.82-.472-.82-1.056 0-.584.374-1.053.831-1.053.457 0 .819.472.819 1.053ZM3.671 20.07c0 .681-.367 1.235-.821 1.235-.455 0-.813-.554-.813-1.235 0-.682.367-1.236.821-1.236.454 0 .813.554.813 1.236Zm.307-4.475c0 .671-.475 1.216-1.06 1.216-.583 0-1.058-.545-1.058-1.216 0-.67.466-1.218 1.059-1.218s1.059.545 1.059 1.218Zm-2.306 2.423a.828.828 0 0 1-.22.62.883.883 0 0 1-.61.286.944.944 0 0 1-.6-.291.883.883 0 0 1-.242-.605.88.88 0 0 1 .242-.605.943.943 0 0 1 .6-.29.895.895 0 0 1 .603.278.835.835 0 0 1 .227.607Zm5.613-7.285a.812.812 0 0 1-.22.616.865.865 0 0 1-.61.278.943.943 0 0 1-.6-.29.883.883 0 0 1-.243-.605c0-.224.087-.44.242-.605a.944.944 0 0 1 .6-.291.895.895 0 0 1 .607.283.835.835 0 0 1 .224.614Zm27.153 1.817c0 .751-.37 1.363-.827 1.363-.457 0-.83-.612-.83-1.364 0-.751.37-1.366.83-1.366.46 0 .827.612.827 1.366Zm-5.864.463c0 .752-.373 1.364-.83 1.364-.457 0-.828-.612-.828-1.364 0-.752.37-1.355.828-1.355.457 0 .83.6.83 1.355Zm-2.508 3.396c0 .754-.373 1.363-.83 1.363-.457 0-.828-.6-.828-1.363s.37-1.364.828-1.364c.457 0 .83.617.83 1.364Zm7.698-.906c0 .56-.37.987-.83.987-.46 0-.83-.442-.83-.987 0-.545.373-.99.83-.99.457 0 .83.442.83.99Zm-.885-6.26c0 .752-.37 1.364-.827 1.364-.457 0-.83-.612-.83-1.364 0-.751.37-1.366.83-1.366.46 0 .827.612.827 1.366ZM24.267 7.01c0 .752-.374 1.364-.83 1.364-.458 0-.831-.612-.831-1.363 0-.752.373-1.367.83-1.367.457 0 .83.612.83 1.367Zm-7.681 1.973c0 .839-.498 1.535-1.111 1.535-.614 0-1.108-.688-1.108-1.535 0-.846.497-1.537 1.108-1.537.61 0 1.11.688 1.11 1.537ZM14.072 5.77c0 .942-.463 1.696-1.042 1.696s-1.039-.763-1.039-1.705c0-.941.46-1.696 1.039-1.696s1.042.763 1.042 1.705Zm1.672 12.243c0 .754-.373 1.363-.83 1.363-.458 0-.83-.609-.83-1.363 0-.755.372-1.364.83-1.364.457 0 .83.598.83 1.364Zm12.66-8.032c0 .649-.374 1.174-.83 1.174-.458 0-.831-.523-.831-1.174 0-.651.373-1.17.83-1.17.457 0 .83.527.83 1.17Zm-4.424 4.192a.803.803 0 0 1-.208.41.87.87 0 0 1-.875.226.844.844 0 0 1-.392-.254.789.789 0 0 1-.116-.868.822.822 0 0 1 .313-.342.864.864 0 0 1 .454-.125c.24.022.46.134.615.313.154.178.23.408.21.64Zm7.32-2.837c0 .758-.463 1.373-1.036 1.373s-1.033-.615-1.033-1.373c0-.757.466-1.372 1.038-1.372.573 0 1.03.612 1.03 1.372Zm-.961-3.101c0 .751-.37 1.363-.83 1.363-.46 0-.828-.612-.828-1.363 0-.752.37-1.364.828-1.364.457 0 .83.609.83 1.364Zm-6.547 2.121c0 .642-.373 1.162-.83 1.162-.457 0-.83-.52-.83-1.162 0-.643.373-1.163.83-1.163.457 0 .83.509.83 1.163Zm2.326 2.64c0 .755-.373 1.367-.83 1.367-.457 0-.83-.612-.83-1.367 0-.754.37-1.363.83-1.363.46 0 .83.612.83 1.363Zm-3.289 4.81c0 .788-.443 1.428-.987 1.428s-.983-.64-.983-1.428c0-.788.44-1.428.983-1.428.544 0 .987.648.987 1.428Zm-5.3-16.552c0 .559-.373 1.003-.83 1.003-.458 0-.83-.45-.83-1.003 0-.554.372-1.004.83-1.004.456 0 .83.45.83 1.004Zm2.65.31c0 .754-.37 1.366-.83 1.366-.46 0-.822-.612-.822-1.366 0-.755.364-1.364.821-1.364.457 0 .83.612.83 1.364ZM9.032 7.427c0 .606-.35 1.098-.784 1.098-.434 0-.784-.5-.784-1.098 0-.598.35-1.101.784-1.101.434 0 .784.495.784 1.1Zm22.745 10.991c0 .754-.373 1.364-.83 1.364-.458 0-.83-.61-.83-1.364 0-.755.372-1.364.83-1.364.457 0 .83.61.83 1.364Zm-.443-3.407c0 .755-.37 1.367-.83 1.367-.46 0-.83-.612-.83-1.367 0-.754.373-1.363.83-1.363.457 0 .83.603.83 1.363ZM27.909 7.08c0 .755-.37 1.364-.828 1.364-.457 0-.83-.61-.83-1.364 0-.754.37-1.363.83-1.363.46 0 .828.612.828 1.363Zm-8.804.545c0 .755-.373 1.364-.83 1.364-.457 0-.83-.61-.83-1.364 0-.754.373-1.363.83-1.363.457 0 .83.609.83 1.363Zm6.871-2.537c0 .754-.37 1.364-.83 1.364-.46 0-.833-.61-.833-1.364 0-.755.373-1.364.83-1.364.457 0 .833.612.833 1.364ZM19.71 15.22c0 .627-.37 1.119-.83 1.119-.46 0-.828-.506-.828-1.118 0-.612.37-1.135.828-1.135.457 0 .83.509.83 1.135Zm16.626.75c0 .863-.425 1.565-.949 1.565-.523 0-.949-.702-.949-1.565 0-.864.423-1.562.95-1.562.526 0 .948.701.948 1.562Zm-26.87-5.553c0 .755-.37 1.364-.83 1.364-.46 0-.813-.61-.813-1.364 0-.754.37-1.364.827-1.364.457 0 .816.612.816 1.364Zm.706 3.197c0 .838-.466 1.543-1.036 1.543-.57 0-1.024-.705-1.024-1.543s.463-1.545 1.038-1.545c.576 0 1.022.681 1.022 1.545Zm-.394 10.209c0 .69-.37 1.249-.827 1.249-.457 0-.84-.56-.84-1.25s.374-1.235.831-1.235c.457 0 .836.554.836 1.236Zm1.49 2.562c0 .682-.37 1.235-.83 1.235-.46 0-.828-.559-.828-1.235s.37-1.235.828-1.235c.457 0 .83.553.83 1.235ZM7.97 22.149c0 .687-.373 1.246-.83 1.246-.457 0-.83-.559-.83-1.235 0-.677.373-1.235.83-1.235.457 0 .83.542.83 1.224Zm26.115-3.195c0 .685-.373 1.238-.83 1.238-.457 0-.83-.558-.83-1.238 0-.679.37-1.235.83-1.235.46 0 .83.554.83 1.235Zm-5.1-2.514a1.037 1.037 0 0 1-.237.554c-.133.159-.31.277-.512.34a1.13 1.13 0 0 1-.62.017 1.1 1.1 0 0 1-.53-.313 1.024 1.024 0 0 1-.187-1.137c.085-.187.225-.345.402-.456a1.12 1.12 0 0 1 .596-.171c.304.017.588.15.791.367.204.218.31.505.297.798ZM8.673 18.085c0 .682-.463 1.235-1.033 1.235-.57 0-1.032-.558-1.032-1.235 0-.676.462-1.235 1.032-1.235.57 0 1.033.559 1.033 1.235Zm-2.768-1.179c0 .682-.374 1.235-.83 1.235-.458 0-.831-.559-.831-1.235s.373-1.235.83-1.235c.457 0 .83.553.83 1.235Zm23.725 2.73c-.168-1.05-2.962.364-4.556.937-.631.229-1.713.869-2.893 1.162l.272-.16c2.86-1.707 3.67-1.715 3.596-2.288-.076-.573-1.837-.28-4.82 1.543-1.198.729-2.26.994-3.952 1.847a16.758 16.758 0 0 1 6.92.109s.191-.461 2.06-1.361c3.11-1.506 3.448-1.32 3.373-1.789Z" fill="#fff"/><path d="M25.719 24.122c-3.373 1.173-6.035-1.772-9.507-.962 3.183-1.257 6.634.794 8.532-.162.596-.28 2.051-.8 2.604-1.037.85-.36 3.127-1.338 3.02-.215-.026.375-2.233.878-4.65 2.376Zm6.489-18.199a.85.85 0 0 1-.136.495.894.894 0 0 1-.399.335.932.932 0 0 1-.996-.17.845.845 0 0 1-.206-.957.879.879 0 0 1 .336-.395.925.925 0 0 1 .507-.146.902.902 0 0 1 .625.242.842.842 0 0 1 .269.596Zm-1.577 0a.64.64 0 0 0 .194.478.684.684 0 0 0 .489.199.695.695 0 0 0 .481-.2.648.648 0 0 0 .187-.474.633.633 0 0 0-.181-.49.678.678 0 0 0-.494-.206.698.698 0 0 0-.494.206.65.65 0 0 0-.182.49v-.003Zm.538.44h-.202V5.51c.11-.018.223-.027.335-.028a.494.494 0 0 1 .29.067.213.213 0 0 1 .09.182.21.21 0 0 1-.055.13.225.225 0 0 1-.128.07c.087.026.13.093.156.208.012.071.033.14.064.206h-.214a.652.652 0 0 1-.07-.206c0-.09-.069-.129-.179-.129h-.098l.011.352Zm0-.476h.096c.113 0 .202-.036.202-.126s-.058-.128-.185-.128a.455.455 0 0 0-.113 0v.254Z" fill="#fff"/><path d="M29.286 23.518c-1.591.316-2.216.855-3.533 1.098-2.87.534-6.384-.517-9.393 3.633-1.342 1.847-1.548 5.491-1.918 7.769.034-2.663 0-3.912.616-6.271.868-3.354 4.56-5.047.093-6.707-1.936-.718-3.047-2.57-4.754-2.934-1.212-.257-1.57.483-.787 1.16 1.3 1.007 2.524 2.1 3.666 3.272.717.755 1.157 1.372 1.076 3.16-.121 2.37-.839 5.911-.483 9.24v.12c-1.134 1.397-3.625 1.956-5.097 2.235-.122.023-.13.059 0 .059h15.911c-.931 0-4.75-.073-4.918-4.253-.06-1.54-.023-2.026-.017-2.795 0-2.007.517-3.272 2.563-4.332 6.552-3.633 6.856-3.107 7.964-3.75.402-.235.35-1.006-.99-.704Zm-13.074 15.28c2.254-1.21 2.963-7.229 2.963-7.229s.544 7.255-2.963 7.23Zm27.591-.067c-1.198.4-2.456.606-3.723.611-3.584 0-7.494-2.021-7.494-7.217 0-4.913 3.498-7.401 8.03-7.401a10.01 10.01 0 0 1 3.187.49v3.84H41.7v-1.879a7.709 7.709 0 0 0-.88-.046c-3.23 0-5.147 2.017-5.147 4.932 0 3.446 2.347 4.852 4.942 4.852a7.169 7.169 0 0 0 3.002-.633l.186 2.451Zm6.194-10.029c2.967 0 5.142 1.85 5.142 5.32s-2.175 5.32-5.142 5.32c-2.968 0-5.138-1.85-5.138-5.32s2.198-5.32 5.138-5.32Zm0 8.688c1.156 0 2.39-.976 2.39-3.368s-1.253-3.368-2.39-3.368c-1.138 0-2.39.976-2.39 3.368s1.238 3.368 2.39 3.368Zm16.129-8.526v8.327h1.2v3.918h-2.184V39.18h-7.48v1.93h-1.878v-3.92h1.31c1.256-1.416 1.38-2.989 1.38-4.982v-1.795h-1.333v-1.55h8.985Zm-2.28 8.327v-6.338H60.76v1.536c0 1.615 0 3.266-1.133 4.802h4.22Zm7.914-2.355c.082 1.319 1.028 2.554 3.035 2.554a7.66 7.66 0 0 0 3.198-.717v2.017a10.225 10.225 0 0 1-3.532.638c-3.054 0-5.5-1.674-5.5-5.32 0-3.326 2.308-5.32 5.046-5.32 4.636 0 4.712 4.626 4.712 5.52v.614l-6.958.014Zm4.202-1.85c.038-1.735-1.124-2.41-2.113-2.41-1.18 0-2.07 1.054-2.088 2.41h4.2Zm67.08 1.85c.081 1.319 1.027 2.554 3.034 2.554a7.663 7.663 0 0 0 3.198-.717v2.017a10.23 10.23 0 0 1-3.532.638c-3.054 0-5.501-1.674-5.501-5.32 0-3.326 2.308-5.32 5.047-5.32 4.636 0 4.712 4.626 4.712 5.52v.614l-6.958.014Zm4.2-1.85c.039-1.735-1.123-2.41-2.112-2.41-1.18 0-2.069 1.054-2.088 2.41h4.2Zm-10.103 4.454v-8.576h-2.767l-4.052 7.268h-.039l.072-1.85v-3.679h.01v-1.735h-.01v-.004h-2.471v.005h-1.305v1.734h1.305v8.577h2.633l4.168-7.272h.052l-.071 1.934v5.338h3.828v-1.74h-1.353Zm-50.711-9.39c.7.02 1.39-.153 1.992-.499a3.622 3.622 0 0 0 1.406-1.453l-1.028-.926a3.448 3.448 0 0 1-2.368.934 3.448 3.448 0 0 1-2.368-.934l-1.027.925a3.615 3.615 0 0 0 1.404 1.453c.6.346 1.29.52 1.989.5Zm4.153 9.39v-8.576h-2.762l-4.058 7.268h-.038l.076-1.85v-3.679h.005v-1.735H83.8v-.004h-2.475v.005h-1.3v1.734h1.3v8.577h2.638l4.167-7.272h.053l-.072 1.934v5.338h3.828v-1.74h-1.357Zm11.016-6.508a4.677 4.677 0 0 0-1.725-.278c-1.874 0-3.317 1.337-3.317 3.405 0 1.85 1.176 3.33 3.13 3.33a5.733 5.733 0 0 0 2.141-.42l.101 1.97a9.441 9.441 0 0 1-2.739.403c-3.823 0-5.553-2.692-5.553-5.422 0-2.73 1.974-5.218 5.763-5.218.798 0 1.592.093 2.366.278l-.167 1.952Zm2.155-2.068v3.1h1.792v-1.11h1.539v6.591h-1.089v1.735h5.032v-1.735h-1.142v-6.592h1.539v1.11h1.797v-3.1h-9.468Zm19.083 4.899v-.06a2.304 2.304 0 0 0 1.359-.827 2.17 2.17 0 0 0 .467-1.486c0-1.092-.55-2.526-3.388-2.526h-6.046v1.735h1.214v6.842h-1.214v1.74h6.213c2.227 0 3.675-1.037 3.675-2.887-.014-1.717-1.157-2.452-2.28-2.531Zm-3.823-3.109h1.601c.478 0 1.463.06 1.463 1.115s-.956 1.115-1.463 1.115h-1.601v-2.23Zm0 6.736v-2.711h1.644c.607 0 1.73.079 1.73 1.355.01 1.374-1.228 1.356-1.701 1.356h-1.673ZM50.9 16.721v.776h-3.497v5.713h-.91v-6.49H50.9Zm.13 1.759h.786v.672c.146-.254.363-.463.626-.605.264-.142.562-.211.864-.2 1.296 0 2.03 1.02 2.03 2.36 0 1.127-.463 2.64-2.135 2.64a1.51 1.51 0 0 1-.776-.167 1.441 1.441 0 0 1-.572-.534v2.424h-.823v-6.59Zm.823 2.37c0 1.028.417 1.825 1.318 1.825.518 0 1.296-.36 1.296-1.602 0-.775-.081-1.993-1.27-1.993-1.277-.025-1.344 1.135-1.344 1.77Zm4.834-2.37 1.307 3.854 1.307-3.853h.91c-.578 1.547-1.49 4.068-2.16 5.587-.373.815-.578 1.077-1.524 1.077a1.265 1.265 0 0 1-.35-.072v-.718c.16.054.33.08.499.08.417 0 .473-.116.871-1.078L55.75 18.48h.938Zm8.186 0v4.73h-.823v-4.07h-2.29v4.069h-.827v-4.73h3.94Zm5.147 0v4.73h-.823v-4.07h-2.29v4.069h-.827v-4.73h3.94Zm1.162 1.44c0-1.134.808-1.572 2.022-1.572.391 0 1.818.108 1.818 1.321v2.7c0 .198.104.299.271.299.09-.005.18-.017.269-.036v.578a1.537 1.537 0 0 1-.447.09c-.745 0-.834-.36-.872-.719a2.228 2.228 0 0 1-.793.58c-.306.132-.64.197-.976.189-.901 0-1.53-.546-1.53-1.368 0-.564.148-1.397 1.862-1.523 1.288-.097 1.381-.194 1.381-.686 0-.491-.372-.76-1.14-.76-.938 0-1.068.552-1.117.911l-.748-.003Zm3.017.877c-.13.097-.336.168-1.356.294-.406.054-1.058.162-1.058.761a.74.74 0 0 0 .24.628.8.8 0 0 0 .661.206c.771 0 1.513-.474 1.513-1.11v-.78Zm5.653-.259 2.104-2.057h1.047l-1.862 1.763 1.985 2.966h-.995l-1.586-2.413-.693.625v1.795h-.827V18.48h.827v2.057Zm5.694-2.201c1.568 0 2.272 1.278 2.272 2.514 0 1.235-.704 2.513-2.272 2.513-1.568 0-2.271-1.289-2.271-2.513 0-1.225.703-2.514 2.271-2.514Zm0 4.309c1.177 0 1.427-1.181 1.427-1.795 0-.614-.25-1.796-1.427-1.796-1.176 0-1.43 1.17-1.43 1.796 0 .624.254 1.795 1.43 1.795Zm4.369-4.166 1.512 3.713 1.508-3.712h1.144v4.729h-.808v-2.744c0-.499.048-1.02.048-1.02h-.067l-1.538 3.764h-.596l-1.538-3.763h-.067s.048.52.048 1.02v2.743h-.808v-4.73h1.162Zm9.311 0v4.73h-.827v-4.07h-2.29v4.069h-.827v-4.73h3.944Zm1.177 1.44c0-1.134.804-1.572 2.022-1.572.372 0 1.817.108 1.817 1.321v2.7c0 .198.101.299.268.299.091-.005.18-.017.269-.036v.578a1.548 1.548 0 0 1-.444.09c-.745 0-.834-.36-.871-.719a2.26 2.26 0 0 1-.797.577 2.33 2.33 0 0 1-.976.192c-.901 0-1.531-.546-1.531-1.368 0-.564.149-1.397 1.863-1.523 1.288-.097 1.381-.194 1.381-.686 0-.491-.372-.76-1.139-.76-.939 0-1.069.552-1.118.911l-.744-.003Zm3.012.877c-.13.097-.335.168-1.351.294-.41.054-1.058.162-1.058.761a.732.732 0 0 0 .043.34.775.775 0 0 0 .5.465.816.816 0 0 0 .354.029c.771 0 1.512-.474 1.512-1.11v-.78Zm3.043-.413h2.291V18.48h.826v4.729h-.826v-2.155h-2.291v2.155h-.827v-4.73h.827v1.904Zm5.147 1.637 2.406-3.54h.86v4.729h-.823v-3.54h-.018l-2.403 3.54h-.864v-4.73h.827l.015 3.541Zm5.315 0h.018l2.402-3.54h.861v4.729h-.823v-3.54h-.019l-2.402 3.54h-.864v-4.73h.827v3.541Zm1.307-4.585a.919.919 0 0 0 .622-.18.856.856 0 0 0 .331-.538h.455c0 .32-.157 1.231-1.39 1.231-1.232 0-1.437-.894-1.437-1.231h.462a.78.78 0 0 0 .318.558.841.841 0 0 0 .639.16Z" fill="#fff"/></svg>