<svg width="160" height="44" fill="none" xmlns="http://www.w3.org/2000/svg"><path d="M12.112 8.499c0 .72-.309 1.304-.691 1.304-.383 0-.691-.59-.691-1.304 0-.714.308-1.304.69-1.304.383 0 .692.584.692 1.304Zm1.611 6.979c0 .723-.349 1.308-.778 1.308-.429 0-.78-.59-.78-1.308 0-.717.348-1.313.78-1.313.432 0 .778.59.778 1.313Zm9.495-9.13c0 .72-.308 1.304-.694 1.304-.386 0-.692-.59-.692-1.304 0-.714.31-1.308.692-1.308.382 0 .694.588.694 1.308Zm.707-2.594c0 .723-.309 1.307-.695 1.307-.385 0-.69-.584-.69-1.307s.308-1.305.69-1.305c.383 0 .695.585.695 1.305ZM11.282 17.68c0 .72-.309 1.304-.694 1.304-.386 0-.7-.584-.7-1.304 0-.72.308-1.305.69-1.305.383 0 .704.585.704 1.305Zm11.735-7.39c0 .72-.407 1.305-.925 1.305-.519 0-.926-.59-.926-1.305 0-.714.41-1.304.926-1.304.515 0 .925.584.925 1.304Zm.192 3.981c0 1.06-.392 1.915-.87 1.915-.479 0-.874-.855-.874-1.915s.392-1.912.874-1.912c.481 0 .87.856.87 1.912Zm-2.336-2.467c0 .59-.309 1.045-.691 1.045-.383 0-.695-.455-.695-1.045 0-.59.309-1.047.695-1.047.385 0 .69.48.69 1.047Zm9.89-7.02c0 .59-.309 1.053-.691 1.053-.383 0-.691-.472-.691-1.053 0-.582.308-1.054.69-1.054.383 0 .692.47.692 1.054Zm-2.756 4.612c0 .944-.496 1.712-1.114 1.712-.617 0-1.114-.78-1.114-1.712 0-.932.5-1.723 1.114-1.723.614 0 1.114.779 1.114 1.723ZM20.07 4.102c0 .717-.308 1.304-.69 1.304-.383 0-.695-.59-.695-1.304 0-.714.309-1.307.694-1.307.386 0 .691.584.691 1.307Zm-14.232 9.29c0 .72-.404 1.304-.9 1.304-.498 0-.914-.584-.914-1.304 0-.72.416-1.293.926-1.293.509 0 .888.573.888 1.293Zm.108 7.726c0 .72-.308 1.31-.688 1.31-.38 0-.691-.59-.691-1.304 0-.715.309-1.305.691-1.305.383 0 .688.579.688 1.299Zm2.287-6.572c0 .808-.488 1.475-1.086 1.475-.599 0-1.086-.652-1.086-1.475 0-.824.484-1.458 1.086-1.458.602 0 1.086.652 1.086 1.458ZM8.22 27.123c0 .688-.487 1.242-1.086 1.242-.598 0-1.086-.554-1.086-1.242s.485-1.242 1.086-1.242c.602 0 1.087.557 1.087 1.242ZM7.033 8.222c0 .72-.43 1.304-.957 1.304-.528 0-.957-.59-.957-1.304 0-.715.43-1.305.957-1.305.528 0 .957.585.957 1.305Zm5.656 3.75c0 .718-.398 1.308-.886 1.308-.487 0-.885-.59-.885-1.305 0-.714.395-1.304.885-1.304.491 0 .886.578.886 1.301ZM17.836 4.6c0 .712-.398 1.302-.885 1.302-.488 0-.892-.59-.892-1.301 0-.712.398-1.305.886-1.305.487 0 .891.585.891 1.305Zm-3.144 5.826c0 .797-.395 1.44-.886 1.44-.49 0-.885-.652-.885-1.44 0-.788.398-1.44.885-1.44.488 0 .886.643.886 1.44Zm1.916 3.996c0 .994-.497 1.803-1.105 1.803s-1.107-.809-1.107-1.803c0-.995.496-1.8 1.107-1.8s1.105.805 1.105 1.8Zm2.358-1.491c0 .794-.395 1.44-.886 1.44-.49 0-.882-.646-.882-1.44 0-.793.395-1.443.882-1.443.488 0 .886.647.886 1.444Zm1.357 7.251c0 1-.576 1.812-1.29 1.812-.712 0-1.29-.811-1.29-1.812 0-1 .578-1.809 1.29-1.809.713 0 1.29.809 1.29 1.81Zm18.347-8.608c0 .516-.31.933-.701.933-.392 0-.7-.417-.7-.933s.308-.932.7-.932c.392 0 .7.418.7.932Zm-24.867 7.198c0 .796-.395 1.443-.886 1.443-.49 0-.87-.647-.87-1.443 0-.797.398-1.44.886-1.44.487 0 .87.646.87 1.44ZM5.166 24.58c0 .616-.398 1.115-.886 1.115s-.873-.499-.873-1.116c0-.617.398-1.112.885-1.112.488 0 .874.498.874 1.112Zm-1.25-3.598c0 .72-.392 1.304-.877 1.304-.484 0-.867-.584-.867-1.304 0-.72.392-1.304.877-1.304.484 0 .867.584.867 1.304Zm.327-4.725c0 .709-.506 1.284-1.13 1.284-.623 0-1.129-.575-1.129-1.284 0-.708.497-1.286 1.13-1.286.632 0 1.129.575 1.129 1.286Zm-2.459 2.559a.867.867 0 0 1-.236.653.976.976 0 0 1-.65.303 1.01 1.01 0 0 1-.64-.307.927.927 0 0 1-.258-.639c0-.236.092-.464.258-.639a1.01 1.01 0 0 1 .64-.307c.246.014.477.12.643.295a.877.877 0 0 1 .243.64Zm5.986-7.693a.85.85 0 0 1-.234.65.96.96 0 0 1-.651.293 1.01 1.01 0 0 1-.64-.306.927.927 0 0 1-.258-.639c0-.236.092-.464.258-.639a1.01 1.01 0 0 1 .64-.307.958.958 0 0 1 .647.299c.166.177.252.41.238.649Zm28.964 1.917c0 .795-.395 1.44-.882 1.44-.488 0-.886-.646-.886-1.44 0-.793.395-1.442.886-1.442.49 0 .882.646.882 1.443Zm-6.254.49c0 .794-.399 1.44-.887 1.44-.487 0-.882-.646-.882-1.44 0-.793.395-1.43.883-1.43.487 0 .885.634.885 1.43Zm-2.676 3.586c0 .797-.398 1.44-.886 1.44s-.883-.634-.883-1.44c0-.806.395-1.44.883-1.44s.886.652.886 1.44Zm8.211-.956c0 .59-.395 1.042-.885 1.042-.491 0-.886-.467-.886-1.042s.398-1.045.886-1.045c.487 0 .885.466.885 1.045Zm-.944-6.61c0 .793-.395 1.44-.883 1.44-.487 0-.885-.647-.885-1.44 0-.794.395-1.443.885-1.443.491 0 .883.646.883 1.443Zm-9.187-2.358c0 .794-.398 1.44-.885 1.44-.488 0-.886-.646-.886-1.44 0-.794.398-1.443.886-1.443.487 0 .885.646.885 1.443Zm-8.193 2.083c0 .885-.53 1.62-1.185 1.62-.654 0-1.182-.726-1.182-1.62 0-.894.531-1.623 1.182-1.623.651 0 1.185.726 1.185 1.623ZM15.01 5.881c0 .995-.494 1.792-1.111 1.792s-1.108-.806-1.108-1.8c0-.995.49-1.792 1.108-1.792.617 0 1.11.806 1.11 1.8Zm1.783 12.929c0 .797-.398 1.44-.885 1.44-.488 0-.886-.643-.886-1.44 0-.797.398-1.44.886-1.44.487 0 .885.631.885 1.44Zm13.504-8.481c0 .684-.398 1.24-.886 1.24-.487 0-.885-.553-.885-1.24 0-.688.398-1.237.886-1.237.487 0 .885.558.885 1.237Zm-4.718 4.426a.845.845 0 0 1-.222.432.907.907 0 0 1-.43.25.938.938 0 0 1-.504-.01.901.901 0 0 1-.418-.269.826.826 0 0 1-.123-.917.872.872 0 0 1 .333-.36.93.93 0 0 1 .484-.132.99.99 0 0 1 .656.33.906.906 0 0 1 .224.676Zm7.807-2.995c0 .8-.494 1.449-1.105 1.449-.61 0-1.101-.65-1.101-1.45 0-.799.497-1.448 1.108-1.448.61 0 1.098.646 1.098 1.449Zm-1.024-3.276c0 .794-.395 1.44-.886 1.44-.49 0-.883-.646-.883-1.44 0-.794.395-1.44.883-1.44s.886.643.886 1.44Zm-6.984 2.24c0 .679-.398 1.228-.885 1.228-.488 0-.886-.55-.886-1.228 0-.679.398-1.228.886-1.228.487 0 .885.538.885 1.228Zm2.482 2.789c0 .797-.399 1.443-.886 1.443-.488 0-.886-.646-.886-1.443s.395-1.44.886-1.44c.49 0 .885.646.885 1.44Zm-3.51 5.079c0 .832-.472 1.508-1.052 1.508-.58 0-1.049-.676-1.049-1.508 0-.833.47-1.508 1.05-1.508.58 0 1.052.684 1.052 1.508ZM18.697 1.113c0 .59-.398 1.059-.885 1.059-.488 0-.886-.475-.886-1.06 0-.584.398-1.059.886-1.059.487 0 .885.475.885 1.06Zm2.827.327c0 .797-.395 1.443-.886 1.443-.49 0-.876-.646-.876-1.443S20.15 0 20.638 0s.886.646.886 1.44ZM9.634 7.631c0 .64-.373 1.16-.836 1.16-.463 0-.837-.528-.837-1.16 0-.631.374-1.162.837-1.162.463 0 .836.522.836 1.162Zm24.261 11.607c0 .797-.398 1.44-.885 1.44-.488 0-.886-.643-.886-1.44 0-.797.398-1.44.886-1.44.487 0 .885.643.885 1.44Zm-.472-3.598c0 .797-.395 1.444-.886 1.444-.49 0-.885-.647-.885-1.444 0-.796.398-1.44.886-1.44.487 0 .885.638.885 1.44ZM29.77 7.265c0 .797-.396 1.44-.883 1.44-.488 0-.886-.643-.886-1.44 0-.796.395-1.44.886-1.44.49 0 .882.647.882 1.44Zm-9.39.575c0 .798-.399 1.441-.887 1.441-.487 0-.885-.643-.885-1.44 0-.797.398-1.44.885-1.44.488 0 .886.643.886 1.44Zm7.328-2.679c0 .797-.395 1.44-.886 1.44-.49 0-.888-.643-.888-1.44 0-.796.398-1.44.885-1.44.488 0 .89.647.89 1.44Zm-6.684 10.701c0 .66-.395 1.18-.886 1.18-.49 0-.882-.534-.882-1.18 0-.646.395-1.198.882-1.198.488 0 .886.537.886 1.198Zm17.735.791c0 .912-.454 1.652-1.013 1.652-.558 0-1.012-.74-1.012-1.652 0-.912.45-1.65 1.012-1.65s1.013.74 1.013 1.65Zm-28.662-5.864c0 .797-.395 1.44-.886 1.44-.49 0-.867-.643-.867-1.44 0-.797.395-1.44.883-1.44.487 0 .87.646.87 1.44Zm.753 3.376c0 .885-.497 1.629-1.105 1.629s-1.092-.744-1.092-1.629.493-1.632 1.108-1.632c.614 0 1.089.72 1.089 1.632Zm-.42 10.78c0 .73-.395 1.32-.882 1.32-.488 0-.895-.59-.895-1.32 0-.729.398-1.304.885-1.304.488 0 .892.584.892 1.304Zm1.59 2.706c0 .72-.396 1.305-.886 1.305s-.883-.59-.883-1.305c0-.714.395-1.304.883-1.304.487 0 .885.584.885 1.304Zm-3.519-4.474c0 .727-.398 1.317-.885 1.317-.488 0-.886-.59-.886-1.305 0-.714.398-1.304.886-1.304.487 0 .885.572.885 1.292Zm27.857-3.372c0 .723-.398 1.307-.886 1.307-.487 0-.886-.59-.886-1.307 0-.718.395-1.305.886-1.305.49 0 .886.584.886 1.305Zm-5.441-2.657a1.09 1.09 0 0 1-.253.586 1.169 1.169 0 0 1-.545.36 1.219 1.219 0 0 1-.663.017 1.177 1.177 0 0 1-.565-.33 1.072 1.072 0 0 1-.2-1.2 1.14 1.14 0 0 1 .43-.483c.19-.117.41-.18.636-.18.324.018.627.158.844.388.217.23.33.533.316.842ZM9.251 18.887c0 .72-.493 1.304-1.101 1.304s-1.102-.59-1.102-1.304c0-.715.494-1.305 1.102-1.305.608 0 1.101.59 1.101 1.305Zm-2.953-1.246c0 .72-.398 1.305-.885 1.305-.488 0-.886-.59-.886-1.305 0-.714.398-1.304.886-1.304.487 0 .885.584.885 1.304Zm25.307 2.883c-.178-1.11-3.16.384-4.86.99-.672.241-1.827.917-3.086 1.227l.29-.168c3.052-1.803 3.916-1.812 3.836-2.417-.08-.605-1.96-.296-5.14 1.629-1.278.77-2.411 1.05-4.216 1.95a18.05 18.05 0 0 1 7.381.115s.204-.487 2.197-1.437c3.318-1.59 3.679-1.393 3.598-1.889Z" fill="#D82916"/><path d="M27.433 25.261c-3.598 1.24-6.437-1.871-10.14-1.015 3.395-1.328 7.076.838 9.1-.171.636-.296 2.188-.844 2.778-1.095.907-.38 3.336-1.414 3.221-.227-.027.395-2.382.926-4.959 2.508Zm6.922-19.217a.89.89 0 0 1-.144.521.952.952 0 0 1-.426.355 1.003 1.003 0 0 1-1.063-.18.91.91 0 0 1-.272-.473.883.883 0 0 1 .052-.538.931.931 0 0 1 .358-.417.995.995 0 0 1 .541-.154.968.968 0 0 1 .668.255.885.885 0 0 1 .286.63Zm-1.682 0a.67.67 0 0 0 .207.504.73.73 0 0 0 .521.21.748.748 0 0 0 .514-.212.683.683 0 0 0 .2-.5.664.664 0 0 0-.194-.517.75.75 0 0 0-1.054 0 .685.685 0 0 0-.194.518v-.003Zm.574.463h-.216v-.9a2.53 2.53 0 0 1 .358-.03.531.531 0 0 1 .309.071c.03.023.055.052.072.085.016.034.024.07.023.107a.222.222 0 0 1-.058.139.24.24 0 0 1-.136.074c.093.026.139.097.167.218a.822.822 0 0 0 .068.218h-.229a.685.685 0 0 1-.074-.218c0-.094-.074-.136-.191-.136h-.105l.012.372Zm0-.502h.102c.12 0 .216-.038.216-.132 0-.095-.062-.136-.197-.136a.49.49 0 0 0-.12 0v.268Z" fill="#D82916"/><path d="M31.238 24.623c-1.697.334-2.363.903-3.768 1.16-3.06.564-6.81-.546-10.02 3.837-1.431 1.95-1.65 5.799-2.045 8.204.037-2.813 0-4.132.657-6.623.926-3.54 4.863-5.33.099-7.082-2.065-.759-3.25-2.715-5.07-3.099-1.293-.271-1.676.51-.84 1.225a37.553 37.553 0 0 1 3.91 3.456c.765.796 1.234 1.449 1.148 3.337-.13 2.503-.895 6.242-.515 9.756v.127c-1.21 1.476-3.867 2.066-5.438 2.361-.13.024-.139.062 0 .062H26.33c-.994 0-5.067-.077-5.246-4.491-.065-1.626-.025-2.14-.019-2.951 0-2.12.552-3.456 2.734-4.575 6.99-3.836 7.314-3.281 8.496-3.96.429-.248.373-1.062-1.056-.744ZM17.293 40.76c2.404-1.278 3.16-7.634 3.16-7.634s.58 7.66-3.16 7.634Z" fill="#D82916"/><path d="M46.723 40.689c-1.278.422-2.62.64-3.971.645-3.823 0-7.993-2.135-7.993-7.621 0-5.188 3.731-7.816 8.564-7.816 1.155-.01 2.305.164 3.4.518v4.054H44.48v-1.983a8.3 8.3 0 0 0-.938-.05c-3.446 0-5.49 2.13-5.49 5.209 0 3.639 2.503 5.124 5.27 5.124 1.107.008 2.2-.22 3.202-.67l.199 2.59Zm6.607-10.591c3.165 0 5.485 1.954 5.485 5.618 0 3.664-2.32 5.618-5.485 5.618-3.166 0-5.48-1.954-5.48-5.618 0-3.664 2.345-5.618 5.48-5.618Zm0 9.174c1.233 0 2.549-1.03 2.549-3.556s-1.336-3.556-2.55-3.556c-1.213 0-2.548 1.03-2.548 3.556s1.32 3.556 2.549 3.556Zm17.205-9.003v8.793h1.28V43.2h-2.33v-2.037h-7.978V43.2h-2.004v-4.138H60.9c1.34-1.495 1.473-3.156 1.473-5.261v-1.896h-1.422V30.27h9.584Zm-2.432 8.793V32.37H64.81v1.621c0 1.705 0 3.45-1.208 5.071h4.501Zm8.442-2.486c.087 1.392 1.096 2.696 3.237 2.696a8.24 8.24 0 0 0 3.41-.757v2.13c-1.202.442-2.479.67-3.767.674-3.257 0-5.867-1.768-5.867-5.618 0-3.512 2.462-5.618 5.383-5.618 4.945 0 5.026 4.886 5.026 5.828v.65l-7.422.015Zm4.48-1.954c.041-1.832-1.197-2.546-2.253-2.546-1.259 0-2.207 1.114-2.227 2.546h4.48Zm71.553 1.954c.086 1.392 1.096 2.696 3.237 2.696a8.239 8.239 0 0 0 3.41-.757v2.13c-1.202.442-2.479.67-3.767.674-3.258 0-5.868-1.768-5.868-5.618 0-3.512 2.463-5.618 5.384-5.618 4.944 0 5.026 4.886 5.026 5.828v.65l-7.422.015Zm4.481-1.954c.04-1.832-1.198-2.546-2.254-2.546-1.259 0-2.207 1.114-2.227 2.546h4.481Zm-10.777 4.704v-9.057h-2.952l-4.323 7.675h-.04l.076-1.955v-3.883h.01v-1.832h-.01v-.005h-2.635v.005h-1.392v1.832h1.392v9.057h2.808l4.446-7.68h.056l-.077 2.042v5.638h4.084v-1.837h-1.443ZM92.19 29.41a4.07 4.07 0 0 0 2.124-.527 3.841 3.841 0 0 0 1.5-1.535l-1.096-.977a3.698 3.698 0 0 1-2.526.986 3.7 3.7 0 0 1-2.526-.986l-1.096.977a3.843 3.843 0 0 0 1.498 1.534 4.06 4.06 0 0 0 2.122.527Zm4.43 9.916v-9.057h-2.947l-4.328 7.675h-.04l.081-1.955v-3.883h.005v-1.832h-.005v-.005h-2.64v.005h-1.387v1.832h1.386v9.057h2.814l4.446-7.68h.056l-.077 2.042v5.638h4.084v-1.837H96.62Zm11.75-6.873a5.032 5.032 0 0 0-1.84-.294c-1.999 0-3.538 1.412-3.538 3.596 0 1.954 1.254 3.517 3.339 3.517a6.172 6.172 0 0 0 2.284-.444l.107 2.08c-.946.284-1.931.427-2.921.426-4.078 0-5.924-2.843-5.924-5.726 0-2.882 2.106-5.51 6.148-5.51.85 0 1.698.098 2.523.293l-.178 2.062Zm2.299-2.184v3.273h1.912V32.37h1.641v6.96h-1.162v1.833h5.368V39.33h-1.218v-6.962h1.641v1.173h1.917v-3.273h-10.099Zm20.355 5.173v-.063a2.461 2.461 0 0 0 1.45-.873 2.28 2.28 0 0 0 .498-1.57c0-1.153-.586-2.667-3.615-2.667h-6.448V32.1h1.295v7.225h-1.295v1.837h6.627c2.375 0 3.92-1.094 3.92-3.048-.015-1.813-1.234-2.59-2.432-2.673Zm-4.078-3.282h1.708c.51 0 1.56.063 1.56 1.177s-1.02 1.177-1.56 1.177h-1.708V32.16Zm0 7.112V36.41h1.754c.647 0 1.845.083 1.845 1.43.01 1.452-1.31 1.432-1.815 1.432h-1.784Z" fill="#1F1F1F"/><path d="M54.293 17.446v.82h-3.73v6.032h-.97v-6.852h4.7Zm.139 1.858h.838v.71c.157-.269.388-.49.669-.64.28-.15.599-.223.92-.21 1.383 0 2.165 1.077 2.165 2.491 0 1.19-.492 2.787-2.276 2.787a1.623 1.623 0 0 1-.828-.176 1.531 1.531 0 0 1-.61-.563v2.56h-.878v-6.959Zm.878 2.503c0 1.084.445 1.926 1.406 1.926.552 0 1.383-.38 1.383-1.691 0-.82-.088-2.105-1.355-2.105-1.363-.026-1.434 1.199-1.434 1.87Zm5.156-2.503 1.395 4.069 1.394-4.069h.97c-.616 1.635-1.59 4.296-2.305 5.9-.397.861-.616 1.138-1.625 1.138a1.364 1.364 0 0 1-.373-.076v-.758c.171.056.351.084.532.083.445 0 .505-.121.93-1.138l-1.919-5.149h1.001Zm8.732 0v4.994h-.878v-4.296h-2.443v4.296h-.882v-4.994h4.203Zm5.49 0v4.994h-.878v-4.296h-2.443v4.296h-.882v-4.994h4.203Zm1.239 1.521c0-1.198.862-1.661 2.157-1.661.418 0 1.94.114 1.94 1.395v2.852c0 .208.11.314.29.314a1.72 1.72 0 0 0 .285-.037v.61a1.653 1.653 0 0 1-.477.095c-.794 0-.89-.38-.93-.759-.23.262-.519.471-.846.612-.326.14-.682.209-1.04.2-.962 0-1.633-.576-1.633-1.445 0-.595.159-1.475 1.986-1.608 1.375-.102 1.474-.204 1.474-.724s-.397-.804-1.215-.804c-1.002 0-1.14.584-1.192.963l-.799-.003Zm3.218.925c-.139.102-.357.178-1.446.31-.433.058-1.128.172-1.128.805a.774.774 0 0 0 .048.36.805.805 0 0 0 .208.303.884.884 0 0 0 .705.216c.823 0 1.613-.5 1.613-1.171v-.823Zm6.03-.273 2.245-2.173h1.116l-1.986 1.862 2.117 3.132h-1.06l-1.693-2.548-.739.66v1.896h-.881v-5.002h.882v2.173Zm6.075-2.324c1.672 0 2.423 1.35 2.423 2.654 0 1.304-.751 2.654-2.424 2.654-1.672 0-2.423-1.361-2.423-2.654s.751-2.654 2.424-2.654Zm0 4.55c1.255 0 1.521-1.248 1.521-1.896 0-.649-.266-1.896-1.522-1.896-1.255 0-1.525 1.236-1.525 1.896 0 .66.27 1.896 1.525 1.896Zm4.66-4.399 1.612 3.921 1.609-3.92h1.22v4.993h-.862v-2.897c0-.527.051-1.077.051-1.077h-.071l-1.641 3.974h-.636l-1.64-3.974h-.072s.052.55.052 1.077v2.897h-.862v-4.994h1.24Zm9.931 0v4.994h-.882v-4.296h-2.443v4.296h-.882v-4.994h4.207Zm1.255 1.521c0-1.198.858-1.661 2.157-1.661.397 0 1.939.114 1.939 1.395v2.852c0 .208.107.314.286.314.096-.004.192-.017.286-.037v.61a1.653 1.653 0 0 1-.473.095c-.794 0-.89-.38-.93-.759-.232.261-.522.47-.849.61-.327.14-.683.21-1.041.202-.962 0-1.633-.576-1.633-1.445 0-.595.159-1.475 1.986-1.608 1.375-.102 1.474-.204 1.474-.724s-.397-.804-1.216-.804c-1.001 0-1.14.584-1.191.963l-.795-.003Zm3.214.925c-.139.102-.358.178-1.442.31-.437.058-1.128.172-1.128.805a.761.761 0 0 0 .046.36.806.806 0 0 0 .207.303.88.88 0 0 0 .704.216c.822 0 1.613-.5 1.613-1.171v-.823Zm3.245-.436h2.443v-2.01h.882v4.994h-.882v-2.275h-2.443v2.275h-.882v-4.994h.882v2.01Zm5.49 1.729 2.567-3.739h.917v4.994h-.878v-3.739h-.019l-2.563 3.739h-.921v-4.994h.882l.015 3.739Zm5.669 0h.02l2.562-3.739h.918v4.994h-.878v-3.739h-.02l-2.562 3.739h-.922v-4.994h.882v3.739Zm1.395-4.842a.984.984 0 0 0 .663-.19.905.905 0 0 0 .354-.569h.484c0 .338-.167 1.301-1.482 1.301-1.314 0-1.533-.944-1.533-1.3h.493a.85.85 0 0 0 .339.59.93.93 0 0 0 .682.17Z" fill="#93928D"/></svg>