<svg width="44" height="45" fill="none" xmlns="http://www.w3.org/2000/svg"><path d="M21.945 41.908c-10.853 0-19.708-8.836-19.708-19.708 0-10.872 8.855-19.708 19.708-19.708 10.853 0 19.709 8.836 19.709 19.708 0 10.872-8.837 19.708-19.709 19.708Zm0-36.666c-9.35 0-16.958 7.608-16.958 16.958 0 9.35 7.608 16.958 16.958 16.958 9.35 0 16.959-7.608 16.959-16.958 0-9.35-7.609-16.958-16.959-16.958Z" fill="#1F1F1F"/><path d="M19.36 31.348a4.545 4.545 0 0 1-2.255-.586c-1.577-.917-2.457-2.714-2.457-5.06V19.56c0-2.347.862-4.143 2.439-5.06 1.576-.917 3.575-.77 5.61.403l5.316 3.062c2.035 1.173 3.154 2.823 3.154 4.657 0 1.815-1.119 3.483-3.154 4.656l-5.316 3.062c-1.137.678-2.292 1.008-3.337 1.008Zm0-14.703c-.33 0-.642.073-.88.22-.697.403-1.082 1.375-1.082 2.695v6.142c0 1.301.385 2.291 1.082 2.676.678.404 1.723.239 2.86-.403l5.317-3.062c1.136-.66 1.778-1.485 1.778-2.273s-.66-1.613-1.778-2.273l-5.317-3.062c-.733-.44-1.412-.66-1.98-.66Z" fill="#1F1F1F"/></svg>