<svg width="20" height="21" fill="none" xmlns="http://www.w3.org/2000/svg"><path d="M9.408 12.942a1.52 1.52 0 0 0-.1.125.634.634 0 0 0-.075.15.534.534 0 0 0-.05.15 1.134 1.134 0 0 0 0 .166.7.7 0 0 0 .067.317.75.75 0 0 0 .45.45.783.783 0 0 0 .633 0 .752.752 0 0 0 .45-.45.834.834 0 0 0 .05-.317.833.833 0 0 0-1.425-.591ZM10 1.867a8.333 8.333 0 1 0 0 16.666 8.333 8.333 0 0 0 0-16.666Zm0 15a6.667 6.667 0 1 1 0-13.334 6.667 6.667 0 0 1 0 13.334Zm0-10.834a2.5 2.5 0 0 0-2.167 1.25.833.833 0 1 0 1.442.834.833.833 0 0 1 1.314-.173A.833.833 0 0 1 10 9.367a.833.833 0 0 0-.833.833v.833a.833.833 0 0 0 1.666 0v-.15A2.5 2.5 0 0 0 10 6.033Z" fill="#BABABA"/></svg>