<svg width="27" height="22" fill="none" xmlns="http://www.w3.org/2000/svg"><path d="M6.175 21.78c-1.777 0-3.25-.563-4.42-1.69S0 17.533 0 15.8c0-1.04.173-2.102.52-3.185.347-1.127.953-2.557 1.82-4.29L6.305.2h6.11l-2.73 10.465c1.863 1.3 2.795 3.033 2.795 5.2 0 1.69-.607 3.098-1.82 4.225-1.213 1.127-2.708 1.69-4.485 1.69Zm14.43 0c-1.777 0-3.25-.563-4.42-1.69s-1.755-2.557-1.755-4.29c0-1.04.173-2.102.52-3.185.347-1.127.953-2.557 1.82-4.29L20.735.2h6.11l-2.73 10.465c1.863 1.3 2.795 3.033 2.795 5.2 0 1.69-.607 3.098-1.82 4.225-1.213 1.127-2.708 1.69-4.485 1.69Z" fill="#93928D"/></svg>