<?xml version="1.0" encoding="utf-8"?><svg viewBox="0 0 22 23" xmlns="http://www.w3.org/2000/svg" xmlns:xlink="http://www.w3.org/1999/xlink"><style>:root>svg{display:none}:root>svg:target{display:block}</style><svg fill="none" viewBox="-1 -1 22 23" id="svg-call" xmlns="http://www.w3.org/2000/svg"><path d="M14.541 19.558c-.941 0-1.933-.225-2.958-.658-1-.425-2.008-1.008-2.992-1.717a26.004 26.004 0 01-2.808-2.391 24.907 24.907 0 01-2.392-2.8c-.716-1-1.291-2-1.7-2.967-.433-1.033-.65-2.033-.65-2.975 0-.65.117-1.267.342-1.842A4.45 4.45 0 012.5 2.592c.642-.634 1.375-.95 2.158-.95.325 0 .658.075.942.208.325.15.6.375.8.675L8.333 5.25c.175.242.309.475.4.708.108.25.167.5.167.742 0 .317-.092.625-.267.917a3.334 3.334 0 01-.558.708l-.567.592c.008.025.017.041.025.058.1.175.3.475.683.925.409.467.792.892 1.176 1.283.491.484.9.867 1.283 1.184.475.4.783.6.966.691l-.016.042.608-.6c.258-.258.508-.45.75-.575.458-.283 1.042-.333 1.625-.092.217.092.45.217.7.392l2.767 1.967c.308.208.533.475.666.791.125.317.184.609.184.9 0 .4-.092.8-.267 1.175-.175.375-.392.7-.667 1-.474.525-.991.9-1.591 1.142a4.92 4.92 0 01-1.858.358zM4.659 2.892c-.458 0-.883.2-1.292.6-.383.358-.65.75-.816 1.175a3.646 3.646 0 00-.258 1.383c0 .775.183 1.617.55 2.483.374.884.9 1.8 1.566 2.717a23.056 23.056 0 002.258 2.65 23.465 23.465 0 002.659 2.267c.9.658 1.825 1.191 2.742 1.575 1.425.608 2.758.75 3.858.291.425-.175.8-.441 1.142-.825a2.7 2.7 0 00.466-.7c.1-.208.15-.425.15-.641a.994.994 0 00-.091-.417.63.63 0 00-.234-.25l-2.767-1.967a2.393 2.393 0 00-.458-.258c-.183-.075-.258-.15-.541.025a1.896 1.896 0 00-.484.375l-.633.625a1.188 1.188 0 01-1.208.25l-.226-.1c-.341-.183-.741-.467-1.183-.842-.4-.341-.833-.741-1.358-1.258a29.106 29.106 0 01-1.242-1.35c-.391-.458-.675-.85-.85-1.175l-.1-.25c-.05-.192-.066-.3-.066-.417 0-.3.108-.566.316-.775l.625-.65c.167-.166.292-.325.375-.466a.534.534 0 00.092-.284.775.775 0 00-.067-.266 2.39 2.39 0 00-.267-.442L5.383 3.242a.768.768 0 00-.308-.259 1.044 1.044 0 00-.417-.091zm6.967 10.216l-.133.567.224-.583c-.041-.009-.074 0-.091.016zM15.417 8.725a.63.63 0 01-.625-.625c0-.3-.3-.925-.8-1.458-.492-.525-1.034-.834-1.492-.834a.63.63 0 01-.625-.625.63.63 0 01.625-.625c.808 0 1.658.434 2.4 1.225.692.742 1.142 1.65 1.142 2.317a.63.63 0 01-.625.625zM18.333 8.725a.63.63 0 01-.625-.625A5.21 5.21 0 0012.5 2.892a.63.63 0 01-.625-.625.63.63 0 01.625-.625c3.558 0 6.458 2.9 6.458 6.458a.63.63 0 01-.625.625z" fill="#000"/></svg><svg fill="none" viewBox="-1 -1 22 23" id="svg-menu" xmlns="http://www.w3.org/2000/svg"><path d="M17.5 7.058h-15a.63.63 0 01-.625-.625.63.63 0 01.625-.625h15a.63.63 0 01.625.625.63.63 0 01-.625.625zM17.5 11.225h-15a.63.63 0 01-.625-.625.63.63 0 01.625-.625h15a.63.63 0 01.625.625.63.63 0 01-.625.625zM17.5 15.392h-15a.63.63 0 01-.625-.625.63.63 0 01.625-.625h15a.63.63 0 01.625.625.63.63 0 01-.625.625z" fill="#fff"/></svg><svg fill="none" viewBox="-1 -1 22 23" id="svg-search-loop" xmlns="http://www.w3.org/2000/svg"><path d="M9.583 18.725c-4.708 0-8.541-3.833-8.541-8.542 0-4.708 3.833-8.541 8.541-8.541s8.542 3.833 8.542 8.541c0 4.709-3.834 8.542-8.542 8.542zm0-15.833c-4.025 0-7.292 3.275-7.292 7.291 0 4.017 3.267 7.292 7.292 7.292s7.292-3.275 7.292-7.292c0-4.016-3.267-7.291-7.292-7.291zM18.334 19.558a.618.618 0 01-.442-.183l-1.667-1.667a.629.629 0 010-.883.629.629 0 01.883 0l1.667 1.667a.629.629 0 010 .883.618.618 0 01-.441.183z" fill="#000"/></svg><svg viewBox="-1 -1 20 17" id="svg-telegram" xmlns="http://www.w3.org/2000/svg"><path d="M1.687 6.753c4.637-2.02 7.729-3.352 9.276-3.995C15.38.921 16.298.602 16.896.591c.131-.002.425.03.616.185a.67.67 0 01.226.43c.022.125.048.407.027.627-.24 2.515-1.275 8.618-1.802 11.435-.223 1.192-.662 1.591-1.087 1.63-.923.085-1.625-.61-2.52-1.197-1.4-.917-2.19-1.488-3.549-2.384-1.57-1.034-.552-1.603.343-2.533.234-.243 4.303-3.945 4.382-4.28.01-.042.02-.199-.074-.282-.093-.082-.23-.054-.33-.031-.14.031-2.376 1.51-6.708 4.434-.635.436-1.21.648-1.725.637-.568-.012-1.66-.321-2.472-.585C1.227 8.353.435 8.182.504 7.632c.036-.286.43-.58 1.183-.879z"/></svg><svg viewBox="-1 -1 21 22" id="svg-viber" xmlns="http://www.w3.org/2000/svg"><path d="M16.348 1.85C15.878 1.419 13.97.032 9.721.013c0 0-5.014-.3-7.456 1.942C.906 3.313.43 5.303.375 7.77c-.054 2.468-.115 7.093 4.343 8.35h.004l-.004 1.915s-.03.776.48.932c.617.193.98-.398 1.57-1.033a58 58 0 001.106-1.25 17.274 17.274 0 005.778-.441l-.118.025c.616-.2 4.1-.646 4.664-5.27.59-4.774-.28-7.785-1.85-9.148zm.517 8.8c-.481 3.859-3.304 4.104-3.823 4.27a15.555 15.555 0 01-3.776.453 16.1 16.1 0 01-1.144-.04l.05.003s-1.989 1.764-2.59 2.368c.375-.377-.334-2.829-.334-2.829-3.773-1.046-3.555-4.986-3.51-7.043.044-2.058.43-3.749 1.58-4.884 2.068-1.874 6.325-1.596 6.325-1.596 3.596.015 5.318 1.099 5.719 1.462 1.325 1.136 2 3.854 1.503 7.835zm-5.155-3v.012a.24.24 0 01-.48.012 1.148 1.148 0 00-1.213-1.258h.003a.24.24 0 01.013-.481h.067a1.613 1.613 0 011.61 1.721v-.005zm.753.421c.037-1.574-.946-2.806-2.813-2.943a.24.24 0 11.034-.48h.013a3.25 3.25 0 013.245 3.442v-.009a.24.24 0 01-.48-.006v-.006.002zm1.742.498v.002a.24.24 0 01-.481.002c-.019-3.026-2.037-4.673-4.482-4.69a.24.24 0 110-.48c2.738.019 4.939 1.908 4.961 5.165h.002zm-.416 3.64v.007c-.4.706-1.15 1.485-1.922 1.236l-.007-.011a14.282 14.282 0 01-3.825-2.121l.033.024a9.78 9.78 0 01-1.56-1.554l-.014-.02a11.94 11.94 0 01-1.11-1.667l-.032-.063a10.813 10.813 0 01-.944-1.99l-.024-.077c-.249-.772.526-1.522 1.236-1.922h.007a.674.674 0 01.887.143v.002s.46.548.657.82c.186.252.435.657.564.883a.772.772 0 01-.137.986l-.446.357a.65.65 0 00-.196.522V7.76a4.67 4.67 0 003.096 3.12l.033.01a.653.653 0 00.52-.196l.355-.445a.773.773 0 01.99-.136l-.002-.001c.643.366 1.2.77 1.707 1.226l-.008-.008a.66.66 0 01.139.879l.001-.003.002.002z"/></svg><svg viewBox="-1 -1 20 21" id="svg-whatsapp" xmlns="http://www.w3.org/2000/svg"><path fill-rule="evenodd" clip-rule="evenodd" d="M15.045 3.347C13.426 1.727 11.267.864 9 .864 4.25.864.364 4.75.364 9.5c0 1.511.431 3.023 1.187 4.318L.364 18.136l4.534-1.187c1.295.648 2.698 1.08 4.102 1.08 4.75 0 8.636-3.887 8.636-8.637 0-2.267-.971-4.426-2.59-6.045zM9 16.625c-1.296 0-2.591-.324-3.67-.972l-.216-.107-2.7.755.756-2.59-.216-.325c-.755-1.187-1.08-2.483-1.08-3.778 0-3.886 3.24-7.125 7.126-7.125 1.943 0 3.67.756 5.074 2.051 1.403 1.404 2.05 3.13 2.05 5.074 0 3.778-3.13 7.017-7.124 7.017zm3.886-5.398c-.216-.108-1.295-.648-1.511-.648-.216-.107-.324-.107-.432.108-.108.216-.54.648-.648.864-.108.108-.216.108-.431.108-.216-.108-.864-.324-1.728-1.08-.647-.54-1.08-1.295-1.187-1.51-.108-.217 0-.325.108-.433l.324-.323c.108-.108.108-.216.215-.324.108-.108 0-.216 0-.324 0-.108-.431-1.188-.647-1.62-.108-.323-.324-.323-.432-.323h-.432c-.108 0-.324 0-.54.215-.216.216-.755.756-.755 1.836s.755 2.05.863 2.267c.108.108 1.512 2.375 3.67 3.238 1.836.756 2.16.54 2.592.54.432 0 1.295-.54 1.403-.971.216-.54.216-.972.108-.972-.108-.54-.324-.54-.54-.648z"/></svg></svg>